<?xml version="1.0" encoding="UTF-8" standalone="no"?>
<!-- Created with Inkscape (http://www.inkscape.org/) -->

<svg
   version="1.1"
   id="svg198"
   width="831.61572"
   height="792.32739"
   viewBox="0 0 831.61572 792.32739"
   sodipodi:docname="SJC LOGO BRANCA.png"
   inkscape:version="1.2.2 (732a01da63, 2022-12-09, custom)"
   inkscape:dataloss="true"
   inkscape:export-filename="../3ecc853b/van veen azul e laranja.svg"
   inkscape:export-xdpi="96"
   inkscape:export-ydpi="96"
   xmlns:inkscape="http://www.inkscape.org/namespaces/inkscape"
   xmlns:sodipodi="http://sodipodi.sourceforge.net/DTD/sodipodi-0.dtd"
   xmlns="http://www.w3.org/2000/svg"
   xmlns:svg="http://www.w3.org/2000/svg">
  <defs
     id="defs202" />
  <sodipodi:namedview
     id="namedview200"
     pagecolor="#ffffff"
     bordercolor="#000000"
     borderopacity="0.25"
     inkscape:showpageshadow="2"
     inkscape:pageopacity="0.0"
     inkscape:pagecheckerboard="0"
     inkscape:deskcolor="#d1d1d1"
     showgrid="false"
     inkscape:zoom="0.34595752"
     inkscape:cx="1130.1966"
     inkscape:cy="657.59519"
     inkscape:window-width="1366"
     inkscape:window-height="704"
     inkscape:window-x="0"
     inkscape:window-y="27"
     inkscape:window-maximized="1"
     inkscape:current-layer="g204" />
  <g
     inkscape:groupmode="layer"
     inkscape:label="Image"
     id="g204"
     transform="translate(1986.3355,453.75682)">
    <rect
       style="fill:#df7526;fill-opacity:0;stroke:none;stroke-width:1.88976;stroke-opacity:1"
       id="rect12689"
       width="831.61548"
       height="792.32739"
       x="-1986.3353"
       y="-453.75681"
       inkscape:export-filename="../e4ef24d6/van veen logo.svg"
       inkscape:export-xdpi="96"
       inkscape:export-ydpi="96" />
    <g
       id="g12698"
       transform="matrix(1.0334921,0,0,1.0334921,-2084.0188,-287.92547)">
      <rect
         style="fill:#19325b;fill-opacity:1;stroke:none;stroke-width:1.88976;stroke-opacity:1"
         id="rect3878"
         width="202.84747"
         height="216.40997"
         x="256.84369"
         y="236.77161" />
      <rect
         style="fill:#19325b;fill-opacity:1;stroke:none;stroke-width:1.88976;stroke-opacity:1"
         id="rect3878-3"
         width="202.84747"
         height="216.40997"
         x="560.01813"
         y="-31.496492" />
      <path
         style="fill:#19325b;fill-opacity:1;stroke:none;stroke-width:1.88976;stroke-opacity:1"
         d="m 495.33003,600.6944 57.91901,-20.04479 49.76403,-22.30875 32.96205,-20.7782 37.48365,-20.7694 37.72845,-28.29434 34.52701,-36.3019 25.94262,-32.95375 24.71114,-36.63364 21.71663,-46.34958 9.09705,-42.7868 -5.25779,-94.80467 -317.76264,2.77643 -23.22299,20.88138 -2.04391,93.93996 -5.73802,108.14674 -3.62538,110.13722 z"
         id="path4057" />
      <path
         style="fill:#19325b;fill-opacity:1;stroke:none;stroke-width:1.88976;stroke-opacity:1"
         d="m 169.75242,218.10042 -4.65008,-241.6657 71.68945,-49.674966 80.1309,-40.221584 56.99613,-22.24843 104.26244,-16.60173 30.469,3.06587 7.51298,54.446025 -12.41935,294.871565 -5.62717,7.46033 -10.40541,7.12975 z"
         id="path4059" />
      <path
         id="path994"
         style="fill:#ffffff;fill-opacity:1;stroke:none;stroke-opacity:1"
         d="m 498.91473,-160.45723 c -23.9153,-0.0152 -48.618,3.04263 -53.5469,3.9082 -12.3433,2.16763 -23.875,4.29024 -28.5,5.24609 -16.4685,3.40364 -33.8977,7.75528 -36.2363,9.04883 -0.955,0.52826 -2.3959,0.96094 -3.2012,0.96094 -1.3694,0 -18.6408,5.24093 -23.0625,6.99805 -1.1,0.43713 -6.05,2.23168 -11,3.98828 -4.95,1.7566 -10.4192,3.82805 -12.1523,4.60351 -1.7331,0.77545 -3.7794,1.41016 -4.5488,1.41016 -0.7694,0 -1.8271,0.378 -2.3496,0.83984 -0.5225,0.46185 -2.5243,1.42974 -4.4493,2.15039 -4.0615,1.5205 -7.2055,2.84292 -15.5,6.52149 -3.3,1.46354 -7.575,3.34566 -9.5,4.18164 -5.8787,2.553 -49.1426,24.101811 -54.9999,27.394531 -3.025,1.7005 -7.6449,4.40139 -10.2657,6.00195 -2.6207,1.60056 -4.9689,2.91016 -5.2187,2.91016 -0.6101,0 -39.8798,24.19528 -40.5156,24.96289 -0.275,0.33202 -2.975,2.1534 -6,4.04883 -3.025,1.89542 -5.995,3.90528 -6.5996,4.4668 -0.6046,0.56151 -3.8698,2.82148 -7.2559,5.02148 l -6.1562,4 0.2558,170.999999 0.2559,171 2.8164,10.5 c 3.737,13.92749 5.5376,19.68362 7.6601,24.5 0.9696,2.2 2.1011,5.125 2.5157,6.5 1.5422,5.11524 13.7325,30.32762 18.373,38 1.1643,1.925 2.4234,4.175 2.7969,5 1.0835,2.39316 11.1406,17.73773 17.6972,27 15.7503,22.24961 36.6046,44.4595 62.6407,66.71484 12.1681,10.40115 40.1676,30.29403 60.4999,42.98242 7.1442,4.4583 11.3237,6.89066 30,17.46094 9.6608,5.46765 59.614,29.8418 61.1582,29.8418 0.2969,0 1.9564,0.64183 3.6895,1.42578 9.8505,4.45573 14.7764,6.57422 15.2812,6.57422 0.313,0 1.9857,0.61493 3.7188,1.36523 1.7331,0.7503 5.1773,2.16037 7.6523,3.13477 2.475,0.9744 5.84129,2.59477 7.6504,3.13672 l 4.5508,1.36328 2.3477,0.79492 6.9511,2.6836 7,2.58984 4.2383,1.39258 3.8086,1.61718 c 4.49975,1.91065 4.4473,2.02417 12.0879,-0.57226 l 4.4141,-1.5 2.5,-0.80274 c 0.64979,-0.20864 3.4261,-1.60327 6.4511,-2.58593 3.025,-0.98267 6.4,-2.14578 7.5,-2.58399 1.1,-0.43821 5.375,-2.03289 9.5,-3.54492 4.125,-1.51204 8.85,-3.33441 10.5,-4.04883 1.65,-0.71443 6.6,-2.7445 11,-4.51172 4.4,-1.76721 8.4268,-3.5989 8.9493,-4.07031 0.5225,-0.4714 1.5084,-0.85742 2.1914,-0.85742 2.2095,0 51.3015,-23.75778 64.3593,-31.14648 3.025,-1.71165 7.7527,-4.33826 10.5059,-5.8379 16.8998,-9.2051 53.7343,-33.53108 66.9941,-44.24414 0.55,-0.44436 2.0349,-1.65936 3.2989,-2.69922 1.2641,-1.03984 4.173,-3.39303 6.4648,-5.23046 14.5901,-11.69778 34.9425,-31.18829 45.8711,-43.92578 12.6926,-14.79372 17.5814,-21.25108 27.8496,-36.79102 5.424,-8.20859 7.8872,-12.29706 12.4258,-20.625 0.5995,-1.1 1.3376,-2.225 1.6406,-2.5 1.6555,-1.50262 14.1607,-28.07697 17.6465,-37.5 6.984,-18.8794 7.1084,-19.31479 11.2109,-39.32617 0.7644,-3.72853 1.0854,-55.77463 1.0684,-173.5 l -0.025,-168.173829 -6.7246,-4.5 c -3.6994,-2.475 -6.9516,-4.73776 -7.2266,-5.0293 -0.803,-0.85138 -19.7807,-13.18859 -28.5,-18.52734 -4.4,-2.69412 -8.1506,-5.24516 -8.3339,-5.66992 -0.1833,-0.42477 -0.738,-0.77344 -1.2325,-0.77344 -0.4945,0 -3.7189,-1.72363 -7.166,-3.83203 -3.4472,-2.1084 -8.9676,-5.33263 -12.2676,-7.16406 -3.3,-1.83144 -7.3644,-4.09436 -9.0312,-5.02735 -12.5925,-7.04846 -38.5002,-20.299831 -47.4688,-24.279301 -1.925,-0.85412 -5.75,-2.54469 -8.5,-3.75781 -7.8541,-3.46473 -15.7163,-6.95944 -19.1523,-8.51367 -1.7331,-0.78395 -3.4058,-1.42578 -3.7188,-1.42578 -0.3131,0 -3.0291,-1.125 -6.0351,-2.5 -3.0061,-1.375 -6.1429,-2.5 -6.9707,-2.5 -0.8277,0 -1.7524,-0.3996 -2.0547,-0.88867 -0.3023,-0.48907 -1.7909,-1.18497 -3.3086,-1.54688 -2.5534,-0.60888 -14.13,-4.70318 -18.7598,-6.63476 -3.4674,-1.44667 -18.1605,-5.85735 -35,-10.50586 -14.6528,-4.04498 -30.2106,-7.2977 -56,-11.71094 -4.7852,-0.81887 -26.7489,-3.86255 -49.4531,-3.87695 z m -3.957,14.51172 -0.09,177.177731 V 208.70683 h -161.5057 -161.5039 l 0.2539,-116.724609 0.2559,-116.72656 10.5,-7.21485 c 9.9553,-6.84115 36.7901,-23.7666 42.7363,-26.95507 1.5199,-0.815 4.5637,-2.59425 6.7637,-3.95313 2.2,-1.35888 5.125,-3.00644 6.5,-3.66211 1.375,-0.65567 4.3,-2.29815 6.5,-3.65039 4.9045,-3.0146 43.9153,-22.71526 51.4999,-26.00781 10.5284,-4.570481 14.524,-6.352671 18.4375,-8.222661 2.1658,-1.03488 4.4158,-1.88567 5,-1.88867 0.5842,-0.003 2.2472,-0.62427 3.6973,-1.38086 1.45,-0.7566 6.625,-2.82558 11.5,-4.59766 4.8749,-1.77205 9.7652,-3.59078 10.8652,-4.04101 1.1,-0.45023 4.25,-1.57608 7,-2.50195 2.75,-0.92589 5.9,-2.04715 7,-2.49024 4.0397,-1.62723 21.7818,-6.98242 23.1328,-6.98242 0.7666,0 2.1759,-0.43122 3.1309,-0.95898 0.9551,-0.52777 3.9863,-1.4532 6.7363,-2.05665 2.75,-0.60344 6.575,-1.50647 8.5,-2.00585 6.9848,-1.81201 17.7405,-4.02743 29,-5.97461 6.325,-1.09384 13.975,-2.43755 17,-2.98438 3.025,-0.54683 13.6,-1.4555 23.5,-2.01953 9.9,-0.56403 19.2189,-1.39703 20.75,-1.48633 z m -191.0938,121.152341 v 12.43945 14.5605503 h 6.5586 5.4414 v 8.4277297 7.92774 17.14453 h -23.2011 -9.6992 v -5.75 -6.30469 h -14.8633 -14.2656 v 32.27735 32.27734 h 14.5293 14.5996 v -5.75 -5.75 h 16.4492 16.4511 v 16.5 16.499999 h -5.3515 -6.6485 v 8.25 l 0.01,14 -0.01,5.75 h 33.4981 33.5 v -14 -14 h -6 -6 V 93.450971 77.195111 h 16.4492 17.0527 v 5.16992 5.8418 h 14.2481 14.25 v -31.97266 -32.58203 h -14 -14.4981 v 12.31836 h -17.414 -16.0879 V 19.388471 2.2068313 h 5.7519 6.2481 v -6.75 -6.7500003 -13.5 c -21.5239,-0.0853 -47.0059,0.6548 -66.9981,0 z m 352.4043,4.33984 4.9024,9.76563 c 2.6966,5.3713503 6.4861,13.3689103 8.4218,17.7714803 l 3.5196,8.0039097 -4.3731,3.82617 c -2.4048,2.10388 -5.6086,4.59033 -7.1211,5.52539 -1.5125,0.93507 -2.75,2.47606 -2.75,3.42578 0,0.94972 2.5396,3.89096 5.6446,6.53516 3.1049,2.6442 14.4034,12.39409 25.1074,21.66797 17.2144,14.91433 19.7102,16.74641 21.6055,15.85937 1.1785,-0.55156 7.8377,-5.21399 14.7988,-10.36133 6.961,-5.14731 13.4284,-9.82254 14.373,-10.38867 1.5671,-0.93932 1.3894,-1.67823 -2.0273,-8.46289 l -3.7442,-7.43555 2.3282,-1.53515 c 1.2797,-0.84475 5.4766,-4.10715 9.3261,-7.24805 3.8498,-3.14089 7.1829,-5.52811 7.4063,-5.30469 0.9141,0.91406 -12.667,68.1823 -20.9492,103.765629 l -2.0371,8.75 h -73.7559 -73.7578 l -5.1602,-25.25 c -2.8382,-13.887479 -8.0304,-39.305299 -11.539,-56.484379 -3.6024,-17.63825 -5.888,-30.94763 -5.25,-30.57421 1.4742,0.86276 11.1984,8.45233 15.4883,12.08789 l 3.3574,2.8457 -3.6621,7.26953 c -2.9802,5.91793 -3.4319,7.54676 -2.4317,8.75195 1.5221,1.83401 20.036,15.35509 25.0957,18.32813 2.1871,1.28511 4.2452,1.86119 5,1.39844 2.7565,-1.68983 41.538,-35.3941 45.7578,-39.76758 l 4.4727,-4.63867 -6.5996,-6.59961 -6.5996,-6.59961 7.5762,-17.4648497 z m 3.2422,232.160649 161.8574,-4.9e-4 -0.2207,47.25 c -0.2204,47.22437 -0.757,55.50379 -4.2636,65.75 -0.4705,1.375 -1.6579,5.2 -2.6387,8.5 -0.9807,3.3 -2.0545,5.91168 -3.0742,8.5 -1.1073,3.32345 -2.2802,7.07396 -3.5769,9.79978 -1.4652,3.06123 -9.9323,21.71593 -14.0559,28.70022 -1.6236,2.75 -4.0659,7.025 -5.4278,9.5 -4.7758,8.67948 -20.4439,31.40496 -26.8789,38.98437 -12.6377,14.38317 -12.0976,14.28557 -22.6133,24.61719 -26.1198,25.60541 -55.124,47.96584 -88.25,68.0332 -24.8973,15.08274 -65.2851,35.88102 -86,44.28711 -1.1,0.44638 -3.125,1.29708 -4.5,1.89063 -2.1744,0.93865 -4.6507,1.98704 -14.5,6.14062 -1.1,0.46389 -3.6442,1.56424 -5.6523,2.44532 l -7.6113,2.5 c -1.8121,0.93643 -2.8681,1.34644 -20.5762,8.01758 -5.9618,2.24595 -11.2493,4.08398 -11.75,4.08398 -0.5439,0 -0.55033,-75.64408 -0.9102,-187.91797 l -0.6074,-191.08154 h 2.34692 c 0,0 39.73005,2.7e-4 158.90308,0 z m -11.8375,37.05615 c 6.6541,-0.1084 13.454,1.41497 19.9453,4.65234 7.6485,3.81449 6.9559,5.2857 -2.5,5.3125 -5.5714,0.0158 -8.986,0.58476 -12.1484,2.01954 -2.4193,1.09768 -4.2201,2.1744 -4,2.39453 0.2201,0.22014 2.8606,-0.23767 5.8672,-1.01758 11.2035,-2.90614 16.2132,-1.8522 31.5332,6.63476 8.9645,4.96634 9.5755,5.5036 8.9805,7.88868 -1.1042,4.42609 -4.3837,8.77484 -7.6289,10.11914 -3.1198,1.29223 -3.9525,1.20371 -16.4454,-1.74024 -2.2444,-0.52889 -5.4082,1.91609 -5.4082,4.17969 0,2.95281 3.0708,4.61158 7.3653,3.97852 4.5464,-0.67019 11.642,1.64021 11.625,3.78515 -0.013,1.66939 -4.741,11.73633 -5.5117,11.73633 -0.337,0 -2.0876,-1.12468 -3.8907,-2.5 -1.8032,-1.37532 -5.936,-3.40838 -9.1836,-4.51758 -3.2477,-1.10919 -7.1614,-2.93639 -8.6972,-4.06055 -2.6009,-1.90376 -2.5323,-1.68075 1,3.26563 2.0858,2.92076 7.9554,9.67108 13.0429,15 l 9.25,9.68945 v 7.9375 7.93555 l 3.125,0.625 c 1.7188,0.34375 6.1063,0.62886 9.75,0.63086 3.6438,0.002 11.7175,0.29763 17.9414,0.65625 l 11.3164,0.65234 3.4336,6.81836 c 1.8886,3.75015 3.4336,7.43112 3.4336,8.17969 0,0.87744 -3.5107,2.30162 -9.8808,4.00976 -5.4344,1.45727 -10.6281,2.9368 -11.541,3.28711 -1.2201,0.46822 -1.9714,-0.19083 -2.8379,-2.48632 -1.5051,-3.98757 -2.306,-3.97127 -18.2071,0.38671 -21.4127,5.86861 -21.7511,5.84115 -29.332,-2.35937 -3.5794,-3.8725 -4.1902,-4.23202 -3.6484,-2.15039 0.3579,1.375 1.9546,4.16116 3.5488,6.19141 1.5943,2.03023 2.8984,4.0696 2.8984,4.53125 0,0.46164 -3.3883,2.51544 -7.5293,4.56445 -10.4688,5.18016 -15.6924,10.25269 -18.5234,17.98633 -6.2402,17.04708 -12.0233,24.46271 -23.8906,30.63672 -7.9898,4.15677 -11.0567,7.00544 -11.0567,10.27148 0,1.48538 1.1939,1.78094 8.2403,2.0293 l 8.2402,0.28906 3.3184,7.75 c 1.8253,4.2624 3.041,8.1999 2.7011,8.75 -0.7164,1.15914 -35.3913,1.3782 -37.0937,0.23437 -1.3326,-0.89544 -7.8291,-41.58268 -6.7051,-41.99414 0.439,-0.16072 3.9412,-2.19728 7.7832,-4.52539 9.6011,-5.81783 12.0518,-10.18125 11.916,-21.21484 -0.1165,-9.45959 -1.3119,-12.6452 -8.1211,-21.63477 -6.2031,-8.18952 -8.1655,-14.8068 -5.9589,-20.08789 0.8009,-1.91734 3.6335,-6.2916 6.2949,-9.71875 3.9495,-5.08576 4.8379,-6.96887 4.8379,-10.25 0,-5.25789 -3.7874,-8.80859 -9.3985,-8.80859 -6.1403,0 -7.92,2.22517 -9.5937,12 -1.7365,10.1424 -4.0603,13 -10.5742,13 -5.5517,0 -12.8868,-1.9829 -12.8868,-3.48438 0,-0.68636 2.2468,-2.18246 4.9942,-3.32421 5.3237,-2.2124 5.8982,-3.04674 8.4258,-12.25391 0.84,-3.05955 2.5506,-7.0763 3.8027,-8.92578 6.7673,-9.99633 24.2353,-10.7307 32.9629,-1.38672 6.8892,7.37566 6.352,16.82469 -1.6133,28.4043 -2.1388,3.10919 -3.5723,6.39411 -3.5723,8.17968 0,7.17124 7.1344,12.89193 13.4707,10.80078 9.4105,-3.10573 18.6949,-22.88116 18.4727,-39.34765 l -0.057,-4.16211 -1.9317,6.09766 c -1.7843,5.62766 -8.7325,15.40234 -10.9473,15.40234 -0.4516,0 -0.75,-4.38752 -0.664,-9.75 0.1528,-9.53193 0.0555,-9.97366 -4.3086,-19.75 -4.1962,-9.3993 -4.466,-10.54063 -4.5,-19 -0.043,-10.82334 1.971,-15.63959 10.3203,-24.68945 8.1741,-8.86011 18.859,-13.57325 29.9492,-13.75391 z m -310.5258,0.83789 2.9629,2.80273 c 8.5333,8.0757 18.7143,26.8926 21.4121,39.57422 2.445,11.49344 1.4358,21.02473 -3.625,34.22852 -10.48,27.34294 -13.3198,37.91468 -14.455,53.80469 l -0.5586,7.80468 4.7421,-0.30468 4.7422,-0.30469 0.836,-7 c 2.0289,-16.97817 6.5344,-28.64638 14.5429,-37.66602 16.3301,-18.39145 43.1325,-9.27157 44.8946,15.27539 1.0082,14.04402 -6.5944,25.03222 -19.3028,27.89844 l -3.4707,0.78125 v -5.94336 c 0,-9.84785 -3.1715,-13.8457 -10.9843,-13.8457 -7.6576,0 -13.6955,5.23229 -15.9903,13.85547 -1.7442,6.55375 -1.1693,7.14453 6.9434,7.14453 h 7.0312 v 8 8 h -15.6113 -15.6113 l 0.6855,3.75 c 0.9836,5.37042 3.543,9.31028 8.2813,12.75 2.2732,1.6502 4.1593,3.5152 4.1933,4.14453 0.1136,2.12647 -5.7307,7.36372 -8.9316,8.00391 -3.2695,0.65388 -3.3959,0.84063 -6.5215,9.67382 -0.9385,2.65246 -2.6975,5.97697 -3.9101,7.38672 l -2.2051,2.5625 -3.084,-3.74218 c -1.6965,-2.05817 -3.6495,-5.83072 -4.3398,-8.38477 -1.5349,-5.67786 -2.5994,-7.14453 -5.1856,-7.14453 -1.0974,0 -3.8397,-1.84373 -6.0937,-4.09766 l -4.0977,-4.09765 5.7441,-5.15235 c 3.7519,-3.36534 6.08,-6.36257 6.7149,-8.64453 2.04,-7.332 2.7166,-7.00781 -14.5703,-7.00781 h -15.541 l 0.291,-7.75 0.2929,-7.75 7.25,-0.29297 7.25,-0.29492 -0.021,-3.20508 c -0.074,-10.86377 -12.519,-21.49085 -20.5547,-17.55273 -4.8735,2.3884 -6.7705,6.07846 -6.8516,13.32226 -0.04,3.58844 -0.1682,6.52337 -0.2851,6.52344 -0.1169,7e-5 -2.7414,-0.94518 -5.832,-2.10156 -11.5536,-4.32274 -16.8945,-11.86263 -16.9317,-23.89844 -0.019,-6.22783 0.4528,-8.47079 2.7891,-13.22852 3.4312,-6.98742 8.4585,-11.33465 15.4902,-13.39257 13.8333,-4.04856 27.302,3.88194 35.1191,20.67773 2.2629,4.86213 8.0781,28.27522 8.0781,32.52539 0,0.23058 1.8,0.41797 4,0.41797 h 4 v -6.36914 c 0,-13.25446 -3.4734,-26.62824 -14.0546,-54.13086 -3.6216,-9.41304 -4.2972,-12.37056 -4.6895,-20.5 -0.8845,-18.33126 6.0814,-36.03748 20.4805,-52.05274 z m 391.7207,35.35352 c 0,2.3767 -6.3046,20.25496 -7.4004,20.98632 -0.6054,0.40408 -2.5126,0.742 -4.2382,0.75 -3.4573,0.0169 -3.1162,-0.59923 -12.1875,22.01563 l -3.8106,9.5 -7.6972,0.29297 c -5.6209,0.21347 -7.808,-0.0563 -8.1075,-1 -0.2257,-0.71079 -0.7103,-3.52879 -1.0781,-6.26172 -0.3678,-2.73292 -1.7509,-7.10551 -3.0742,-9.7168 -1.3232,-2.61127 -2.4063,-5.21296 -2.4063,-5.78125 0,-0.56828 1.9935,-1.0332 4.4317,-1.0332 5.0832,0 5.6535,-0.57647 18.5781,-18.79883 4.0179,-5.66468 8.1051,-10.7272 9.082,-11.25 1.3775,-0.7372 5.8539,-1.04311 9.9864,-0.97461 4.1325,0.0685 7.9218,0.51144 7.9218,1.27149 z m -56.3379,92.85351 c 7.2574,4.48535 10.3788,18.33564 6.8672,30.47852 -1.4299,4.94452 -2.786,6.98075 -8.2226,12.35156 -6.0635,5.99011 -6.4717,6.67023 -5.9453,9.91406 0.858,5.28736 1.6478,5.59444 9.6855,3.7793 3.9585,-0.89395 7.5258,-1.625 7.9258,-1.625 0.4,0 1.9899,3.0375 3.5332,6.75 1.5434,3.7125 3.1862,7.17867 3.6504,7.70117 0.4641,0.5225 0.8437,1.535 0.8437,2.25 0,1.02086 -4.0631,1.29883 -18.9218,1.29883 h -18.9219 l -7.5781,-15.63086 c -4.168,-8.59751 -7.5782,-16.24753 -7.5782,-17 0,-0.84497 1.1157,-1.36914 2.918,-1.36914 3.8305,0 6.082,-0.91562 6.082,-2.47266 0,-2.51267 -4.1997,-6.50512 -8.0546,-7.66015 -4.9363,-1.47894 -5.0734,-3.29193 -0.8829,-11.67774 5.441,-10.88827 16.6508,-18.47473 26.0645,-19.02343 3.1379,-0.18291 6.0766,0.41607 8.5351,1.93554 z m -24.857,-129.04492 c 6.6541,-0.1084 13.454,1.41497 19.9453,4.65234 7.6485,3.81449 6.9559,5.2857 -2.5,5.3125 -5.5714,0.0158 -8.986,0.58476 -12.1484,2.01954 -2.4193,1.09768 -4.2201,2.1744 -4,2.39453 0.2201,0.22014 2.8606,-0.23767 5.8672,-1.01758 11.2035,-2.90614 16.2132,-1.8522 31.5332,6.63476 8.9645,4.96634 9.5755,5.5036 8.9805,7.88868 -1.1042,4.42609 -4.3837,8.77484 -7.6289,10.11914 -3.1198,1.29223 -3.9525,1.20371 -16.4454,-1.74024 -2.2444,-0.52889 -5.4082,1.91609 -5.4082,4.17969 0,2.95281 3.0708,4.61158 7.3653,3.97852 4.5464,-0.67019 11.642,1.64021 11.625,3.78515 -0.013,1.66939 -4.741,11.73633 -5.5117,11.73633 -0.337,0 -2.0876,-1.12468 -3.8907,-2.5 -1.8032,-1.37532 -5.936,-3.40838 -9.1836,-4.51758 -3.2477,-1.10919 -7.1614,-2.93639 -8.6972,-4.06055 -2.6009,-1.90376 -2.5323,-1.68075 1,3.26563 2.0858,2.92076 7.9554,9.67108 13.0429,15 l 9.25,9.68945 v 7.9375 7.93555 l 3.125,0.625 c 1.7188,0.34375 6.1063,0.62886 9.75,0.63086 3.6438,0.002 11.7175,0.29763 17.9414,0.65625 l 11.3164,0.65234 3.4336,6.81836 c 1.8886,3.75015 3.4336,7.43112 3.4336,8.17969 0,0.87744 -3.5107,2.30162 -9.8808,4.00976 -5.4344,1.45727 -10.6281,2.9368 -11.541,3.28711 -1.2201,0.46822 -1.9714,-0.19083 -2.8379,-2.48632 -1.5051,-3.98757 -2.306,-3.97127 -18.2071,0.38671 -21.4127,5.86861 -21.7511,5.84115 -29.332,-2.35937 -3.5794,-3.8725 -4.1902,-4.23202 -3.6484,-2.15039 0.3579,1.375 1.9546,4.16116 3.5488,6.19141 1.5943,2.03023 2.8984,4.0696 2.8984,4.53125 0,0.46164 -3.3883,2.51544 -7.5293,4.56445 -10.4688,5.18016 -15.6924,10.25269 -18.5234,17.98633 -6.2402,17.04708 -12.0233,24.46271 -23.8906,30.63672 -7.9898,4.15677 -11.0567,7.00544 -11.0567,10.27148 0,1.48538 1.1939,1.78094 8.2403,2.0293 l 8.2402,0.28906 3.3184,7.75 c 1.8253,4.2624 3.041,8.1999 2.7011,8.75 -0.7164,1.15914 -35.3913,1.3782 -37.0937,0.23437 -1.3326,-0.89544 -7.8291,-41.58268 -6.7051,-41.99414 0.439,-0.16072 3.9412,-2.19728 7.7832,-4.52539 9.6011,-5.81783 12.0518,-10.18125 11.916,-21.21484 -0.1165,-9.45959 -1.3119,-12.6452 -8.1211,-21.63477 -6.2031,-8.18952 -8.1655,-14.8068 -5.9589,-20.08789 0.8009,-1.91734 3.6335,-6.2916 6.2949,-9.71875 3.9495,-5.08576 4.8379,-6.96887 4.8379,-10.25 0,-5.25789 -3.7874,-8.80859 -9.3985,-8.80859 -6.1403,0 -7.92,2.22517 -9.5937,12 -1.7365,10.1424 -4.0603,13 -10.5742,13 -5.5517,0 -12.8868,-1.9829 -12.8868,-3.48438 0,-0.68636 2.2468,-2.18246 4.9942,-3.32421 5.3237,-2.2124 5.8982,-3.04674 8.4258,-12.25391 0.84,-3.05955 2.5506,-7.0763 3.8027,-8.92578 6.7673,-9.99633 24.2353,-10.7307 32.9629,-1.38672 6.8892,7.37566 6.352,16.82469 -1.6133,28.4043 -2.1388,3.10919 -3.5723,6.39411 -3.5723,8.17968 0,7.17124 7.1344,12.89193 13.4707,10.80078 9.4105,-3.10573 18.6949,-22.88116 18.4727,-39.34765 l -0.057,-4.16211 -1.9317,6.09766 c -1.7843,5.62766 -8.7325,15.40234 -10.9473,15.40234 -0.4516,0 -0.75,-4.38752 -0.664,-9.75 0.1528,-9.53193 0.0555,-9.97366 -4.3086,-19.75 -4.1962,-9.3993 -4.466,-10.54063 -4.5,-19 -0.043,-10.82334 1.971,-15.63959 10.3203,-24.68945 8.1741,-8.86011 18.859,-13.57325 29.9492,-13.75391 z m 81.1949,36.19141 c 0,2.3767 -6.3046,20.25496 -7.4004,20.98632 -0.6054,0.40408 -2.5126,0.742 -4.2382,0.75 -3.4573,0.0169 -3.1162,-0.59923 -12.1875,22.01563 l -3.8106,9.5 -7.6972,0.29297 c -5.6209,0.21347 -7.808,-0.0563 -8.1075,-1 -0.2257,-0.71079 -0.7103,-3.52879 -1.0781,-6.26172 -0.3678,-2.73292 -1.7509,-7.10551 -3.0742,-9.7168 -1.3232,-2.61127 -2.4063,-5.21296 -2.4063,-5.78125 0,-0.56828 1.9935,-1.0332 4.4317,-1.0332 5.0832,0 5.6535,-0.57647 18.5781,-18.79883 4.0179,-5.66468 8.1051,-10.7272 9.082,-11.25 1.3775,-0.7372 5.8539,-1.04311 9.9864,-0.97461 4.1325,0.0685 7.9218,0.51144 7.9218,1.27149 z m -56.3379,92.85351 c 7.2574,4.48535 10.3788,18.33564 6.8672,30.47852 -1.4299,4.94452 -2.786,6.98075 -8.2226,12.35156 -6.0635,5.99011 -6.4717,6.67023 -5.9453,9.91406 0.858,5.28736 1.6478,5.59444 9.6855,3.7793 3.9585,-0.89395 7.5258,-1.625 7.9258,-1.625 0.4,0 1.9899,3.0375 3.5332,6.75 1.5434,3.7125 3.1862,7.17867 3.6504,7.70117 0.4641,0.5225 0.8437,1.535 0.8437,2.25 0,1.02086 -4.0631,1.29883 -18.9218,1.29883 h -18.9219 l -7.5781,-15.63086 c -4.168,-8.59751 -7.5782,-16.24753 -7.5782,-17 0,-0.84497 1.1157,-1.36914 2.918,-1.36914 3.8305,0 6.082,-0.91562 6.082,-2.47266 0,-2.51267 -4.1997,-6.50512 -8.0546,-7.66015 -4.9363,-1.47894 -5.0734,-3.29193 -0.8829,-11.67774 5.441,-10.88827 16.6508,-18.47473 26.0645,-19.02343 3.1379,-0.18291 6.0766,0.41607 8.5351,1.93554 z"
         sodipodi:nodetypes="ssssssssssssssssssssccccsssssssssssssscccccsscssssssssssssssssssscccssssssssssssssssssssccccccccssssssssssssssssssscccccccccccccccccccccccccccccccccccccccccccccccccccccccccccccsccsssssssssccssccccssscccsssccccccccsssccssccssssccssscccssssssssssssssssssccccssscsssssscssssssscccsssssscssssssssssssscccssccsssccssccccccsccssssccccccscssccccsscsssccccccsssssssssscsssccsscsccsssssssssssssssssssccssssssssssssscscssscsssssccccsscccssssscsssssssccccssssscssscsssscsssscccssccssssscsccsssssssssssssssssssccsssssss"
         inkscape:export-filename="../9bd755b9/van veen azul, laranja e branco.svg"
         inkscape:export-xdpi="96"
         inkscape:export-ydpi="96" />
      <path
         d="m 647.67761,248.75861 c 6.6541,-0.1084 13.454,1.41497 19.9453,4.65234 7.6485,3.81449 6.9559,5.2857 -2.5,5.3125 -5.5714,0.0158 -8.986,0.58476 -12.1484,2.01954 -2.4193,1.09768 -4.2201,2.1744 -4,2.39453 0.2201,0.22014 2.8606,-0.23767 5.8672,-1.01758 11.2035,-2.90614 16.2132,-1.8522 31.5332,6.63476 8.9645,4.96634 9.5755,5.5036 8.9805,7.88868 -1.1042,4.42609 -4.3837,8.77484 -7.6289,10.11914 -3.1198,1.29223 -3.9525,1.20371 -16.4454,-1.74024 -2.2444,-0.52889 -5.4082,1.91609 -5.4082,4.17969 0,2.95281 3.0708,4.61158 7.3653,3.97852 4.5464,-0.67019 11.642,1.64021 11.625,3.78515 -0.013,1.66939 -4.741,11.73633 -5.5117,11.73633 -0.337,0 -2.0876,-1.12468 -3.8907,-2.5 -1.8032,-1.37532 -5.936,-3.40838 -9.1836,-4.51758 -3.2477,-1.10919 -7.1614,-2.93639 -8.6972,-4.06055 -2.6009,-1.90376 -2.5323,-1.68075 1,3.26563 2.0858,2.92076 7.9554,9.67108 13.0429,15 l 9.25,9.68945 v 7.9375 7.93555 l 3.125,0.625 c 1.7188,0.34375 6.1063,0.62886 9.75,0.63086 3.6438,0.002 11.7175,0.29763 17.9414,0.65625 l 11.3164,0.65234 3.4336,6.81836 c 1.8886,3.75015 3.4336,7.43112 3.4336,8.17969 0,0.87744 -3.5107,2.30162 -9.8808,4.00976 -5.4344,1.45727 -10.6281,2.9368 -11.541,3.28711 -1.2201,0.46822 -1.9714,-0.19083 -2.8379,-2.48632 -1.5051,-3.98757 -2.306,-3.97127 -18.2071,0.38671 -21.4127,5.86861 -21.7511,5.84115 -29.332,-2.35937 -3.5794,-3.8725 -4.1902,-4.23202 -3.6484,-2.15039 0.3579,1.375 1.9546,4.16116 3.5488,6.19141 1.5943,2.03023 2.8984,4.0696 2.8984,4.53125 0,0.46164 -3.3883,2.51544 -7.5293,4.56445 -10.4688,5.18016 -15.6924,10.25269 -18.5234,17.98633 -6.2402,17.04708 -12.0233,24.46268 -23.8906,30.63668 -7.9898,4.1568 -11.0567,7.0055 -11.0567,10.2715 0,1.4854 1.1939,1.781 8.2403,2.0293 l 8.2402,0.2891 3.3184,7.75 c 1.8253,4.2624 3.041,8.1999 2.7011,8.75 -0.7164,1.1591 -35.3913,1.3782 -37.0937,0.2344 -1.3326,-0.8955 -7.8291,-41.5827 -6.7051,-41.9942 0.439,-0.1607 3.9412,-2.1973 7.7832,-4.5254 9.6011,-5.8178 12.0518,-10.18123 11.916,-21.21482 -0.1165,-9.45959 -1.3119,-12.6452 -8.1211,-21.63477 -6.2031,-8.18952 -8.1655,-14.8068 -5.9589,-20.08789 0.8009,-1.91734 3.6335,-6.2916 6.2949,-9.71875 3.9495,-5.08576 4.8379,-6.96887 4.8379,-10.25 0,-5.25789 -3.7874,-8.80859 -9.3985,-8.80859 -6.1403,0 -7.92,2.22517 -9.5937,12 -1.7365,10.1424 -4.0603,13 -10.5742,13 -5.5517,0 -12.8868,-1.9829 -12.8868,-3.48438 0,-0.68636 2.2468,-2.18246 4.9942,-3.32421 5.3237,-2.2124 5.8982,-3.04674 8.4258,-12.25391 0.84,-3.05955 2.5506,-7.0763 3.8027,-8.92578 6.7673,-9.99633 24.2353,-10.7307 32.9629,-1.38672 6.8892,7.37566 6.352,16.82469 -1.6133,28.4043 -2.1388,3.10919 -3.5723,6.39411 -3.5723,8.17968 0,7.17124 7.1344,12.89193 13.4707,10.80078 9.4105,-3.10573 18.6949,-22.88116 18.4727,-39.34765 l -0.057,-4.16211 -1.9317,6.09766 c -1.7843,5.62766 -8.7325,15.40234 -10.9473,15.40234 -0.4516,0 -0.75,-4.38752 -0.664,-9.75 0.1528,-9.53193 0.055,-9.97366 -4.3086,-19.75 -4.1962,-9.3993 -4.466,-10.54063 -4.5,-19 -0.043,-10.82334 1.971,-15.63959 10.3203,-24.68945 8.1741,-8.86011 18.859,-13.57325 29.9492,-13.75391 z m 81.1949,36.19141 c 0,2.3767 -6.3046,20.25496 -7.4004,20.98632 -0.6054,0.40408 -2.5126,0.742 -4.2382,0.75 -3.4573,0.0169 -3.1162,-0.59923 -12.1875,22.01563 l -3.8106,9.5 -7.6972,0.29297 c -5.6209,0.21347 -7.808,-0.0563 -8.1075,-1 -0.2257,-0.71079 -0.7103,-3.52879 -1.0781,-6.26172 -0.3678,-2.73292 -1.7509,-7.10551 -3.0742,-9.7168 -1.3232,-2.61127 -2.4063,-5.21296 -2.4063,-5.78125 0,-0.56828 1.9935,-1.0332 4.4317,-1.0332 5.0832,0 5.6535,-0.57647 18.5781,-18.79883 4.0179,-5.66468 8.1051,-10.7272 9.082,-11.25 1.3775,-0.7372 5.8539,-1.04311 9.9864,-0.97461 4.1325,0.0685 7.9218,0.51144 7.9218,1.27149 z m -56.3379,92.85351 c 7.2574,4.48535 10.3788,18.33564 6.8672,30.47856 -1.4299,4.9445 -2.786,6.9807 -8.2226,12.3515 -6.0635,5.9901 -6.4717,6.6702 -5.9453,9.9141 0.858,5.2873 1.6478,5.5944 9.6855,3.7793 3.9585,-0.894 7.5258,-1.625 7.9258,-1.625 0.4,0 1.9899,3.0375 3.5332,6.75 1.5434,3.7125 3.1862,7.1787 3.6504,7.7012 0.4641,0.5225 0.8437,1.535 0.8437,2.25 0,1.0208 -4.0631,1.2988 -18.9218,1.2988 h -18.9219 l -7.5781,-15.6309 c -4.168,-8.5975 -7.5782,-16.2475 -7.5782,-17 0,-0.8449 1.1157,-1.3691 2.918,-1.3691 3.8305,0 6.082,-0.9156 6.082,-2.4727 0,-2.5127 -4.1997,-6.5051 -8.0546,-7.6601 -4.9363,-1.479 -5.0734,-3.292 -0.8829,-11.67777 5.441,-10.88827 16.6508,-18.47473 26.0645,-19.02343 3.1379,-0.18291 6.0766,0.41607 8.5351,1.93554 z m -24.857,-129.04492 c 6.6541,-0.1084 13.454,1.41497 19.9453,4.65234 7.6485,3.81449 6.9559,5.2857 -2.5,5.3125 -5.5714,0.0158 -8.986,0.58476 -12.1484,2.01954 -2.4193,1.09768 -4.2201,2.1744 -4,2.39453 0.2201,0.22014 2.8606,-0.23767 5.8672,-1.01758 11.2035,-2.90614 16.2132,-1.8522 31.5332,6.63476 8.9645,4.96634 9.5755,5.5036 8.9805,7.88868 -1.1042,4.42609 -4.3837,8.77484 -7.6289,10.11914 -3.1198,1.29223 -3.9525,1.20371 -16.4454,-1.74024 -2.2444,-0.52889 -5.4082,1.91609 -5.4082,4.17969 0,2.95281 3.0708,4.61158 7.3653,3.97852 4.5464,-0.67019 11.642,1.64021 11.625,3.78515 -0.013,1.66939 -4.741,11.73633 -5.5117,11.73633 -0.337,0 -2.0876,-1.12468 -3.8907,-2.5 -1.8032,-1.37532 -5.936,-3.40838 -9.1836,-4.51758 -3.2477,-1.10919 -7.1614,-2.93639 -8.6972,-4.06055 -2.6009,-1.90376 -2.5323,-1.68075 1,3.26563 2.0858,2.92076 7.9554,9.67108 13.0429,15 l 9.25,9.68945 v 7.9375 7.93555 l 3.125,0.625 c 1.7188,0.34375 6.1063,0.62886 9.75,0.63086 3.6438,0.002 11.7175,0.29763 17.9414,0.65625 l 11.3164,0.65234 3.4336,6.81836 c 1.8886,3.75015 3.4336,7.43112 3.4336,8.17969 0,0.87744 -3.5107,2.30162 -9.8808,4.00976 -5.4344,1.45727 -10.6281,2.9368 -11.541,3.28711 -1.2201,0.46822 -1.9714,-0.19083 -2.8379,-2.48632 -1.5051,-3.98757 -2.306,-3.97127 -18.2071,0.38671 -21.4127,5.86861 -21.7511,5.84115 -29.332,-2.35937 -3.5794,-3.8725 -4.1902,-4.23202 -3.6484,-2.15039 0.3579,1.375 1.9546,4.16116 3.5488,6.19141 1.5943,2.03023 2.8984,4.0696 2.8984,4.53125 0,0.46164 -3.3883,2.51544 -7.5293,4.56445 -10.4688,5.18016 -15.6924,10.25269 -18.5234,17.98633 -6.2402,17.04708 -12.0233,24.46268 -23.8906,30.63668 -7.9898,4.1568 -11.0567,7.0055 -11.0567,10.2715 0,1.4854 1.1939,1.781 8.2403,2.0293 l 8.2402,0.2891 3.3184,7.75 c 1.8253,4.2624 3.041,8.1999 2.7011,8.75 -0.7164,1.1591 -35.3913,1.3782 -37.0937,0.2344 -1.3326,-0.8955 -7.8291,-41.5827 -6.7051,-41.9942 0.439,-0.1607 3.9412,-2.1973 7.7832,-4.5254 9.6011,-5.8178 12.0518,-10.18123 11.916,-21.21482 -0.1165,-9.45959 -1.3119,-12.6452 -8.1211,-21.63477 -6.2031,-8.18952 -8.1655,-14.8068 -5.9589,-20.08789 0.8009,-1.91734 3.6335,-6.2916 6.2949,-9.71875 3.9495,-5.08576 4.8379,-6.96887 4.8379,-10.25 0,-5.25789 -3.7874,-8.80859 -9.3985,-8.80859 -6.1403,0 -7.92,2.22517 -9.5937,12 -1.7365,10.1424 -4.0603,13 -10.5742,13 -5.5517,0 -12.8868,-1.9829 -12.8868,-3.48438 0,-0.68636 2.2468,-2.18246 4.9942,-3.32421 5.3237,-2.2124 5.8982,-3.04674 8.4258,-12.25391 0.84,-3.05955 2.5506,-7.0763 3.8027,-8.92578 6.7673,-9.99633 24.2353,-10.7307 32.9629,-1.38672 6.8892,7.37566 6.352,16.82469 -1.6133,28.4043 -2.1388,3.10919 -3.5723,6.39411 -3.5723,8.17968 0,7.17124 7.1344,12.89193 13.4707,10.80078 9.4105,-3.10573 18.6949,-22.88116 18.4727,-39.34765 l -0.057,-4.16211 -1.9317,6.09766 c -1.7843,5.62766 -8.7325,15.40234 -10.9473,15.40234 -0.4516,0 -0.75,-4.38752 -0.664,-9.75 0.1528,-9.53193 0.055,-9.97366 -4.3086,-19.75 -4.1962,-9.3993 -4.466,-10.54063 -4.5,-19 -0.043,-10.82334 1.971,-15.63959 10.3203,-24.68945 8.1741,-8.86011 18.859,-13.57325 29.9492,-13.75391 z m 81.1949,36.19141 c 0,2.3767 -6.3046,20.25496 -7.4004,20.98632 -0.6054,0.40408 -2.5126,0.742 -4.2382,0.75 -3.4573,0.0169 -3.1162,-0.59923 -12.1875,22.01563 l -3.8106,9.5 -7.6972,0.29297 c -5.6209,0.21347 -7.808,-0.0563 -8.1075,-1 -0.2257,-0.71079 -0.7103,-3.52879 -1.0781,-6.26172 -0.3678,-2.73292 -1.7509,-7.10551 -3.0742,-9.7168 -1.3232,-2.61127 -2.4063,-5.21296 -2.4063,-5.78125 0,-0.56828 1.9935,-1.0332 4.4317,-1.0332 5.0832,0 5.6535,-0.57647 18.5781,-18.79883 4.0179,-5.66468 8.1051,-10.7272 9.082,-11.25 1.3775,-0.7372 5.8539,-1.04311 9.9864,-0.97461 4.1325,0.0685 7.9218,0.51144 7.9218,1.27149 z m -56.3379,92.85351 c 7.2574,4.48535 10.3788,18.33564 6.8672,30.47856 -1.4299,4.9445 -2.786,6.9807 -8.2226,12.3515 -6.0635,5.9901 -6.4717,6.6702 -5.9453,9.9141 0.858,5.2873 1.6478,5.5944 9.6855,3.7793 3.9585,-0.894 7.5258,-1.625 7.9258,-1.625 0.4,0 1.9899,3.0375 3.5332,6.75 1.5434,3.7125 3.1862,7.1787 3.6504,7.7012 0.4641,0.5225 0.8437,1.535 0.8437,2.25 0,1.0208 -4.0631,1.2988 -18.9218,1.2988 h -18.9219 l -7.5781,-15.6309 c -4.168,-8.5975 -7.5782,-16.2475 -7.5782,-17 0,-0.8449 1.1157,-1.3691 2.918,-1.3691 3.8305,0 6.082,-0.9156 6.082,-2.4727 0,-2.5127 -4.1997,-6.5051 -8.0546,-7.6601 -4.9363,-1.479 -5.0734,-3.292 -0.8829,-11.67777 5.441,-10.88827 16.6508,-18.47473 26.0645,-19.02343 3.1379,-0.18291 6.0766,0.41607 8.5351,1.93554 z"
         style="fill:#df7526;fill-opacity:1;stroke:none;stroke-opacity:1"
         id="path10986-6" />
      <path
         d="m 303.86399,-24.791244 v 12.43945 14.5605489 h 6.5586 5.4414 v 8.4277311 7.92774 17.14453 h -23.2011 -9.6992 v -5.75 -6.30469 h -14.8633 -14.2656 v 32.27735 32.27734 h 14.5293 14.5996 v -5.75 -5.75 h 16.4492 16.4511 v 16.5 16.499994 h -5.3515 -6.6485 v 8.25 l 0.01,14 -0.01,5.75 h 33.4981 33.5 v -14 -14 h -6 -6 V 93.452896 77.197036 h 16.4492 17.0527 v 5.16992 5.8418 h 14.2481 14.25 v -31.97266 -32.58203 h -14 -14.4981 v 12.31836 h -17.414 -16.0879 V 19.390396 2.2087549 h 5.7519 6.2481 v -6.75 -6.7499989 -13.5 c -21.5239,-0.0853 -47.0059,0.6548 -66.9981,0 z"
         style="fill:#df7526;fill-opacity:1;stroke:none;stroke-opacity:1"
         id="path11820" />
    </g>
  </g>
</svg>
