<svg width="502" height="142" viewBox="0 0 502 142" fill="none" xmlns="http://www.w3.org/2000/svg">
<g clip-path="url(#clip0_154_5)">
<path d="M264 132H501.826C501.939 131.155 502 130.3 502 129.436C502 114.847 485.64 103.024 465.459 103.024C459.008 103.024 452.954 104.235 447.692 106.355C440.267 91.5627 420.652 80.9997 397.63 80.9997C378.277 80.9997 361.336 88.4634 352.016 99.625C347.95 98.7126 343.636 98.2202 339.154 98.2202C321.837 98.2202 306.899 105.592 300.018 116.228C297.653 115.783 295.166 115.547 292.606 115.547C278.662 115.547 266.997 122.576 264 132Z" fill="#77A5FE"/>
</g>
<g clip-path="url(#clip1_154_5)">
<path d="M-1.71049e-05 142H161.882C161.958 140.84 162 139.667 162 138.481C162 118.456 150.864 102.229 137.128 102.229C132.737 102.229 128.616 103.892 125.034 106.801C119.98 86.4979 106.628 71.9996 90.958 71.9996C77.7849 71.9996 66.2539 82.2438 59.9098 97.5638C57.1426 96.3114 54.2061 95.6356 51.1553 95.6356C39.3681 95.6356 29.2002 105.754 24.5165 120.352C22.9064 119.742 21.214 119.417 19.4713 119.417C9.98034 119.417 2.03998 129.065 -1.71049e-05 142Z" fill="#77A5FE"/>
</g>
<g clip-path="url(#clip2_154_5)">
<path d="M159 53.9998H39.0878C39.0308 53.42 39 52.8335 39 52.2405C39 42.2282 47.2488 34.1143 57.424 34.1143C60.6766 34.1143 63.7293 34.9459 66.3822 36.4004C70.126 26.2489 80.016 18.9998 91.6237 18.9998C101.382 18.9998 109.923 24.1219 114.622 31.7819C116.672 31.1557 118.847 30.8178 121.107 30.8178C129.838 30.8178 137.37 35.8769 140.84 43.1758C142.032 42.8709 143.286 42.7086 144.577 42.7086C151.607 42.7086 157.489 47.5326 159 53.9998Z" fill="#F0F6FE"/>
</g>
<path fill-rule="evenodd" clip-rule="evenodd" d="M447.612 64.678C448.52 60.9207 449 57.0124 449 53C449 23.7289 423.48 0 392 0C360.52 0 335 23.7289 335 53C335 57.0124 335.48 60.9207 336.388 64.678H447.612Z" fill="#77A5FE"/>
<g clip-path="url(#clip3_154_5)">
<path d="M319 64.9997H489.875C489.956 64.1549 490 63.3002 490 62.4361C490 47.8468 478.246 36.0237 463.746 36.0237C459.111 36.0237 454.761 37.2355 450.98 39.3548C445.645 24.5627 431.552 13.9997 415.011 13.9997C401.106 13.9997 388.935 21.4634 382.238 32.625C379.317 31.7126 376.218 31.2202 372.997 31.2202C360.555 31.2202 349.822 38.592 344.879 49.2275C343.179 48.7834 341.393 48.5468 339.553 48.5468C329.535 48.5468 321.153 55.576 319 64.9997Z" fill="#F0F6FE"/>
</g>
<defs>
<clipPath id="clip0_154_5">
<rect width="238" height="51" fill="white" transform="matrix(-1 0 0 1 502 81)"/>
</clipPath>
<clipPath id="clip1_154_5">
<rect width="162" height="70" fill="white" transform="matrix(-1 0 0 1 162 72)"/>
</clipPath>
<clipPath id="clip2_154_5">
<rect width="120" height="35" fill="white" transform="translate(39 19)"/>
</clipPath>
<clipPath id="clip3_154_5">
<rect width="171" height="51" fill="white" transform="matrix(-1 0 0 1 490 14)"/>
</clipPath>
</defs>
</svg>
