<svg width="1429" height="209" viewBox="0 0 1429 209" fill="none" xmlns="http://www.w3.org/2000/svg">
<path fill-rule="evenodd" clip-rule="evenodd" d="M1345.27 127.525C1347.06 120.117 1348 112.411 1348 104.5C1348 46.7862 1297.86 0 1236 0C1174.14 0 1124 46.7862 1124 104.5C1124 112.411 1124.94 120.117 1126.73 127.525H1345.27Z" fill="#77A5FE"/>
<g clip-path="url(#clip0_421_18)">
<path d="M1092 128H1428.75C1428.91 126.343 1429 124.667 1429 122.973C1429 94.3663 1405.83 71.1838 1377.26 71.1838C1368.12 71.1838 1359.55 73.5598 1352.1 77.7154C1341.59 48.7113 1313.81 27.9994 1281.22 27.9994C1253.81 27.9994 1229.82 42.6341 1216.63 64.5198C1210.87 62.7306 1204.76 61.7651 1198.42 61.7651C1173.9 61.7651 1152.74 76.2197 1143 97.0736C1139.65 96.2027 1136.13 95.7389 1132.51 95.7389C1112.76 95.7389 1096.24 109.522 1092 128Z" fill="#F0F6FE"/>
</g>
<path d="M648 73.9995H404.178C404.063 72.8233 404 71.6336 404 70.4306C404 50.1199 420.772 33.6603 441.462 33.6603C448.076 33.6603 454.283 35.3473 459.677 38.2978C467.29 17.7049 487.399 2.99944 511.002 2.99944C530.842 2.99944 548.21 13.3901 557.765 28.9289C561.933 27.6586 566.356 26.9731 570.951 26.9731C588.705 26.9731 604.019 37.2359 611.074 52.0421C613.499 51.4238 616.048 51.0945 618.673 51.0945C632.968 51.0945 644.927 60.8803 648 73.9995Z" fill="#F0F6FE"/>
<g clip-path="url(#clip1_421_18)">
<path d="M-1.94161e-05 135H307.775C307.921 133.492 308 131.967 308 130.425C308 104.393 286.828 83.2972 260.712 83.2972C252.363 83.2972 244.528 85.4594 237.719 89.2409C228.11 62.8472 202.726 43.9994 172.932 43.9994C147.887 43.9994 125.964 57.317 113.903 77.2329C108.641 75.6048 103.059 74.7262 97.2582 74.7262C74.8481 74.7262 55.5165 87.8799 46.6116 106.857C43.5505 106.064 40.3329 105.642 37.0196 105.642C18.975 105.642 3.87848 118.185 -1.94161e-05 135Z" fill="#77A5FE"/>
</g>
<defs>
<clipPath id="clip0_421_18">
<rect width="337" height="100" fill="white" transform="matrix(-1 0 0 1 1429 28)"/>
</clipPath>
<clipPath id="clip1_421_18">
<rect width="308" height="91" fill="white" transform="matrix(-1 0 0 1 308 44)"/>
</clipPath>
</defs>
</svg>
