<svg width="41" height="90" viewBox="0 0 41 90" fill="none" xmlns="http://www.w3.org/2000/svg">
<g clip-path="url(#clip0_9_1883)">
<path d="M35.7785 25.4282L36.0299 25.6539C36.158 25.7694 36.3502 25.765 36.4635 25.6407L40.9236 20.7522C41.037 20.6327 41.0221 20.4418 40.894 20.3267L40.6378 20.1006C40.5096 19.9855 40.3174 19.99 40.209 20.1094L35.744 25.0023C35.6356 25.1222 35.6454 25.3127 35.7785 25.4282Z" fill="#13375B"/>
<path d="M20.6479 21.4573C21.2434 20.9743 25.8554 22.9906 25.7964 23.6956C25.7373 24.3957 29.0154 31.2034 29.0154 31.2034L34.6807 26.7049C34.7299 26.5406 35.2713 24.7903 35.291 24.4798C35.3254 24.1474 36.2803 23.5758 36.7233 23.6599C37.1663 23.744 36.3394 24.2984 36.2852 24.4001C36.1376 24.6793 36.7085 24.7815 36.7085 24.7815C36.7085 24.7815 38.3475 23.8907 38.382 23.3631C38.4165 22.8356 38.7561 21.7321 39.1055 21.9624C39.2877 22.0822 39.2877 22.8664 39.2335 23.2346C39.3369 22.8136 39.4846 22.3393 39.6273 22.2905C39.898 22.2064 40.026 22.5432 39.9817 22.707C39.9324 22.8713 39.5042 24.6617 39.3763 24.8612C39.2434 25.0607 36.6051 27.1791 36.2262 27.6402C36.2262 27.6402 28.8972 35.99 28.3755 36.2075C27.9227 36.3977 26.2886 33.5214 24.743 31.6112C23.2024 29.701 18.7824 22.9686 20.6479 21.4573Z" fill="#EFC9C0"/>
<path d="M5.8638 82.8287C5.8638 82.8287 4.85415 83.8082 4.83528 84.1672C4.81169 84.5262 4.74563 88.378 5.1561 88.7366C5.56657 89.096 6.77437 89.3486 6.38749 89.7517C6.09025 90.0577 3.83503 89.9954 2.33941 89.9115C1.90063 89.889 1.35806 86.4144 1.18349 85.9045C0.933433 85.1645 0.320068 83.4979 0.551253 82.9796C0.659768 82.727 1.19291 82.2129 1.94308 81.7297C2.73099 81.2198 3.48589 80.0899 3.48589 80.0899L5.8638 82.8287Z" fill="#F48C7F"/>
<path d="M16.294 85.1109L15.3951 87.6506C15.3278 88.0541 15.0635 89.0468 15.0635 89.4102C15.0635 90.7839 21.2693 88.2489 19.8752 87.6373C19.7503 87.5843 19.3609 87.1455 19.3128 86.6756C19.2503 85.9575 19.8416 85.0536 19.8416 85.0536L16.294 85.1109Z" fill="#F7A491"/>
<path d="M26.0308 37.8782C26.0308 37.8782 26.4816 42.4261 26.4816 42.4925C26.4816 49.8498 27.9457 64.2185 27.6694 65.601C26.9907 68.9743 19.6848 86.1794 19.6848 86.1794L15.7386 85.7094L20.8823 65.1093L18.9916 56.8169L16.3107 40.4271L26.0308 37.8782Z" fill="#355389"/>
<path d="M12.7795 41.9024L12.0358 46.2106L10.0076 63.9478L2.29053 81.2816C2.29053 81.2816 3.37708 83.8039 4.97554 84.1584L17.261 66.3588L24.8912 43.5867L24.6255 38.5297L12.7795 41.9024Z" fill="#13375B"/>
<path d="M27.6087 27.0549L22.1376 27.6089C22.1376 27.6089 21.8856 23.1365 21.8856 21.0002C21.8856 18.4119 22.1037 15.0789 22.4235 15.1502C23.3006 15.3538 24.4879 15.8371 25.1906 16.8032C27.633 20.1492 27.6087 27.0549 27.6087 27.0549Z" fill="#EFEFEF"/>
<path d="M24.913 20.5451C25.0293 21.3384 27.1311 42.7942 27.1311 42.7942C17.1692 47.5894 11.6676 43.6495 11.6676 43.6495C11.6676 43.6495 11.9921 28.5803 11.5998 26.5281C11.3383 25.172 11.0186 16.1569 11.9049 15.9043C13.0381 15.5811 14.3312 15.2352 15.7502 15.0889C16.9512 14.9648 21.6489 14.8941 22.4867 15.1731C22.4867 15.1731 24.4336 17.2296 24.913 20.5451Z" fill="white"/>
<path d="M1.99298 81.7029C1.99298 81.7029 4.31466 88.2136 5.2254 88.5286C5.46606 88.6125 6.61742 88.8253 6.83921 89.3348C6.90527 89.4857 6.83921 89.9999 6.83921 89.9999H2.00238C2.00238 89.9999 1.38895 87.1322 1.14829 85.8737C1.14829 85.8737 -0.130501 82.7931 0.0110647 82.5096C0.15263 82.2302 1.99298 81.7029 1.99298 81.7029Z" fill="#F7CC7F"/>
<path d="M14.7026 89.8667L15.4177 87.6239C15.4177 87.6239 16.9107 88.2536 17.6596 88.1514C18.4037 88.0453 19.8628 87.6239 19.8628 87.6239C22.8439 88.6035 25.2839 89.0777 24.8442 89.8667H14.7026Z" fill="#F7CC7F"/>
<path d="M28.3739 36.2075C28.3982 36.1988 28.4758 36.1323 28.5244 36.0966C28.3496 33.9917 28.3788 31.9572 29.0438 31.2656C29.0244 31.2348 28.8836 30.9286 28.7331 30.6098C27.9661 31.2039 27.5972 32.7726 27.7428 35.3212C27.7477 35.4982 27.801 35.6312 27.8447 35.8531C28.068 36.0966 28.2671 36.2519 28.3739 36.2075Z" fill="#E9C1B8"/>
<path d="M1.79448 43.0195C1.79448 42.9752 1.79448 42.9266 1.79448 42.8823C1.94171 41.3972 3.18128 28.9165 3.39025 28.3891C3.57547 27.9102 9.12732 19.9947 9.12732 19.9947L11.8581 23.6998L6.51524 30.8002C6.39651 31.2479 4.47307 39.6729 4.47307 39.6729C4.47307 39.6729 4.0789 41.2066 3.89843 42.1284C3.98391 42.3501 4.05987 42.5586 4.13111 42.7313C4.30683 43.0993 4.51583 43.396 4.7058 43.6531C4.94326 43.9725 5.33742 44.6683 5.38966 44.8542C5.4419 45.0717 5.54638 45.5189 5.60338 45.7939C5.66037 46.0642 5.74111 46.3789 5.75536 46.5294C5.76486 46.6185 5.85508 46.7955 5.92631 46.9242C6.0308 47.1101 5.85033 47.3366 5.64136 47.2653C5.45139 47.2035 5.29945 46.9507 5.20447 46.7955C4.94326 46.3567 4.80549 45.55 4.73901 45.5944C4.67252 45.6387 4.44455 46.9993 4.40656 47.1545C4.37331 47.3097 4.09314 48.8919 3.93641 49.1802C3.78444 49.4727 3.57546 49.4236 3.52322 49.242C3.47573 49.0872 3.69417 46.8709 3.69417 46.8709C3.69417 46.8709 3.71792 46.5874 3.59919 46.6761C3.47571 46.7643 3.26678 48.7768 3.18604 49.0693C3.09581 49.3618 2.90109 49.5212 2.73487 49.2821C2.53065 48.9938 2.88207 46.862 2.88207 46.862C2.88207 46.862 2.91534 46.5917 2.8061 46.6185C2.68737 46.645 2.54488 48.3555 2.45464 48.5065C2.36916 48.6527 2.14117 48.7056 2.03194 48.4622C1.90371 48.1697 2.2362 46.268 2.2362 46.268C2.2362 46.268 2.21718 46.1175 2.14594 46.1661C2.0747 46.2152 1.84672 47.6687 1.69949 47.8017C1.57127 47.9168 1.47154 47.806 1.47154 47.806C1.20083 47.6201 1.61404 46.2416 1.60929 45.5547C1.60929 44.8674 1.92749 44.0965 1.83251 43.2766C1.82301 43.2233 1.80873 43.0993 1.79448 43.0195Z" fill="#EFC9C0"/>
<path d="M4.79419 25.0071L9.53681 28.1801C9.53681 28.1801 12.2087 24.2137 13.6448 22.8042C15.4436 21.0355 12.9912 15.6198 11.8318 15.9255C9.24098 16.6122 4.79419 25.0071 4.79419 25.0071Z" fill="white"/>
<path d="M16.0983 10.448L15.3921 15.1104C15.3921 15.1104 17.9768 20.6595 19.5285 20.1766C20.8257 19.7733 20.0282 14.8623 20.0282 14.8623C20.0282 14.8623 19.3171 12.2252 19.5333 10.909C19.7399 9.58806 16.0983 10.448 16.0983 10.448Z" fill="#EFC9C0"/>
<path d="M19.5307 10.9086C19.7418 9.58807 16.1004 10.4478 16.1004 10.4478L16.0381 10.8381C16.1436 11.0949 16.278 11.3165 16.4363 11.4852C17.2471 12.3583 18.5233 12.8811 19.6219 12.9211C19.5164 12.212 19.4444 11.4495 19.5307 10.9086Z" fill="#F1BAAE"/>
<path d="M15.5033 3.85742C15.3974 3.82205 14.6756 9.16273 16.0471 10.6345C17.4185 12.1058 20.0892 12.589 21.0468 11.4275C22.1055 10.1469 22.0526 4.40282 19.9256 2.89139C17.7891 1.37996 15.5033 3.85742 15.5033 3.85742Z" fill="#EFC9C0"/>
<path d="M19.1067 0.0330124C17.4577 0.365387 16.3904 1.37158 16.001 1.79708C15.2558 1.88591 14.2366 2.29803 13.1838 4.03106C11.8953 6.16285 12.8472 8.52482 14.352 9.68192C15.852 10.8385 15.8327 12.1771 15.8327 12.1771L16.0683 11.4856C16.2462 10.9627 16.3135 10.4045 16.2558 9.85479C16.2221 9.52671 16.15 9.16759 16.0154 8.87533C15.6548 8.10409 16.7943 7.58977 17.1116 6.94269C17.3568 6.45081 17.3712 5.31615 17.7558 4.4962L18.2173 3.87108C18.2173 3.87108 19.2846 3.04253 20.3278 3.27749C21.3711 3.51244 21.2173 -0.396783 19.1067 0.0330124Z" fill="#184655"/>
<path d="M17.0485 7.89455C17.0581 8.54614 16.7569 9.08234 16.384 9.08709C16.0063 9.09136 15.6907 8.56799 15.6811 7.91687C15.6716 7.26528 15.9632 6.73337 16.3457 6.72435C16.7234 6.72007 17.0342 7.24296 17.0485 7.89455Z" fill="#E9C1B8"/>
<path d="M19.2747 9.4013L21.3418 9.29528C21.3418 9.29528 21.3322 10.0794 20.4284 10.1505C19.3227 10.2437 19.2747 9.4013 19.2747 9.4013Z" fill="white"/>
</g>
<defs>
<clipPath id="clip0_9_1883">
<rect width="41" height="90" fill="white"/>
</clipPath>
</defs>
</svg>
