<?xml version="1.0" encoding="UTF-8" standalone="no"?>
<!-- Created with Inkscape (http://www.inkscape.org/) -->

<svg
   width="49.204731mm"
   height="25.631577mm"
   viewBox="0 0 49.204731 25.631577"
   version="1.1"
   id="svg1"
   xml:space="preserve"
   xmlns="http://www.w3.org/2000/svg"
   xmlns:svg="http://www.w3.org/2000/svg"><defs
     id="defs1" /><g
     id="layer1"
     transform="translate(-80.930719,-157.62562)"><g
       id="g181"
       transform="matrix(0.02579523,0,0,0.02579523,69.230721,142.63675)"
       style="display:inline">
	
	
	
	
	
	
	
	<g
   id="g3"
   style="display:inline"><g
     id="g34">
		<polygon
   style="fill:#ffb27d"
   points="2144.207,1481.015 2134.074,1523.607 2102.416,1523.607 2100.531,1482.806 2099.072,1451.334 2151.841,1448.897 "
   id="polygon3" />
		<path
   style="fill:#bc3f3f"
   d="m 2252.161,749.819 c 0,0 25.048,-26.804 41.336,-5.785 16.288,21.018 34.34,35.206 59.333,51.37 24.992,16.164 -22.086,142.869 -53.394,140.265 -31.307,-2.604 -159.05,-102.496 -47.275,-185.85 z"
   id="path4-1" />
		<path
   style="fill:#4a75cb"
   d="m 2127.43,737.074 c 6.252,-4.674 63.826,-24.439 119.959,-5 56.132,19.44 -43.479,73.592 -43.479,73.592 l -32.283,1.39 z"
   id="path5-2" />
		<path
   style="fill:#233862"
   d="m 2089.897,1570.397 c 0,0 0,-15.5 2.209,-20.653 2.209,-5.153 10.308,-26.137 10.308,-26.137 h 31.659 c 0,0 5.89,19.143 6.259,25.401 0.367,6.258 0,21.389 0,21.389 z"
   id="path6-7" />
		<path
   style="fill:#233862"
   d="m 2290.911,1570.397 c 0,0 0,-15.5 -2.208,-20.653 -2.21,-5.153 -10.309,-26.137 -10.309,-26.137 h -31.659 c 0,0 -5.89,19.143 -6.258,25.401 -0.368,6.258 0,21.389 0,21.389 z"
   id="path7-0" />
		<path
   style="fill:#ffb27d"
   d="m 2164.076,700.466 c 0,0 -1.115,34.513 -5.533,49.974 l -34.961,75.36 131.606,-31.276 -31.387,-43.366 c 0,0 -9.477,-46.273 -4.507,-63.393 4.971,-17.117 -55.218,12.701 -55.218,12.701 z"
   id="path8-9" />
		<path
   style="fill:#ed985f"
   d="m 2163.885,705.231 c 10e-4,-0.011 10.406,25.053 30.01,24.501 19.604,-0.553 24.064,-22.72 24.064,-22.72 z"
   id="path9-3" />
		<path
   style="fill:#2c3a64"
   d="m 2152.185,684.947 c 0,0 -6.331,-31.603 -10.749,-41.174 -4.417,-9.572 -8.099,-52.274 40.862,-54.484 0,0 18.774,2.21 29.083,-4.048 0,0 0,6.258 -2.577,8.466 0,0 16.935,-4.049 30.187,10.676 13.253,14.726 -8.833,66.266 -7.729,78.412 z"
   id="path10" />
		<path
   style="fill:#ffb27d"
   d="m 2191.648,720.052 c -14.204,-0.251 -40.348,-19.165 -40.348,-42.586 v -36.55 c 0,-8.552 5.964,-15.55 13.252,-15.55 h 54.19 c 7.289,0 13.253,6.998 13.253,15.55 v 34.48 c 0,24.561 -24.057,44.943 -40.347,44.656 z"
   id="path11" />
		<path
   style="fill:#2c3a64"
   d="m 2151.301,660.432 c 0,0 0.074,-21.961 17.469,-25.338 17.394,-3.376 56.324,10.704 61.846,-5.31 5.521,-16.014 -75.247,-15.737 -79.314,-5.522 -4.069,10.215 0,36.17 0,36.17 z"
   id="path12" />
		<path
   style="fill:#2b478b"
   d="m 2211.949,1041.015 c 8.713,-27.12 8.539,112.259 -26.438,269.034 -5.338,23.927 -17.29,81.624 -25.871,137.464 h -71.659 c -0.989,-45.093 -5.822,-108.037 -8.866,-155.185 -9.545,-147.784 14.75,-258.687 14.75,-258.687 z"
   id="path13" />
		<path
   style="fill:#2b478b"
   d="m 2303.904,1292.324 c -0.791,45.186 -9.966,105.212 -10.799,149.211 h -72.699 c -4.885,-31.939 -12.643,-64.827 -18.215,-91.361 -3.967,-18.839 -6.831,-34.471 -6.789,-44.291 0.083,-19.192 -12.061,-74.532 -19.287,-123.332 -0.011,-0.072 -0.021,-0.136 -0.031,-0.198 -0.281,-1.874 -0.552,-3.748 -0.813,-5.603 -9.685,-68.597 -6.269,-135.735 -6.269,-135.735 l 122.665,-7.665 c 0,0 14.341,138.463 12.237,258.974 z"
   id="path14" />
		<path
   style="fill:#233862"
   d="m 2084.149,1090.481 c 0,0 27.597,33.438 102.578,28.612 74.979,-4.828 110.752,-17.876 110.752,-17.876 z"
   id="path15" />
		<path
   style="fill:#739af0"
   d="m 2297.479,1101.218 c -24.493,3.332 -191.116,11.986 -213.33,-10.736 -22.212,-22.734 36.262,-332.778 36.262,-332.778 0,0 6.623,-1.916 17.798,-4.02 5.695,-1.072 12.569,-2.188 20.349,-3.124 0.094,2.416 2.021,38.969 32.366,54.069 0,0 36.449,-14.601 32.877,-53.476 -0.042,-0.458 -0.094,-0.896 -0.156,-1.334 4.863,0.522 9.789,1.198 14.736,2.052 9.997,1.719 20.119,4.146 30.158,7.468 0,0 53.435,338.557 28.94,341.879 z"
   id="path16" />
		<path
   style="fill:#739af0"
   d="m 2085.555,941.148 c -0.986,1.289 5.655,10.829 15.027,23.099 19.279,25.198 50.119,61.872 50.119,61.872 -0.413,12.431 -2.15,20.451 -2.15,20.451 -42.362,-20.018 -71.004,-38.739 -89.991,-53.775 -26.692,-21.148 -34.347,-35.022 -34.347,-35.022 42.802,-181.057 97.715,-199.909 97.715,-199.909 l 17.919,109.103 c 0,-10e-4 -51.292,70.256 -54.292,74.181 z"
   id="path17" />
		<path
   style="fill:#ee9849"
   d="m 2238.381,751.871 -11.039,33.575 -14.715,21.609 -21.12,11.455 -19.88,-11.455 -33.418,-53.372 c 5.695,-1.072 12.569,-2.188 20.349,-3.124 0.094,2.416 2.021,38.969 32.366,54.069 0,0 36.449,-14.601 32.877,-53.476 -0.042,-0.458 -0.094,-0.896 -0.156,-1.334 4.863,0.523 9.789,1.2 14.736,2.053 z"
   id="path18" />
		<path
   style="fill:#ffb27d"
   d="m 2150.705,1026.123 c -0.01,0.354 -0.02,0.698 -0.041,1.041 -0.094,2.291 -0.229,4.437 -0.396,6.384 -1.063,1.468 -2.238,2.854 -3.52,4.146 -1.947,1.968 -4.051,3.623 -6.196,5.019 -1.072,-0.51 -2.146,-1.041 -3.196,-1.562 -36.283,-17.964 -61.526,-34.679 -78.793,-48.352 10.955,-3.374 26.306,-11.081 42.02,-28.556 19.276,25.202 50.122,61.88 50.122,61.88 z"
   id="path19" />
		<path
   style="fill:#739af0"
   d="m 2361.085,951.116 c 0,0 -7.388,14.018 -33.671,35.673 -18.695,15.396 -46.975,34.663 -88.945,55.488 0,0 -1.891,-7.986 -2.541,-20.407 0,0 30.131,-37.257 48.926,-62.818 9.135,-12.447 15.593,-22.112 14.583,-23.383 -2.387,-3.002 -34.538,-45.291 -48.886,-64.152 -4.16,-5.479 -6.815,-8.977 -6.815,-8.977 l 18.159,-107.268 c 0,-0.001 52.931,15.64 99.19,195.844 z"
   id="path20" />
		<path
   style="fill:#ffb27d"
   d="m 2327.409,986.789 c -17.058,14.039 -42.094,31.305 -78.22,50.05 -0.895,0.458 -1.801,0.927 -2.717,1.396 -4.614,-5.572 -7.415,-12.205 -9.124,-18.121 0.604,-0.749 1.386,-1.738 2.343,-2.916 8.655,-10.799 30.399,-38.082 45.156,-58.151 16.038,17.172 31.544,24.577 42.562,27.742 z"
   id="path21" />
		<path
   style="fill:#ffb27d"
   d="m 2223.645,749.819 c -24.306,-2.602 -47.113,-1.416 -65.087,0.74 -0.011,-0.084 -0.011,-0.125 -0.011,-0.125 0,0 60.245,-37.26 65.098,-0.615 z"
   id="path22" />
		<g
   id="g23">
			<g
   id="g22">
				<polygon
   style="fill:#bbd4ff"
   points="2164.2,797.127 2163.225,855.198 2161.987,855.198 2161.076,797.127 "
   id="polygon22" />
			</g>
			<path
   style="fill:#ee9849"
   d="m 2161.862,853.69 c -1.126,1.698 -3.657,7.313 -1.977,7.905 1.68,0.594 4.629,0.628 5.42,-0.162 0.791,-0.79 -1.316,-10.951 -3.443,-7.743 z"
   id="path23" />
		</g>
		<g
   id="g25">
			<g
   id="g24">
				<polygon
   style="fill:#bbd4ff"
   points="2221.229,797.127 2220.253,855.198 2219.017,855.198 2218.105,797.127 "
   id="polygon23" />
			</g>
			<path
   style="fill:#ee9849"
   d="m 2218.892,853.69 c -1.126,1.698 -3.657,7.313 -1.977,7.905 1.68,0.594 4.628,0.628 5.419,-0.162 0.79,-0.79 -1.316,-10.951 -3.442,-7.743 z"
   id="path24" />
		</g>
		<path
   style="fill:#4a75cb"
   d="m 2171.627,807.056 -51.213,-49.353 c 0,0 -11.531,-8.185 6.693,-20.422 18.225,-12.235 44.52,69.775 44.52,69.775 z"
   id="path25" />
		<path
   style="fill:#4a75cb"
   d="m 2212.624,807.056 51.214,-49.353 c 0,0 11.53,-8.185 -6.693,-20.422 -18.226,-12.235 -44.521,69.775 -44.521,69.775 z"
   id="path26" />
		<g
   id="g27">
			<path
   style="fill:#678fe5"
   d="m 2276.901,1047.315 c -9.977,0.844 -18.297,-1.656 -24.723,-7.394 -1.083,-0.97 -2.073,-2 -2.989,-3.083 -5.061,-5.915 -7.903,-13.361 -9.498,-19.642 -1.832,-7.174 -2.029,-12.818 -2.029,-12.934 l -0.042,-1.447 h -82.718 l 0.052,1.542 c 0.322,8.893 -1.114,16.526 -4.29,22.806 -1.573,3.145 -3.582,5.947 -6.02,8.404 -2.25,2.27 -4.738,4.103 -7.289,5.582 -11.07,6.414 -23.391,6.165 -23.547,6.165 l -1.531,-0.052 v 34.948 h 166.238 v -35.032 z"
   id="path27" />
		</g>
		<path
   style="fill:#678fe5"
   d="m 2299.437,935.669 c 0,0 -46.111,-60.504 -9.61,-78.119 14.489,-6.993 34.886,76.035 23.951,83.845 -10.935,7.812 -28.93,17.651 -28.93,17.651 z"
   id="path28" />
		<path
   style="fill:#678fe5"
   d="m 2090.862,925.693 c 0,0 16.021,-75.968 1.962,-68.144 -14.059,7.823 -34.887,76.035 -23.951,83.845 10.935,7.812 28.93,17.651 28.93,17.651 z"
   id="path29" />
		<g
   id="g30">
			<path
   style="fill:#bc3f3f"
   d="m 2292.971,935.492 c -21.057,-26.139 -28.922,-68.584 -27.848,-112.384 0.807,-32.89 5.315,-62.57 5.609,-63.61 l 17.27,13.451 c -0.068,0.247 -9.911,18.242 -10.674,50.247 -0.696,29.268 -2.082,51.55 14.46,102.497 z"
   id="path30" />
		</g>
		<path
   style="fill:#233862"
   d="m 2133.096,1463.675 -37.101,-0.021 c -3.283,0.369 -8.423,-4.439 -8.423,-11.313 0,0 -0.077,-16.479 -1.166,-19.409 -4.772,-12.843 2.325,-13.537 9.199,-13.537 h 67.69 c 6.874,0 -3.655,21.244 -3.655,28.117 l 2.438,9.01 c 0,6.874 -22.109,7.153 -28.982,7.153 z"
   id="path31" />
		<path
   style="fill:#233862"
   d="m 2144.207,1481.015 -10.133,42.593 h -31.658 l -1.885,-40.802 c 4.717,1.729 20.599,6.155 43.676,-1.791 z"
   id="path32" />
		<polygon
   style="fill:#ffb27d"
   points="2236.663,1480.531 2246.795,1522.483 2278.454,1522.483 2280.338,1482.296 2281.797,1451.298 2229.029,1448.897 "
   id="polygon32" />
		<path
   style="fill:#233862"
   d="m 2247.774,1463.675 37.1,-0.021 c 3.284,0.369 8.423,-4.439 8.423,-11.313 0,0 0.078,-16.479 1.166,-19.409 4.773,-12.843 -2.325,-13.537 -9.198,-13.537 h -67.69 c -6.873,0 3.655,21.244 3.655,28.117 l -2.438,9.01 c 0,6.874 22.108,7.153 28.982,7.153 z"
   id="path33" />
		<path
   style="fill:#233862"
   d="m 2236.663,1481.015 10.132,42.593 h 31.659 l 1.884,-40.802 c -4.717,1.729 -20.599,6.155 -43.675,-1.791 z"
   id="path34" />
	</g><g
     id="g59">
		<path
   style="fill:#2c3a64"
   d="m 662.452,619.866 c -2.494,-2.711 -8.064,-5.783 -15.399,-8.288 12.884,-5.796 23.847,-12.627 16.266,-16.802 -3.277,-1.806 -7.192,-1.552 -11.316,-0.052 6.346,-6.418 9.399,-11.943 3.214,-13.392 -9.4,-2.199 -19.186,9.914 -26.017,21.082 4.431,-9.578 6.715,-19.07 -1.546,-19.212 -9.521,-0.163 -11.381,12.474 -11.216,23.397 -0.789,0.004 -1.578,0.018 -2.369,0.046 -2.684,-12.083 -7.887,-27.112 -16.76,-23.099 -4.466,2.021 -4.307,6.355 -1.967,11.367 -4.195,-3.219 -8.347,-4.332 -11.645,-0.924 -5.024,5.198 1.154,11.363 9.319,16.519 -5.783,2.1 -11.25,5.14 -16.077,9.356 -27.724,24.209 2.504,79.033 2.504,79.033 l 79.149,-2.028 c 24.801,-39.478 12.84,-67.241 3.86,-77.003 z"
   id="path35" />
		<path
   style="fill:#2b478b"
   d="m 581.725,997.227 -47.27,5.958 c -31.082,3.918 -59.176,-14 -62.431,-39.817 L 454.043,820.71 c -3.256,-25.817 10.35,-46.167 41.601,-47.449 18.519,-0.76 49.423,-4.84 82.666,-15.902 29.476,-9.809 32.775,17.328 36.029,43.146 l 17.982,142.657 c 3.255,25.817 -19.513,50.147 -50.596,54.065 z"
   id="path36" />
		<path
   style="fill:#233862"
   d="m 519.216,1574.727 c 0,0 0,-15.202 2.167,-20.258 2.167,-5.056 10.11,-25.637 10.11,-25.637 h 31.053 c 0,0 5.776,18.776 6.138,24.915 0.362,6.138 0,20.979 0,20.979 h -49.468 z"
   id="path37" />
		<path
   style="fill:#233862"
   d="m 716.38,1574.727 c 0,0 0,-15.202 -2.167,-20.258 -2.166,-5.056 -10.11,-25.637 -10.11,-25.637 h -31.052 c 0,0 -5.778,18.776 -6.14,24.915 -0.36,6.138 0,20.979 0,20.979 h 49.469 z"
   id="path38" />
		<path
   style="fill:#b56f40"
   d="m 591.974,721.458 c 0,0 -1.094,33.852 -5.427,49.017 l -34.291,23.922 129.084,19.317 -30.784,-42.535 c 0,0 -9.295,-45.388 -4.42,-62.177 4.875,-16.791 -54.162,12.456 -54.162,12.456 z"
   id="path39" />
		<path
   style="fill:#99592e"
   d="m 591.785,726.133 c 10e-4,-0.01 10.209,24.573 29.436,24.031 19.228,-0.541 23.603,-22.284 23.603,-22.284 z"
   id="path40" />
		<path
   style="fill:#b56f40"
   d="m 619.018,740.67 c -13.933,-0.247 -39.574,-18.797 -39.574,-41.771 v -35.85 c 0,-8.388 5.85,-15.251 12.998,-15.251 h 53.152 c 7.15,0 12.999,6.863 12.999,15.251 v 33.821 c 0,24.09 -23.597,44.081 -39.575,43.8 z"
   id="path41" />
		<path
   style="fill:#a05410;fill-opacity:1"
   d="m 523.107,1048.25 c 0,0 5.435,165.904 -2.69,260.565 -8.123,94.66 0.06,226.398 0.06,226.398 0,0 25.981,14.325 54.146,0 0,0 30.888,-182.876 30.691,-226.398 -0.207,-46.351 33.62,-253.333 33.62,-253.333 z"
   id="path42" />
		<path
   style="fill:#a05410;fill-opacity:1"
   d="m 715.258,1535.209 c 0,0 -25.977,14.331 -54.141,0 0,0 -30.884,-182.872 -30.689,-226.397 0.087,-19.573 -5.893,-67.81 -12.837,-116.989 -9.499,-67.279 -20.787,-136.336 -20.787,-136.336 l 120.315,-7.519 c 0,0 -9.923,166.19 -1.798,260.844 8.125,94.665 -0.063,226.397 -0.063,226.397 z"
   id="path43" />
		<path
   style="fill:#74acbe"
   d="m 694.438,779.205 0.002,0.073 c -15.618,-3.932 -30.306,-6.52 -43.884,-8.1 -11.98,15.913 -20.582,19.607 -31.534,23.94 -17.624,-2.437 -32.475,-24.146 -32.475,-24.644 -25.586,2.622 -40.069,8.006 -40.069,8.006 -9.738,4.083 -22.521,80.159 -24.514,122.417 -0.249,5.308 -0.335,10.074 -0.217,14.103 1.04,36.245 2.503,71.472 -2.166,110.49 -6.143,51.27 4.257,50.359 4.257,50.359 0,0 13.995,2.741 33.516,5.33 17.656,2.361 39.83,4.604 60.238,4.604 46.797,0 98.088,-9.934 98.088,-9.934 14.765,0.185 -4.139,-91.87 -6.9,-147.256 -0.64,-12.862 -1.236,-24.605 -1.793,-35.335 17.732,15.277 69.914,43.117 71.101,46.672 0,0 -11.387,20.784 -14.846,31.863 -13.284,42.539 -36.13,70.663 -36.13,70.663 3.108,11.797 2.238,17.025 2.238,17.025 36.138,-28.393 59.438,-52.548 74.31,-71.071 20.907,-26.052 25.196,-40.99 25.196,-40.99 C 748.393,783.637 694.438,779.205 694.438,779.205 Z"
   id="path44" />
		<path
   style="fill:#578e9b"
   d="m 557.353,1081.181 c -19.52,-2.589 -33.516,-5.33 -33.516,-5.33 0,0 -10.399,0.91 -4.257,-50.359 4.669,-39.018 3.206,-74.245 2.166,-110.49 -0.118,-4.029 -0.032,-8.796 0.217,-14.103 2.99,4.787 36.31,58.602 45.279,98.596 6.533,29.17 -3.314,63.53 -9.889,81.686 z"
   id="path45" />
		<path
   style="fill:#763d11;fill-opacity:1"
   d="m 630.429,1308.812 c 0.087,-19.573 -5.893,-67.81 -12.837,-116.989 7.204,-29.377 24.753,-57.649 24.753,-57.649 22.205,62.285 -11.916,174.638 -11.916,174.638 z"
   id="path46" />
		<path
   style="fill:#b56f40"
   d="m 727.111,1042.458 c 0,0 -19.499,-18.054 -27.442,-7.943 -7.944,10.109 -9.389,25.998 -3.249,24.914 6.138,-1.083 18.775,-6.86 20.581,-3.972 1.806,2.889 9.894,8.41 12.349,4.024 2.455,-4.385 -2.239,-17.023 -2.239,-17.023 z"
   id="path47" />
		<path
   style="fill:#b56f40"
   d="m 727.111,1042.458 c 3.108,11.797 2.235,17.025 2.235,17.025 36.137,-28.393 59.437,-52.548 74.31,-71.071 -11.212,-0.835 -21.578,-3.337 -40.415,-16.617 -15.553,47.444 -36.13,70.663 -36.13,70.663 z"
   id="path48" />
		<path
   style="fill:#578e9b"
   d="m 773.582,936.264 c -2.893,-2.405 -49.236,-27.925 -66.785,-43.166 0,0 17.516,-13.129 28.349,6.012 10.831,19.14 38.436,37.154 38.436,37.154 z"
   id="path49" />
		<path
   style="fill:#578e9b"
   d="m 828.856,947.422 c 0,0 -4.289,14.939 -25.196,40.99 -24.199,-0.337 25.196,-40.99 25.196,-40.99 z"
   id="path50" />
		<path
   style="fill:#2c3a64"
   d="m 579.443,677.587 c 0,0 9.669,-29.518 41.354,-24.914 31.685,4.604 34.427,11.374 37.795,19.227 3.367,7.854 9.867,-28.706 9.867,-28.706 l -37.372,-11.103 c 0,0 -45.225,5.146 -48.475,12.728 -3.249,7.583 -3.249,7.583 -3.249,7.583 z"
   id="path51" />
		<g
   id="g52">
			<path
   style="fill:#2b478b"
   d="m 522.269,992.07 0.543,-25.16 c 35.856,-27.226 50.442,-59.494 51.824,-115.304 1.047,-42.32 -13.17,-76.831 -13.27,-77.176 0,0 6.344,-1.52 8.503,-1.894 2.331,-0.403 9.463,-1.218 9.463,-1.218 0.434,1.479 9.881,35.882 8.847,80.242 -1.386,59.465 -27.079,111.026 -65.91,140.51 z"
   id="path52" />
		</g>
		<path
   style="fill:#74acbe"
   d="m 621.679,984.79 c -12.11,1.822 -74.167,16.225 -118.395,21.807 -24.931,3.145 -44.197,3.499 -45.685,-2.781 -4.114,-17.422 9.882,-128.403 32.127,-173.068 22.243,-44.677 63.471,-54.324 63.471,-54.324 l 11.728,70.725 -59.619,118.74 14.518,0.26 99.629,1.771 z"
   id="path53" />
		<g
   id="g55">
			<path
   style="fill:#233862"
   d="m 652.923,991.109 h -22.428 c -2.717,0 -4.938,-2.222 -4.938,-4.938 v -40.57 c 0,-2.716 2.222,-4.938 4.938,-4.938 h 22.428 c 2.715,0 4.938,2.223 4.938,4.938 v 40.57 c -10e-4,2.717 -2.223,4.938 -4.938,4.938 z"
   id="path54" />
			<path
   style="fill:#2b478b"
   d="m 652.923,995.171 h -22.428 c -2.717,0 -4.938,-2.222 -4.938,-4.938 v -40.57 c 0,-2.716 2.222,-4.938 4.938,-4.938 h 22.428 c 2.715,0 4.938,2.223 4.938,4.938 v 40.57 c -10e-4,2.716 -2.223,4.938 -4.938,4.938 z"
   id="path55" />
		</g>
		<path
   style="fill:#b56f40"
   d="m 607.801,971.818 c 0,0 32.776,-22.586 43.524,-14.743 10.749,7.841 11.604,26.536 -32.96,28.083 z"
   id="path56" />
		<path
   style="fill:#b56f40"
   d="m 621.679,984.79 c -12.11,1.822 -74.167,16.225 -118.395,21.807 3.874,-18.87 9.966,-31.71 16.538,-40.448 l 99.629,1.771 z"
   id="path57" />
		<path
   style="fill:#2c3a64"
   d="m 653.748,680.813 c -1.679,-2.05 -4.446,-3.227 -7.594,-3.227 h -15.955 c -3.034,0 -5.154,0.873 -6.299,2.593 -0.533,0.8 -0.799,1.712 -0.898,2.646 -2.677,-0.667 -5.283,-0.328 -7.094,0.125 -0.088,-0.979 -0.356,-1.936 -0.91,-2.771 -1.145,-1.72 -3.266,-2.593 -6.299,-2.593 h -15.956 c -3.146,0 -5.915,1.177 -7.595,3.227 -1.523,1.861 -2.038,4.288 -1.486,7.02 1.816,9.017 12.2,10.17 17.388,10.17 1.601,0 2.707,-0.11 2.914,-0.133 4.855,-0.011 8.274,-2.781 10.757,-8.715 0.424,-1.013 1.1,-2.916 1.209,-4.9 1.724,-0.46 4.374,-0.875 7.032,-0.144 0.083,2.036 0.781,4.008 1.215,5.045 2.484,5.934 5.903,8.704 10.758,8.715 0.206,0.022 1.312,0.133 2.914,0.133 5.187,0 15.571,-1.153 17.388,-10.17 0.55,-2.732 0.035,-5.159 -1.489,-7.021 z m -39.995,7.937 c -2.304,5.507 -5.424,8.071 -9.818,8.071 l -0.063,0.004 c -0.044,0.005 -4.342,0.505 -8.852,-0.414 -5.923,-1.205 -9.398,-4.161 -10.331,-8.786 -0.486,-2.412 -0.047,-4.536 1.271,-6.148 1.479,-1.806 3.951,-2.841 6.782,-2.841 h 15.956 c 2.661,0 4.486,0.715 5.424,2.125 0.484,0.727 0.698,1.592 0.752,2.483 -0.813,0.258 -1.331,0.487 -1.401,0.519 -0.315,0.144 -0.454,0.517 -0.31,0.832 0.106,0.23 0.334,0.366 0.572,0.366 0.087,0 0.175,-0.018 0.261,-0.057 0.013,-0.006 0.33,-0.146 0.854,-0.325 -0.172,1.787 -0.802,3.468 -1.097,4.171 z m 40.455,-1.124 c -0.933,4.624 -4.407,7.58 -10.331,8.785 -4.511,0.918 -8.808,0.419 -8.852,0.414 l -0.063,-0.004 c -4.394,0 -7.513,-2.565 -9.818,-8.071 -0.3,-0.719 -0.948,-2.453 -1.103,-4.278 0.305,0.122 0.607,0.26 0.907,0.418 0.308,0.163 0.688,0.047 0.849,-0.261 0.163,-0.306 0.046,-0.685 -0.259,-0.849 -0.499,-0.264 -1.003,-0.467 -1.508,-0.645 0.064,-0.852 0.279,-1.678 0.744,-2.374 0.939,-1.41 2.763,-2.125 5.425,-2.125 h 15.955 c 2.832,0 5.304,1.035 6.782,2.841 1.318,1.612 1.758,3.736 1.272,6.149 z"
   id="path58" />
		<path
   style="fill:#fff0e6"
   d="m 606.271,717.495 c 0,0 17.53,-1.909 25.688,0 0,0 -4.34,7.116 -11.456,7.116 -7.116,0 -12.497,-2.604 -14.232,-7.116 z"
   id="path59" />
	</g><g
     id="g83">
		<g
   id="g82">
			<path
   style="fill:#163560"
   d="m 1411.233,662.376 c -8.547,-2.813 -17.832,-1.438 -24.185,0.238 1.313,-2.041 4.441,-3.32 4.441,-3.32 -4.105,0.211 -12.205,5.958 -12.205,5.958 -59.752,-10.19 -52.01,73.206 -47.021,91.938 4.979,18.731 -23.881,73.032 -43.795,99.523 -55.877,74.332 33.468,151.737 33.468,151.737 72.433,60.832 39.518,-57.128 39.518,-57.128 -4.489,-15.045 49.926,-110.183 81.938,-141.843 6.316,-15.034 4.801,-39.036 4.67,-40.922 2.182,18.832 1.107,29.86 -0.545,36.281 25.447,-35.051 -13.628,-135.011 -36.284,-142.462 z"
   id="path60" />
			<path
   style="fill:#bc3f3f"
   d="m 1559.93,936.432 c 0,8.059 -4.049,18.379 -9.843,29.008 -14.407,26.493 -39.597,54.896 -39.597,54.896 l -14.6,-20.787 c 0,0 8.873,-22.023 14.764,-40.181 3.539,-10.917 5.994,-20.433 4.796,-22.937 -3.194,-6.676 -66.407,-81.456 -66.407,-81.456 l -17.18,-57.86 c 0,0 42.053,2.225 59.961,28.441 17.908,26.224 68.106,89.16 68.106,110.876 z"
   id="path61" />
			<path
   style="fill:#ffb27d"
   d="m 1550.087,965.44 c -14.407,26.493 -39.597,54.896 -39.597,54.896 l -14.6,-20.787 c 0,0 8.873,-22.023 14.764,-40.181 7.079,4.191 19.338,8.182 39.433,6.072 z"
   id="path62" />
			<polygon
   style="fill:#ffb27d"
   points="1413.973,1457.918 1375.354,1457.918 1390.481,1521.635 1413.142,1521.506 "
   id="polygon62" />
			<polygon
   style="fill:#ffb27d"
   points="1599.879,1452.247 1565.964,1460.635 1609.009,1521.635 1625.786,1500.094 "
   id="polygon63" />
			<path
   style="fill:#ffb27d"
   d="m 1434.875,815.798 c 0.189,0.085 -18.172,9.618 -31.983,5.841 -12.99,-3.543 -21.479,-20.387 -21.3,-20.425 5.502,-1.092 7.088,-8.652 6.972,-41.14 l 2.487,0.49 41.818,8.28 c 0,0 -0.951,13.161 -0.98,25.559 -0.028,10.41 0.603,20.284 2.986,21.395 z"
   id="path63" />
			<path
   style="fill:#5fabb7"
   d="m 1367.795,685.043 c 0,0 15.884,-25.607 45.391,-10.296 0,0 -15.291,0.422 -45.391,10.296 z"
   id="path64" />
			<path
   style="fill:#ef9e67"
   d="m 1432.869,768.845 c 0,0 -0.951,13.161 -0.98,25.559 -23.4,-0.66 -35.77,-22.007 -40.838,-33.839 z"
   id="path65" />
			<path
   style="fill:#163560"
   d="m 1382.443,762.031 c 0,0 -15.85,-16.573 -22.01,-32.233 -4.396,-11.181 -7.154,-55.353 37.285,-57.869 0,0 12.795,-1.292 26.192,4.296 10.654,4.443 26.944,15.389 19.372,55.946 l -1.377,13.463 z"
   id="path66" />
			<path
   style="fill:#a53d38"
   d="m 1621.753,1486.158 c 0,0 -11.115,1.918 -20.24,2.613 -2.026,0.154 -3.952,0.244 -5.635,0.244 -4.395,0 -12.309,-1.654 -17.626,-2.894 l -0.398,-0.091 c -2.333,-0.552 -4.114,-1.004 -4.775,-1.176 l -0.279,-0.072 c 0,0 -55.431,-61.706 -86.515,-160.619 -0.723,-2.306 -1.491,-4.63 -2.296,-6.981 -17.021,-49.614 -52.292,-111.881 -70.877,-168.252 -2.958,-8.971 -5.616,-17.427 -7.995,-25.422 -0.77,-2.56 -1.511,-5.073 -2.216,-7.552 -13.701,-47.598 -17.662,-78.845 -21.316,-112.234 l 111.755,28.434 c -10e-4,0 46.919,203.407 128.413,454.002 z"
   id="path67" />
			<path
   style="fill:#ffb27d"
   d="m 1440.188,775.459 c 0,0 -54.094,11.835 -60.946,-21.966 -6.852,-33.802 -18.448,-55.038 15.8,-64.023 34.248,-8.985 43.595,2.548 48.626,13.274 5.03,10.725 10.415,68.764 -3.48,72.715 z"
   id="path68" />
			<path
   style="fill:#163560"
   d="m 1419.594,683.659 c 0,0 -6.865,42.659 -28.489,53.12 -21.624,10.462 -32.748,6.346 -32.748,6.346 0,0 14.692,-17.423 13.433,-42.412 -10e-4,0 32.789,-33.673 47.804,-17.054 z"
   id="path69" />
			<path
   style="fill:#163560"
   d="m 1416.561,687.621 c 0,0 12.882,6.619 17.323,14.683 4.441,8.065 9.23,25.541 14.274,23.898 0,0 5.762,-29.218 -9.895,-41.932 -16.601,-13.481 -21.702,3.351 -21.702,3.351 z"
   id="path70" />
			<path
   style="fill:#ffb27d"
   d="m 1389.721,1518.074 c 0,0 1.824,12.62 -2.885,26.123 0,0 -3.71,16.897 12.934,17.212 16.643,0.313 20.726,-1.257 18.841,-11.619 -1.884,-10.363 -5.469,-28.284 -5.469,-28.284 z"
   id="path71" />
			<path
   style="fill:#c45446"
   d="m 1386.836,1544.197 c 0,0 -3.692,17.751 -1.809,26.23 0,0 5.634,1.972 17.725,1.972 11.463,0 18.202,-1.972 18.202,-1.972 0,0 -0.42,-19.283 -3.481,-26.663 0,0 -11.796,17.705 -30.637,0.433 z"
   id="path72" />
			<path
   style="fill:#ffb27d"
   d="m 1665.891,1551.482 c 0,0 -30.685,-34.058 -40.104,-51.389 l -22.817,11.689 51.004,47.898 11.933,-1.57 z"
   id="path73" />
			<path
   style="fill:#c45446"
   d="m 1685.382,1571.444 c 0,0 -32.973,0 -38.625,-0.631 -5.652,-0.621 -10.202,-8.79 -16.326,-21.037 -2.506,-5.011 -8.13,-7.771 -13.896,-9.288 l 0.109,29.939 h -9.071 l -7.995,-31.721 c -5.436,-9.985 -0.435,-19.039 3.391,-26.924 4.447,-0.01 16.411,3.033 39.078,28.573 7.451,8.384 15.676,11.38 23.844,11.126 0.113,0.075 0.226,0.132 0.339,0.179 18.841,8.48 19.152,19.784 19.152,19.784 z"
   id="path74" />
			<path
   style="fill:#912f2f"
   d="m 1601.513,1488.771 c -2.026,0.154 -3.952,0.244 -5.635,0.244 -4.395,0 -12.309,-1.654 -17.626,-2.894 l -0.398,-0.091 -4.775,-1.176 -0.279,-0.072 c 0,0 -55.431,-61.706 -86.515,-160.619 -0.723,-2.306 -1.491,-4.63 -2.296,-6.981 -17.021,-49.614 -52.292,-111.881 -70.877,-168.252 -2.958,-8.971 -5.616,-17.427 -7.995,-25.422 -0.77,-2.56 -1.511,-5.073 -2.216,-7.552 l 19.761,-15.004 c 0,0 59.347,96.092 77.714,186.521 15.228,74.957 80.788,172.132 101.137,201.298 z"
   id="path75" />
			<path
   style="fill:#a53d38"
   d="m 1424.731,1295.902 c 0.336,43.972 -1.89,145.073 -7.614,186.937 0,0 -5.432,4.805 -18.901,4.861 -13.792,0.058 -19.96,-5.033 -19.96,-5.033 -14.371,-72.775 -24.59,-132.99 -32.033,-184.884 -6.105,-42.578 -11.531,-79.088 -15.7,-110.516 -3.699,-27.846 -6.412,-51.713 -7.715,-72.287 -0.171,-2.794 -0.325,-5.526 -0.452,-8.194 -0.162,-3.526 -0.289,-6.954 -0.353,-10.273 -0.063,-3.346 -0.081,-6.602 -0.054,-9.759 l 0.479,-0.045 27.764,-2.704 87.726,-8.556 c -1.465,77.054 -13.376,194.896 -13.187,220.453 z"
   id="path76" />
			<path
   style="fill:#912f2f"
   d="m 1398.216,1487.7 c -11.733,0.679 -19.96,-5.033 -19.96,-5.033 -14.371,-72.775 -24.59,-132.99 -32.033,-184.884 -6.105,-42.578 -11.531,-79.088 -15.7,-110.516 -3.699,-27.846 -6.412,-51.713 -7.715,-72.287 -0.153,-10.139 -0.262,-19.852 -0.379,-28.271 -0.127,-8.537 -0.263,-15.764 -0.498,-20.791 l 28.262,18.087 29.737,19.02 c 0,0 -42.182,38.373 -31.817,110.914 10.356,72.54 35.678,263.487 50.103,273.761 z"
   id="path77" />
			<path
   style="fill:#bc3f3f"
   d="m 1508.769,1095.138 c -33.652,8.745 -190.69,26.011 -192.047,-13.321 -0.335,-9.596 0,-21.181 0.76,-33.725 2.343,-38.852 8.718,-86.865 11.775,-113.283 1.401,-12.109 -3.256,-66.346 0.316,-95.901 0.524,-4.377 1.229,-8.221 2.17,-11.296 6.783,-22.302 37.261,-28.352 52.907,-28.885 l 47.208,-1.61 c 0,0 48.755,54.462 55.538,71.193 6.783,16.731 8.999,74.006 14.271,101.743 5.274,27.737 23.471,120.835 7.102,125.085 z"
   id="path78" />
			<path
   style="fill:#a53d38"
   d="m 1416.023,962.212 c 0,0 -26.245,80.607 -98.542,85.88 2.343,-38.852 8.718,-86.865 11.775,-113.283 1.401,-12.109 -3.256,-66.346 0.316,-95.901 0.94,0.199 1.794,0.725 2.776,0.914 79.612,15.374 90.91,105.586 83.675,122.39 z"
   id="path79" />
			<g
   id="g79">
				
					<rect
   x="1389.201"
   y="876.039"
   transform="matrix(0.9944,0.1059,-0.1059,0.9944,107.6262,-146.3056)"
   style="fill:#2b478b"
   width="84.315002"
   height="128.33099"
   id="rect79" />
				<polygon
   style="fill:#163560"
   points="1382.643,999.545 1396.233,871.935 1390.854,871.509 1378.219,999.016 "
   id="polygon79" />
			</g>
			<g
   id="g81">
				<path
   style="fill:#ffb27d"
   d="m 1325.531,928.431 c 0,0 59.156,18.08 115.693,26.162 0,0 18.657,8.067 9.896,10.276 -2.244,0.566 -115.462,25.252 -132.25,9.235 z"
   id="path80" />
				<path
   style="fill:#bc3f3f"
   d="m 1384.65,798.727 c 0,0 -31.101,0.17 -44.384,15.322 -24.245,27.656 -29.045,145.286 -21.396,160.056 3.29,6.352 28.528,6.867 39.174,-23.894 5.522,-15.954 29.638,-122.479 26.606,-151.484 z"
   id="path81" />
			</g>
			<path
   style="fill:#ffb27d"
   d="m 1435.65,953.767 c 0,0 6.954,-0.648 8.273,-2.869 2.638,-4.441 6.807,-4.386 10.284,-4.972 3.477,-0.586 7.382,-4.393 8.073,-3.627 0.691,0.766 -2.564,4.961 -4.381,6.525 0,0 3.73,0.227 6.199,-0.949 2.469,-1.177 9.992,-10.9 11.178,-6.81 3.118,10.761 -0.12,21.103 -8.753,21.942 -9.312,0.905 -32.42,5.365 -32.42,5.365 z"
   id="path82" />
		</g>
	</g><g
     id="g128">
		<g
   id="g87">
			<path
   style="fill:#d9935c"
   d="m 1726.307,1003.723 c -44.188,-11.245 -92.762,-79.798 -92.762,-79.798 l 12.442,-10.792 c 12.882,15.186 66.441,41.343 66.441,41.343 -0.288,-13.897 0.076,-26.574 0.953,-38.112 5.944,-78.417 35.506,-104.543 43.574,-110.275 1.302,-0.931 2.05,-1.319 2.05,-1.319 0,0 0.03,0.568 0.076,1.648 0.117,2.33 0.331,7.025 0.551,13.468 1.639,47.995 3.598,193.243 -33.325,183.837 z"
   id="path83" />
			<path
   style="fill:#d9935c"
   d="m 1645.987,913.133 c -0.187,-1.853 -1.432,-28.793 -6.784,-33.922 -5.352,-5.129 -15.919,-12.114 -18.955,-11.55 -3.035,0.566 -13.35,17.72 -8.48,29.535 4.869,11.815 21.777,26.729 21.777,26.729 z"
   id="path84" />
			<g
   id="g86">
				<path
   style="fill:#f1a34f"
   d="m 1656.967,916.266 -29.102,1.217 c -0.966,0.04 -1.781,-0.71 -1.821,-1.676 l -2.321,-55.491 c -0.04,-0.967 0.71,-1.782 1.676,-1.821 l 29.102,-1.218 c 0.966,-0.041 1.781,0.71 1.821,1.675 l 2.321,55.492 c 0.041,0.965 -0.71,1.781 -1.676,1.822 z"
   id="path85" />
				<path
   style="fill:#d86713"
   d="m 1649.405,916.581 -26.397,1.104 c -1.712,0.071 -3.159,-1.259 -3.23,-2.972 l -2.208,-52.787 c -0.071,-1.712 1.259,-3.158 2.972,-3.231 l 26.396,-1.104 c 1.714,-0.072 3.16,1.258 3.231,2.971 l 2.208,52.787 c 0.071,1.714 -1.259,3.161 -2.972,3.232 z"
   id="path86" />
			</g>
			<path
   style="fill:#d9935c"
   d="m 1618.04,869.721 c 0,0 7.933,-8.857 15.867,-2.089 7.935,6.769 -0.526,21.223 -7.409,25.174 -6.882,3.951 -9.089,6.011 -9.089,6.011 z"
   id="path87" />
		</g>
		<path
   style="fill:#cb7d45"
   d="m 1822.525,1459.635 c -2.692,10.703 -5.653,20.894 -8.671,30.379 -0.647,2.033 -1.284,4.034 -1.932,5.988 -0.324,0.973 -0.648,1.934 -0.962,2.883 -0.637,1.877 -1.262,3.721 -1.888,5.52 -0.815,2.347 -1.631,4.637 -2.436,6.849 -0.592,1.643 -1.185,3.252 -1.766,4.826 -8.961,24.033 -16.469,39.262 -16.469,39.262 l -17.854,-1.229 c 0,0 6.704,-31.888 8.044,-77.562 0.045,-1.631 0.09,-3.274 0.123,-4.938 0.067,-3.542 0.111,-7.15 0.111,-10.837 0,-1.509 -0.01,-3.04 -0.021,-4.582 -0.358,-39.339 -5.229,-85.828 -20.77,-130.218 -12.638,-36.088 -21.799,-69.852 -28.424,-100.364 -21.385,-98.499 -16.357,-163.211 -16.357,-163.211 l 100.443,11.753 4.682,0.548 c 0.425,46.132 1.608,108.766 2.647,157.736 0.179,8.502 0.347,16.592 0.514,24.11 0.693,31.44 1.218,52.937 1.218,52.937 19.32,41.584 12.304,100.286 -0.232,150.15 z"
   id="path88" />
		<path
   style="fill:#233862"
   d="m 1793.77,717.534 c 0,0 23.762,20.232 1.975,43.521 0,0 18.156,1.781 24.301,-3.246 0,0 -1.21,2.451 -2.328,3.554 0,0 20.298,0.729 28.677,-5.602 8.38,-6.332 2.996,-110.183 -53.341,-98.572 0,0 -47.752,-3.605 -43.303,51.647 4.448,55.252 -13.58,55.253 -13.58,55.253 0,0 5.015,2.473 7.435,2.473 0,0 3.538,-1.351 4.236,-3.307 0,0 -0.698,3.073 -1.605,4.05 0,0 19.461,1.844 29.179,-5.502 9.715,-7.346 21.127,-32.87 18.354,-44.269 z"
   id="path89" />
		<path
   style="fill:#d9935c"
   d="m 1870.452,1051.13 c -18.981,-42.57 -28.063,-54.608 -28.381,-68.003 -0.251,-10.593 4.972,-22.021 15.117,-50.045 2.388,-6.603 4.037,-13.393 5.052,-20.258 8.024,-54.025 -23.217,-112.428 -42.635,-116.406 -5.402,-1.428 -14.561,-20.941 -14.447,-52.384 l -2.432,0.479 -40.887,8.097 c 0,0 0.931,12.867 0.958,24.988 0.027,10.102 -0.519,20.38 -2.807,21.585 -2.943,0.267 -5.62,0.803 -5.62,0.803 0,0 -34.602,24.301 -36.836,57.26 -2.985,44.026 28.054,96.217 0.526,184.211 -28.104,89.869 162.879,33.197 152.392,9.673 z"
   id="path90" />
		<path
   style="fill:#cb7d45"
   d="m 1761.839,752.609 c 0,0 0.932,12.867 0.959,24.988 22.88,-0.646 34.973,-21.517 39.929,-33.085 z"
   id="path91" />
		<path
   style="fill:#233862"
   d="m 1806.948,740.062 c 0,0 11.99,-18.944 14.868,-35.143 2.055,-11.566 -3.836,-54.434 -46.915,-48.261 0,0 -12.512,1.233 -24.272,9.177 -9.354,6.316 -22.853,19.954 -7.759,57.363 l 3.92,12.637 z"
   id="path92" />
		<path
   style="fill:#d9935c"
   d="m 1754.198,764.088 c 0,0 54.133,0.893 54.171,-32.828 0.036,-33.719 7.049,-56.313 -27.512,-58.309 -34.561,-1.995 -41.29,10.864 -44.04,22.116 -2.75,11.251 3.301,67.918 17.381,69.021 z"
   id="path93" />
		<path
   style="fill:#233862"
   d="m 1756.202,672.126 c 0,0 14.821,39.56 37.567,45.408 22.746,5.849 32.612,-0.245 32.612,-0.245 0,0 -17.447,-13.86 -21.068,-38.054 0,0 -37.93,-25.938 -49.111,-7.109 z"
   id="path94" />
		<path
   style="fill:#233862"
   d="m 1759.876,675.337 c 0,0 -11.068,8.831 -13.768,17.419 -2.698,8.587 -3.913,26.263 -9.063,25.662 0,0 -11.167,-26.889 1.383,-42.1 13.305,-16.128 21.448,-0.981 21.448,-0.981 z"
   id="path95" />
		<path
   style="fill:#d9935c"
   d="m 1940.854,1096.348 -16.251,4.874 c 0,0 -53.609,-88.946 -58.483,-112.091 -1.59,-7.535 -5.488,-22.613 -10.036,-39.506 -9.414,-34.985 -21.563,-77.794 -21.563,-77.794 l -4,-17.33 -13.646,-59.097 c 0,0 26.13,2.669 41.413,9.06 5.061,2.111 8.921,4.632 10.27,7.591 11.228,24.686 22.437,86.993 30.316,131.439 4.39,24.771 7.739,43.999 9.487,48.073 4.875,11.368 19.768,73.915 32.493,104.781 z"
   id="path96" />
		<path
   style="fill:#233862"
   d="m 1757.819,676.673 c 0,0 10.561,41.427 39.26,54.694 0,0 -28.699,-25.451 -31.137,-52.798 -2.436,-27.346 -8.123,-1.896 -8.123,-1.896 z"
   id="path97" />
		<path
   style="fill:#d9935c"
   d="m 1880.143,1450.986 c -5.775,61.63 -31.205,101.494 -31.205,101.494 l -8.681,7.898 c 0,0 -7.91,-45.126 -13.62,-96.789 -5.441,-49.104 -12.903,-101.067 -21.34,-116.934 -12.613,-23.697 -21.91,-72.165 -28.603,-123.369 -11.061,-84.733 -14.981,-176.987 -14.981,-176.987 l 101.838,-5.05 c 10.246,17.217 14.705,45.462 15.766,77.572 1.117,33.764 -1.541,71.807 -5.229,105.806 -5.15,47.596 -12.323,87.271 -13.988,96.186 0,0.012 0,0.022 -0.012,0.045 -0.224,1.173 0.123,2.347 0.671,3.407 20.267,40.111 23.194,85.998 19.384,126.721 z"
   id="path98" />
		<path
   style="fill:#3f88ab;fill-opacity:1"
   d="m 1761.299,909.613 c -2.29,55.941 -10.659,111.336 -35.016,107.772 -29.853,-4.358 -37.63,-32.223 -39.216,-52.937 -0.983,-12.893 0.436,-23.016 0.436,-23.016 0,0 14.692,-0.067 17.072,-2.257 11.284,-10.424 7.933,-112.654 13.519,-123.269 5.587,-10.614 41.831,-17.43 41.831,-17.43 0,0 3.653,55.842 1.374,111.137 z"
   id="path99" />
		<path
   style="fill:#64a5c6;fill-opacity:1"
   d="m 1761.299,909.613 c -2.29,55.941 -10.659,111.336 -35.016,107.772 -29.853,-4.358 -37.63,-32.223 -39.216,-52.937 7.329,-0.369 20.234,-2.156 25.362,-9.977 7.34,-11.195 30.244,-83.259 30.244,-83.259 0,0 9.006,16.178 18.626,38.401 z"
   id="path100" />
		<path
   style="fill:#233862"
   d="m 1822.525,1459.635 c -2.692,10.703 -5.653,20.894 -8.671,30.379 -0.647,2.033 -1.284,4.034 -1.932,5.988 -0.324,0.973 -0.648,1.934 -0.962,2.883 -0.637,1.877 -1.262,3.721 -1.888,5.52 -0.815,2.347 -1.631,4.637 -2.436,6.849 -0.592,1.643 -1.185,3.252 -1.766,4.826 -8.961,24.033 -16.469,39.262 -16.469,39.262 l -17.854,-1.229 c 0,0 6.704,-31.888 8.044,-77.562 0.045,-1.631 0.09,-3.274 0.123,-4.938 0.067,-3.542 0.111,-7.15 0.111,-10.837 0,-1.509 -0.01,-3.04 -0.021,-4.582 -0.358,-39.339 -5.229,-85.828 -20.77,-130.218 -12.638,-36.088 -21.799,-69.852 -28.424,-100.364 10.614,2.189 19.96,-0.046 47.081,-2.324 2.85,-0.239 16.48,16.636 29.943,38.971 0.692,31.439 16.122,47.227 16.122,47.227 19.321,41.583 12.305,100.285 -0.231,150.149 z"
   id="path101" />
		<path
   style="fill:#2b478b"
   d="m 1880.143,1450.986 c -5.775,61.63 -31.205,101.494 -31.205,101.494 l -8.681,7.898 c 0,0 -7.91,-45.126 -13.62,-96.789 -5.441,-49.104 -12.903,-101.067 -21.34,-116.934 -12.613,-23.697 -21.91,-72.165 -28.603,-123.369 9.375,3.899 41.272,14.033 97.394,1.341 -5.15,47.596 -12.323,87.271 -13.988,96.186 0,0.012 0,0.022 -0.012,0.045 -0.224,1.173 0.123,2.347 0.671,3.407 20.267,40.111 23.194,85.998 19.384,126.721 z"
   id="path102" />
		<path
   style="fill:#2b478b"
   d="m 1899.649,1151.09 c 0,0 -21.306,6.582 -52.694,10.924 -38.864,5.374 -93.194,7.312 -141.713,-10.924 0,0 -3.999,-72.199 7.498,-109.835 11.496,-37.647 16.87,-55.653 16.87,-55.653 0,0 46.062,11.55 92.841,2.594 6.571,-1.25 13.153,-2.916 19.62,-5.072 0,0 28.856,61.266 36.792,87.52 7.936,26.254 20.786,80.446 20.786,80.446 z"
   id="path103" />
		<path
   style="fill:#233862"
   d="m 1899.649,1151.09 c 0,0 -21.306,6.582 -52.694,10.924 -57.558,-32.637 -29.492,-169.976 -29.492,-169.976 1.707,-1.386 3.375,-2.666 4.988,-3.843 6.571,-1.25 13.153,-2.916 19.62,-5.072 0,0 28.856,61.266 36.792,87.52 7.936,26.254 20.786,80.447 20.786,80.447 z"
   id="path104" />
		<path
   style="fill:#64a5c6;fill-opacity:1"
   d="m 1946.766,1013.665 c 0,14.055 -14.334,22.691 -29.719,26.892 -14.793,4.045 -30.547,3.988 -35.473,0.693 -8.503,-5.698 -22.357,-69.048 -26.402,-88.332 -0.726,-3.496 -1.14,-5.542 -1.14,-5.542 0,0 -11.049,26.368 -11.396,28.826 -0.157,1.106 -0.291,2.626 -0.392,3.966 -0.111,1.62 -0.179,2.961 -0.179,2.961 0,0 -59.964,30.268 -112.453,2.47 0,0 -21.34,-123.325 -12.078,-144.553 4.604,-10.547 28.613,-32.313 38.222,-41.697 2.156,-2.112 1.944,-6.29 1.106,-10.111 -0.692,-3.229 2.212,-6.067 5.408,-5.239 6.178,1.608 17.295,1.33 29.205,-2.582 5.933,-1.933 12.056,-4.771 17.854,-8.726 1.688,-1.15 3.979,-0.089 4.234,1.933 0.905,7.353 3.129,20.781 7.185,20.781 5.587,-0.033 43.708,4.648 46.501,9.363 0.972,1.642 10.882,24.065 23.395,53.774 0,0 0.012,0.023 0.023,0.078 23.485,55.73 56.099,137.068 56.099,155.045 z"
   id="path105" />
		<path
   style="fill:#3f88ab;fill-opacity:1"
   d="m 1854.032,947.376 c 0,0 -11.049,26.368 -11.396,28.826 -0.157,1.106 -0.291,2.626 -0.392,3.966 -5.341,4.358 -11.799,7.665 -18.38,9.665 -18.691,5.664 -26.813,-30.166 -25.697,-48.043 1.118,-17.876 27.553,-68.901 36.356,-69.964 8.794,-1.05 19.509,75.55 19.509,75.55 z"
   id="path106" />
		<path
   style="fill:#e58638"
   d="m 1855.172,952.918 c -0.726,-3.496 -1.14,-5.542 -1.14,-5.542 0.581,1.889 0.961,3.732 1.14,5.542 z"
   id="path107" />
		<g
   id="g108">
			<path
   style="fill:#b64c41"
   d="m 1778.525,999.192 c -34.122,0 -48.187,-11.743 -49.227,-12.542 l -2.208,-16.07 c 0.328,0.242 46.112,27.734 116.968,1.404 l -1.502,12.175 c -27.249,10.126 -46.308,15.033 -64.031,15.033 z"
   id="path108" />
		</g>
		<path
   style="fill:#3f88ab;fill-opacity:1"
   d="m 1946.766,1013.665 c 0,14.055 -14.334,22.691 -29.719,26.892 21.206,-25.25 -25.194,-178.037 -26.379,-181.937 23.484,55.73 56.098,137.068 56.098,155.045 z"
   id="path109" />
		<path
   style="fill:#3f88ab;fill-opacity:1"
   d="m 1820.749,795.404 c 0,0 -28.546,18.078 -50.144,13.799 0,0 -5.185,-3.273 1.967,-6.569 6.715,-3.084 22.334,-12.212 18.904,-21.218 5.933,-1.933 12.056,-4.771 17.854,-8.726 1.688,-1.15 3.979,-0.089 4.234,1.933 0.906,7.353 3.129,20.781 7.185,20.781 z"
   id="path110" />
		<g
   id="g113">
			<path
   style="fill:#233862"
   d="m 1798.682,1570.313 h -11.397 c -3.817,-0.602 -6.636,-1.706 -10.552,-2.218 -5.945,-0.779 -8.683,1.657 -9.227,2.218 -0.073,0.073 -0.105,0.114 -0.105,0.114 h -48.412 c -1.219,-1.738 -0.049,-5.768 1.097,-8.732 0.771,-2.015 2.452,-3.542 4.532,-4.143 5.134,-1.486 15.255,-2.811 24.523,-11.201 5.215,-4.712 25.181,-17.326 25.181,-17.326 l 0.104,-0.024 c 0.439,0.01 2.527,0.65 11.607,8.317 4.695,3.957 12.696,-5.588 12.696,-5.588 0,0 1.503,1.242 2.624,3.558 0.901,1.827 1.56,4.337 1.04,7.433 -0.724,4.361 1.607,12.469 3.468,17.951 1.129,3.322 2.08,5.678 2.08,5.678 0,0 0.544,2.738 -9.259,3.963 z"
   id="path111" />
			<path
   style="fill:#466aa5"
   d="m 1801.354,1535.288 c -2.721,1.917 -8.464,5.694 -12.273,6.189 -5.143,0.675 -14.759,-12.452 -14.759,-12.452 l 0.104,-0.024 c 0.439,0.01 2.527,0.65 11.607,8.317 4.695,3.957 12.696,-5.588 12.696,-5.588 0,0 1.503,1.243 2.625,3.558 z"
   id="path112" />
			<path
   style="fill:#466aa5"
   d="m 1798.682,1570.313 h -11.397 c -3.817,-0.602 -6.636,-1.706 -10.552,-2.218 -5.945,-0.779 -8.683,1.657 -9.227,2.218 -0.073,0.073 -0.105,0.114 -0.105,0.114 h -48.412 c -1.219,-1.738 -0.049,-5.768 1.097,-8.732 1.471,-1.309 1.884,5.678 2.697,6.791 0.812,1.112 39.492,0.405 41.727,-1.219 2.233,-1.625 8.935,-4.468 18.276,-2.234 8.131,1.942 20.111,-3.037 23.076,-4.361 1.129,3.322 2.08,5.678 2.08,5.678 0,0 0.543,2.738 -9.26,3.963 z"
   id="path113" />
		</g>
		<g
   id="g116">
			<path
   style="fill:#233862"
   d="M 1859.496,1570.313 H 1848.1 c -3.817,-0.602 -6.636,-1.706 -10.551,-2.218 -5.946,-0.779 -8.684,1.657 -9.229,2.218 -0.072,0.073 -0.104,0.114 -0.104,0.114 h -48.412 c -1.219,-1.738 -0.049,-5.768 1.097,-8.732 0.771,-2.015 2.453,-3.542 4.532,-4.143 5.134,-1.486 15.255,-2.811 24.523,-11.201 5.215,-4.712 25.181,-17.326 25.181,-17.326 l 0.105,-0.024 c 0.438,0.01 2.526,0.65 11.606,8.317 4.695,3.957 12.696,-5.588 12.696,-5.588 0,0 1.502,1.242 2.624,3.558 0.901,1.827 1.56,4.337 1.039,7.433 -0.723,4.361 1.608,12.469 3.469,17.951 1.129,3.322 2.079,5.678 2.079,5.678 0,0 0.546,2.738 -9.259,3.963 z"
   id="path114" />
			<path
   style="fill:#466aa5"
   d="m 1862.169,1535.288 c -2.722,1.917 -8.464,5.694 -12.273,6.189 -5.142,0.675 -14.759,-12.452 -14.759,-12.452 l 0.105,-0.024 c 0.438,0.01 2.526,0.65 11.606,8.317 4.695,3.957 12.696,-5.588 12.696,-5.588 0,0 1.503,1.243 2.625,3.558 z"
   id="path115" />
			<path
   style="fill:#466aa5"
   d="M 1859.496,1570.313 H 1848.1 c -3.817,-0.602 -6.636,-1.706 -10.551,-2.218 -5.946,-0.779 -8.684,1.657 -9.229,2.218 -0.072,0.073 -0.104,0.114 -0.104,0.114 h -48.412 c -1.219,-1.738 -0.049,-5.768 1.097,-8.732 1.471,-1.309 1.885,5.678 2.696,6.791 0.813,1.112 39.493,0.405 41.728,-1.219 2.233,-1.625 8.935,-4.468 18.276,-2.234 8.13,1.942 20.111,-3.037 23.076,-4.361 1.129,3.322 2.079,5.678 2.079,5.678 0,0 0.545,2.738 -9.26,3.963 z"
   id="path116" />
		</g>
		<g
   id="g127">
			<path
   style="fill:#d37129"
   d="m 1981.121,1165.6 c -1.126,-5.658 -5.104,-10.261 -10.514,-12.267 -8.774,-3.255 -23.138,-6.189 -40.8,-0.997 -29.811,8.764 -32.729,27.088 -30.757,40.268 1.972,13.18 -3.872,34.184 -3.015,49.13 0.858,14.945 5.14,52.491 27.213,50.521 22.075,-1.971 93.227,-21.094 93.227,-21.094 0,0 12.292,-23.395 -12.96,-57.279 -14.979,-20.101 -20.429,-38.414 -22.394,-48.282 z"
   id="path117" />
			<g
   id="g126">
				<g
   id="g118">
					<path
   style="fill:#d37129"
   d="m 1967.458,1148.327 -5.903,0.533 c 0,-0.01 -0.68,-4.083 -3.389,-6.647 -2.085,-1.967 -4.967,-2.682 -8.557,-2.096 -3.402,0.543 -5.848,2.104 -7.086,4.615 -1.747,3.533 -0.779,8.087 -0.769,8.136 L 1936,1154.2 c -0.071,-0.313 -1.736,-7.711 1.28,-13.927 2.072,-4.295 5.778,-6.768 10.906,-7.733 5.288,-0.847 9.761,0.444 13.297,3.841 4.877,4.686 5.934,11.657 5.975,11.946 z"
   id="path118" />
				</g>
				<g
   id="g125">
					<path
   style="fill:#f1a34f"
   d="m 2031.102,1267.821 c 0,0 -71.16,19.169 -93.252,21.101 -22.073,2.007 -26.369,-35.538 -27.181,-50.534 -0.869,-14.903 4.954,-35.923 3.014,-49.13 -0.402,-2.495 -0.626,-5.268 -0.448,-8.056 0.568,-11.756 7.154,-25.114 31.158,-32.162 17.713,-5.218 32.033,-2.24 40.844,1.014 5.381,2.011 9.404,6.594 10.521,12.235 0.26,1.151 0.496,2.553 0.809,3.933 2.535,10.489 8.397,26.768 21.587,44.372 25.26,33.848 12.948,57.227 12.948,57.227 z"
   id="path119" />
					<path
   style="opacity:0.4;fill:#d86713"
   d="m 1921.416,1241.542 42.888,-9.705 c 0,0 9.978,30.715 -10.288,36.31 -20.267,5.594 -28.678,-6.296 -32.6,-26.605 z"
   id="path120" />
					<path
   style="fill:#d37129"
   d="m 1921.416,1241.542 c 0,0 9.896,9.536 23.266,6.175 13.371,-3.362 19.622,-15.88 19.622,-15.88 z"
   id="path121" />
					<path
   style="opacity:0.4;fill:#d86713"
   d="m 1973.01,1229.868 42.887,-9.704 c 0,0 9.979,30.714 -10.289,36.309 -20.266,5.594 -28.676,-6.297 -32.598,-26.605 z"
   id="path122" />
					<path
   style="fill:#d37129"
   d="m 1973.01,1229.868 c 0,0 9.896,9.536 23.266,6.174 13.369,-3.36 19.621,-15.878 19.621,-15.878 z"
   id="path123" />
					<path
   style="opacity:0.4;fill:#d86713"
   d="m 1995.758,1162.289 c 0.26,1.151 0.496,2.553 0.809,3.933 -5.67,11.7 -16.417,26.649 -34.608,30.119 -30.935,6.03 -48.724,-15.139 -48.724,-15.139 0.568,-11.756 7.154,-25.114 31.158,-32.162 17.713,-5.218 32.033,-2.24 40.844,1.014 5.38,2.01 9.404,6.593 10.521,12.235 z"
   id="path124" />
					<path
   style="fill:#d86713"
   d="m 1962.396,1202.822 v 0 c -1.937,0.438 -3.88,-0.788 -4.317,-2.724 l -0.725,-3.201 c -0.438,-1.937 0.787,-3.879 2.724,-4.316 v 0 c 1.937,-0.438 3.88,0.787 4.317,2.724 l 0.725,3.2 c 0.437,1.936 -0.788,3.88 -2.724,4.317 z"
   id="path125" />
				</g>
			</g>
		</g>
		<path
   style="fill:#d9935c"
   d="m 1939.702,1093.643 c 0,0 4.94,11.643 10.085,14.892 5.145,3.249 10.033,11.046 11.102,17.328 1.96,11.53 -6.877,18.682 -13.375,18.682 -6.498,0 -12.709,-8.86 -16.53,-30.02 -0.209,-1.164 -6.376,-13.301 -6.376,-13.301 z"
   id="path127" />
	</g><g
     id="g166">
		<path
   style="fill:#233862"
   d="m 1090.072,656.979 c -7.764,-11.789 -38.591,-5.19 -68.853,14.738 -30.264,19.931 -48.502,45.645 -40.737,57.435 7.766,11.79 38.592,5.19 68.854,-14.738 30.264,-19.931 48.502,-45.645 40.736,-57.435 z"
   id="path128" />
		<g
   id="g129">
			<path
   style="fill:#bc3f3f"
   d="m 931.975,1095.041 5.973,0.358 c -0.053,-0.133 2.324,-104.343 11.466,-146.504 17.031,-78.554 61.543,-140.046 62.032,-140.572 l -10.695,-3.428 c -0.527,0.568 -8.971,13.644 -20.924,37.769 -11.016,22.232 -28.73,59.266 -36.551,102.397 -7.721,42.593 -11.522,149.418 -11.301,149.98 z"
   id="path129" />
		</g>
		<path
   style="fill:#a53d38"
   d="m 1039.954,656.054 c 0,0 -39.054,-8.332 -57.798,23.43 -18.745,31.764 -19.786,86.958 -32.283,105.008 -12.497,18.051 -34.539,94.238 -11.109,111.286 23.433,17.047 167.775,-0.625 175.878,-8.398 8.103,-7.773 -0.485,-87.783 -14.59,-110.956 -14.105,-23.175 20.262,-132.174 -60.098,-120.37 z"
   id="path130" />
		<path
   style="fill:#ffb27d"
   d="m 1098.13,1003.723 c 44.188,-11.245 92.762,-79.798 92.762,-79.798 l -12.442,-10.792 c -12.881,15.186 -66.441,41.343 -66.441,41.343 0.287,-13.897 -0.076,-26.574 -0.954,-38.112 -5.943,-78.417 -35.505,-104.543 -43.573,-110.275 -1.303,-0.931 -2.05,-1.319 -2.05,-1.319 0,0 -0.03,0.568 -0.076,1.648 -0.117,2.33 -0.332,7.025 -0.552,13.468 -1.64,47.995 -3.599,193.243 33.326,183.837 z"
   id="path131" />
		<path
   style="fill:#ffb27d"
   d="m 1178.449,913.133 c 0.187,-1.853 1.432,-28.793 6.784,-33.922 5.352,-5.129 15.919,-12.114 18.954,-11.55 3.037,0.566 13.351,17.72 8.48,29.535 -4.868,11.815 -21.776,26.729 -21.776,26.729 z"
   id="path132" />
		<path
   style="fill:#ffb27d"
   d="m 1001.91,1459.635 c 2.693,10.703 5.654,20.894 8.671,30.379 0.648,2.033 1.284,4.034 1.933,5.988 0.324,0.973 0.648,1.934 0.961,2.883 0.637,1.877 1.263,3.721 1.889,5.52 0.815,2.347 1.631,4.637 2.436,6.849 0.592,1.643 1.184,3.252 1.765,4.826 8.961,24.033 16.47,39.262 16.47,39.262 l 17.854,-1.229 c 0,0 -6.704,-31.888 -8.045,-77.562 -0.045,-1.631 -0.089,-3.274 -0.123,-4.938 -0.067,-3.542 -0.111,-7.15 -0.111,-10.837 0,-1.509 0.011,-3.04 0.022,-4.582 0.357,-39.339 5.229,-85.828 20.771,-130.218 12.636,-36.088 21.798,-69.852 28.423,-100.364 21.385,-98.499 16.357,-163.211 16.357,-163.211 l -100.443,11.753 -4.681,0.548 c -0.426,46.132 -1.61,108.766 -2.648,157.736 -0.18,8.502 -0.347,16.592 -0.514,24.11 -0.693,31.44 -1.219,52.937 -1.219,52.937 -19.32,41.584 -12.303,100.286 0.232,150.15 z"
   id="path133" />
		<path
   style="fill:#ffb27d"
   d="m 953.983,1051.13 c 18.983,-42.57 28.063,-54.608 28.381,-68.003 0.252,-10.593 -4.971,-22.021 -15.117,-50.045 -2.388,-6.603 -4.036,-13.393 -5.051,-20.258 -8.024,-54.025 23.217,-112.428 42.634,-116.406 5.403,-1.428 14.561,-20.941 14.448,-52.384 l 2.433,0.479 40.886,8.097 c 0,0 -0.931,12.867 -0.958,24.988 -0.027,10.102 0.518,20.38 2.806,21.585 2.943,0.267 35.043,6.003 40.878,15.214 5.735,9.056 -0.656,9.89 1.579,42.849 2.984,44.026 -28.055,96.217 -0.527,184.211 28.104,89.869 -162.878,33.197 -152.392,9.673 z"
   id="path134" />
		<path
   style="fill:#ef9e67"
   d="m 1062.597,752.609 c 0,0 -0.931,12.867 -0.958,24.988 -22.88,-0.646 -34.974,-21.517 -39.928,-33.085 z"
   id="path135" />
		<path
   style="fill:#ffb27d"
   d="m 1070.237,764.088 c 0,0 -54.132,0.893 -54.169,-32.828 -0.038,-33.719 -7.05,-56.313 27.511,-58.309 34.561,-1.995 41.29,10.864 44.04,22.116 2.75,11.251 -3.302,67.918 -17.382,69.021 z"
   id="path136" />
		<path
   style="fill:#a53d38"
   d="m 1068.233,672.126 c 0,0 -14.821,39.56 -37.566,45.408 -22.746,5.849 -32.612,-0.245 -32.612,-0.245 0,0 17.446,-13.86 21.067,-38.054 0,0 37.932,-25.938 49.111,-7.109 z"
   id="path137" />
		<path
   style="fill:#a53d38"
   d="m 1064.56,675.337 c 0,0 11.069,8.831 13.768,17.419 2.699,8.587 3.913,26.263 9.065,25.662 0,0 11.166,-26.889 -1.383,-42.1 -13.308,-16.128 -21.45,-0.981 -21.45,-0.981 z"
   id="path138" />
		<path
   style="fill:#ffb27d"
   d="m 883.582,1096.348 16.252,4.874 c 0,0 53.607,-88.946 58.482,-112.091 1.59,-7.535 5.487,-22.613 10.037,-39.506 9.412,-34.985 21.561,-77.794 21.561,-77.794 l 3.999,-17.33 13.647,-59.097 c 0,0 -26.13,2.669 -41.413,9.06 -5.061,2.111 -8.921,4.632 -10.269,7.591 -11.229,24.686 -22.438,86.993 -30.316,131.439 -4.39,24.771 -7.739,43.999 -9.488,48.073 -4.874,11.368 -19.766,73.915 -32.492,104.781 z"
   id="path139" />
		<path
   style="fill:#a53d38"
   d="m 1066.616,676.673 c 0,0 -10.56,41.427 -39.26,54.694 0,0 28.7,-25.451 31.137,-52.798 2.438,-27.346 8.123,-1.896 8.123,-1.896 z"
   id="path140" />
		<path
   style="fill:#ffb27d"
   d="m 944.293,1450.986 c 5.777,61.63 31.206,101.494 31.206,101.494 l 8.681,7.898 c 0,0 7.91,-45.126 13.62,-96.789 5.44,-49.104 12.903,-101.067 21.339,-116.934 12.614,-23.697 21.91,-72.165 28.603,-123.369 11.062,-84.733 14.983,-176.987 14.983,-176.987 l -101.84,-5.05 c -10.245,17.217 -14.703,45.462 -15.765,77.572 -1.117,33.764 1.542,71.807 5.228,105.806 5.151,47.596 12.324,87.271 13.989,96.186 0,0.012 0,0.022 0.011,0.045 0.224,1.173 -0.122,2.347 -0.67,3.407 -20.268,40.111 -23.195,85.998 -19.385,126.721 z"
   id="path141" />
		<path
   style="fill:#ffb93e"
   d="m 1137.365,964.451 c -1.583,20.714 -9.361,48.581 -39.208,52.935 -10.56,1.541 -18.11,-7.987 -23.474,-23.849 -7.009,-20.724 -10.258,-52.236 -11.549,-83.926 -1.239,-30.014 -0.729,-60.203 0,-81.521 12.247,-1.385 34.721,-11.758 41.614,-14.34 0.198,0.208 0.396,0.427 0.573,0.646 0.145,0.167 0.28,0.345 0.405,0.522 0.24,0.332 0.438,0.656 0.614,0.989 2.979,5.655 3.416,37.386 4.895,67.336 1.281,26.213 3.364,51.059 8.623,55.934 2.386,2.186 17.068,2.26 17.068,2.26 0,0 1.429,10.122 0.439,23.014 z"
   id="path142" />
		<path
   style="fill:#ffa412"
   d="m 1063.138,909.613 c 2.29,55.941 10.658,111.336 35.015,107.772 29.854,-4.358 37.63,-32.223 39.217,-52.937 -7.33,-0.369 -20.234,-2.156 -25.362,-9.977 -7.341,-11.195 -30.245,-83.259 -30.245,-83.259 0,0 -9.005,16.178 -18.625,38.401 z"
   id="path143" />
		<path
   style="fill:#2b478b"
   d="m 1094.823,985.599 c 0,0 -59.908,15.032 -112.459,-2.472 0,0 -28.854,61.262 -36.793,87.518 -7.938,26.255 -67.901,362.287 -67.901,362.287 0,0 131.969,38.167 219.675,5.207 0,0 25.848,-359.249 14.351,-396.89 -11.499,-37.64 -16.873,-55.65 -16.873,-55.65 z"
   id="path144" />
		<path
   style="fill:#ffb93e"
   d="m 1111.236,883.012 c -4.384,43.307 -16.412,102.052 -16.412,102.052 -6.634,3.509 -13.393,6.084 -20.141,7.911 -46.55,12.646 -92.31,-10.372 -92.31,-10.372 0,0 -0.072,-1.339 -0.187,-2.96 -0.094,-1.339 -0.229,-2.844 -0.386,-3.955 -0.344,-2.45 -11.393,-28.74 -11.393,-28.74 0,0 -0.417,2.047 -1.146,5.535 -4.041,19.219 -17.901,82.376 -26.399,88.065 -4.926,3.281 -20.682,3.333 -35.47,-0.695 -15.392,-4.184 -29.722,-12.802 -29.722,-26.809 0,-17.931 32.606,-99.019 56.1,-154.577 0.011,-0.063 0.021,-0.083 0.021,-0.083 12.508,-29.622 19.773,-50.229 29.341,-52.533 0,0 64.354,26.191 100.001,22.175 12.247,-1.382 34.721,-11.724 41.614,-14.298 0.198,0.207 0.396,0.426 0.573,0.644 0.145,0.167 0.28,0.342 0.405,0.52 0.14,0.192 0.261,0.382 0.376,0.571 5.223,7.696 4.398,20.462 4.665,25.333 0.522,9.517 2.428,22.831 0.47,42.216 z"
   id="path145" />
		<path
   style="fill:#ffa412"
   d="m 970.404,947.376 c 0,0 11.049,26.368 11.396,28.826 0.156,1.106 0.29,2.626 0.39,3.966 5.341,4.358 11.799,7.665 18.38,9.665 18.691,5.664 26.814,-30.166 25.697,-48.043 -1.118,-17.876 -27.552,-68.901 -36.357,-69.964 -8.792,-1.05 -19.506,75.55 -19.506,75.55 z"
   id="path146" />
		<path
   style="fill:#e58638"
   d="m 969.264,952.918 c 0.727,-3.496 1.141,-5.542 1.141,-5.542 -0.583,1.889 -0.962,3.732 -1.141,5.542 z"
   id="path147" />
		<g
   id="g148">
			<path
   style="fill:#163560"
   d="m 1046.438,997.025 c 34.121,0 47.659,-9.576 48.7,-10.375 l 2.207,-16.07 c -0.327,0.242 -46.111,27.734 -116.966,1.404 l 1.502,12.175 c 27.248,10.126 46.834,12.866 64.557,12.866 z"
   id="path148" />
		</g>
		<path
   style="fill:#ffa412"
   d="m 877.67,1013.665 c 0,14.055 14.334,22.691 29.72,26.892 -21.206,-25.25 25.194,-178.037 26.379,-181.937 -23.486,55.73 -56.099,137.068 -56.099,155.045 z"
   id="path149" />
		<g
   id="g152">
			<path
   style="fill:#233862"
   d="m 1025.756,1570.313 h 11.396 c 3.818,-0.602 6.636,-1.706 10.552,-2.218 5.945,-0.779 8.684,1.657 9.228,2.218 0.073,0.073 0.106,0.114 0.106,0.114 h 48.41 c 1.219,-1.738 0.049,-5.768 -1.097,-8.732 -0.771,-2.015 -2.452,-3.542 -4.531,-4.143 -5.134,-1.486 -15.255,-2.811 -24.522,-11.201 -5.215,-4.712 -25.182,-17.326 -25.182,-17.326 l -0.104,-0.024 c -0.439,0.01 -2.526,0.65 -11.608,8.317 -4.695,3.957 -12.695,-5.588 -12.695,-5.588 0,0 -1.503,1.242 -2.624,3.558 -0.901,1.827 -1.56,4.337 -1.04,7.433 0.724,4.361 -1.608,12.469 -3.468,17.951 -1.13,3.322 -2.079,5.678 -2.079,5.678 0,0 -0.547,2.738 9.258,3.963 z"
   id="path150" />
			<path
   style="fill:#466aa5"
   d="m 1023.083,1535.288 c 2.721,1.917 8.464,5.694 12.273,6.189 5.143,0.675 14.759,-12.452 14.759,-12.452 l -0.104,-0.024 c -0.439,0.01 -2.526,0.65 -11.608,8.317 -4.695,3.957 -12.695,-5.588 -12.695,-5.588 0,0 -1.504,1.243 -2.625,3.558 z"
   id="path151" />
			<path
   style="fill:#466aa5"
   d="m 1025.756,1570.313 h 11.396 c 3.818,-0.602 6.636,-1.706 10.552,-2.218 5.945,-0.779 8.684,1.657 9.228,2.218 0.073,0.073 0.106,0.114 0.106,0.114 h 48.41 c 1.219,-1.738 0.049,-5.768 -1.097,-8.732 -1.47,-1.309 -1.884,5.678 -2.696,6.791 -0.813,1.112 -39.493,0.405 -41.727,-1.219 -2.234,-1.625 -8.936,-4.468 -18.276,-2.234 -8.13,1.942 -20.112,-3.037 -23.076,-4.361 -1.13,3.322 -2.079,5.678 -2.079,5.678 0,0 -0.546,2.738 9.259,3.963 z"
   id="path152" />
		</g>
		<g
   id="g155">
			<path
   style="fill:#233862"
   d="m 964.94,1570.313 h 11.396 c 3.818,-0.602 6.636,-1.706 10.552,-2.218 5.945,-0.779 8.684,1.657 9.227,2.218 0.073,0.073 0.106,0.114 0.106,0.114 h 48.412 c 1.218,-1.738 0.048,-5.768 -1.098,-8.732 -0.771,-2.015 -2.452,-3.542 -4.531,-4.143 -5.134,-1.486 -15.256,-2.811 -24.523,-11.201 -5.215,-4.712 -25.181,-17.326 -25.181,-17.326 l -0.104,-0.024 c -0.439,0.01 -2.527,0.65 -11.608,8.317 -4.695,3.957 -12.695,-5.588 -12.695,-5.588 0,0 -1.503,1.242 -2.624,3.558 -0.901,1.827 -1.56,4.337 -1.04,7.433 0.724,4.361 -1.607,12.469 -3.468,17.951 -1.13,3.322 -2.08,5.678 -2.08,5.678 0,0 -0.545,2.738 9.259,3.963 z"
   id="path153" />
			<path
   style="fill:#466aa5"
   d="m 962.268,1535.288 c 2.721,1.917 8.463,5.694 12.273,6.189 5.143,0.675 14.759,-12.452 14.759,-12.452 l -0.104,-0.024 c -0.439,0.01 -2.527,0.65 -11.608,8.317 -4.695,3.957 -12.695,-5.588 -12.695,-5.588 0,0 -1.504,1.243 -2.625,3.558 z"
   id="path154" />
			<path
   style="fill:#466aa5"
   d="m 964.94,1570.313 h 11.396 c 3.818,-0.602 6.636,-1.706 10.552,-2.218 5.945,-0.779 8.684,1.657 9.227,2.218 0.073,0.073 0.106,0.114 0.106,0.114 h 48.412 c 1.218,-1.738 0.048,-5.768 -1.098,-8.732 -1.47,-1.309 -1.884,5.678 -2.695,6.791 -0.813,1.112 -39.493,0.405 -41.729,-1.219 -2.233,-1.625 -8.935,-4.468 -18.275,-2.234 -8.13,1.942 -20.112,-3.037 -23.076,-4.361 -1.13,3.322 -2.08,5.678 -2.08,5.678 0,0 -0.544,2.738 9.26,3.963 z"
   id="path155" />
		</g>
		<path
   style="fill:#ffb27d"
   d="m 884.734,1093.643 c 0,0 -4.941,11.643 -10.086,14.892 -5.144,3.249 -10.032,11.046 -11.102,17.328 -1.959,11.53 6.877,18.682 13.376,18.682 6.498,0 12.709,-8.86 16.529,-30.02 0.21,-1.164 6.377,-13.301 6.377,-13.301 z"
   id="path156" />
		<g
   id="g158">
			<polygon
   style="fill:#ee9849"
   points="1161.026,853.057 1203.026,853.057 1202.266,860.866 1199.871,885.465 1198.34,901.221 1166.931,901.221 1165.005,885.465 1161.984,860.866 "
   id="polygon156" />
			<polygon
   style="fill:#d17a33"
   points="1204.114,848.37 1205.258,853.057 1158.553,853.057 1159.465,848.37 "
   id="polygon157" />
			<polygon
   style="fill:#d17a33"
   points="1161.984,860.866 1202.266,860.866 1199.871,885.465 1165.005,885.465 "
   id="polygon158" />
		</g>
		<path
   style="fill:#ffb27d"
   d="m 1206.396,869.721 c 0,0 -7.932,-8.857 -15.866,-2.089 -7.935,6.769 0.526,21.223 7.408,25.174 6.882,3.951 9.09,6.011 9.09,6.011 z"
   id="path158" />
		<g
   id="g159">
			<path
   style="fill:#bc3f3f"
   d="m 1026.368,1095.521 -5.966,-0.448 c 0.069,-0.126 11.678,-104.404 8.27,-147.697 -6.352,-80.661 -42.222,-148.008 -42.635,-148.601 l 11.057,-1.977 c 0.447,0.638 7.061,14.822 15.674,40.502 7.938,23.663 20.53,62.998 22.499,107.08 1.945,43.53 -8.603,150.61 -8.899,151.141 z"
   id="path159" />
		</g>
		<g
   id="g165">
			<path
   style="fill:#d2e4ff"
   d="m 954.042,1072.586 c 0,0 5.799,-14.273 15.018,-17.835 l 47.075,8.872 c 0,0 -11.621,11.057 -12.715,18.269 z"
   id="path160" />
			<path
   style="fill:#912f2f"
   d="m 1013.144,1153.136 -80.459,-15.163 c -3.781,-0.713 -6.268,-4.355 -5.556,-8.135 l 10.052,-53.341 c 0.713,-3.781 4.356,-6.268 8.136,-5.556 l 80.46,15.164 c 3.78,0.711 6.268,4.354 5.556,8.135 l -10.053,53.34 c -0.713,3.781 -4.355,6.269 -8.136,5.556 z"
   id="path161" />
			<g
   id="g162">
				
					<rect
   x="945.492"
   y="1043.1331"
   transform="matrix(1,0.0088,-0.0088,1,9.3867,-8.4063)"
   style="fill:#e58638"
   width="38.476002"
   height="49.324001"
   id="rect161" />
				
					<rect
   x="943.28802"
   y="1043.114"
   transform="matrix(1,0.0087,-0.0087,1,9.3615,-8.3649)"
   style="fill:#ee9849"
   width="38.476002"
   height="49.324001"
   id="rect162" />
			</g>
			<g
   id="g164">
				
					<rect
   x="955.88202"
   y="1055.984"
   transform="matrix(0.7941,0.6078,-0.6078,0.7941,857.6293,-370.1645)"
   style="fill:#578e9b"
   width="38.477001"
   height="49.324001"
   id="rect163" />
				
					<rect
   x="952.46698"
   y="1053.371"
   transform="matrix(0.7941,0.6078,-0.6078,0.7941,855.3048,-368.6246)"
   style="fill:#74acbe"
   width="38.476002"
   height="49.323002"
   id="rect164" />
			</g>
			<path
   style="fill:#bc3f3f"
   d="m 993.487,1149.432 -77.038,-14.519 c -4.725,-0.891 -7.834,-5.443 -6.944,-10.169 l 9.408,-49.919 c 0.891,-4.726 5.444,-7.834 10.169,-6.943 l 77.039,14.519 c 4.725,0.891 7.834,5.443 6.943,10.168 l -9.408,49.92 c -0.89,4.725 -5.443,7.833 -10.169,6.943 z"
   id="path164" />
		</g>
		<path
   style="fill:#233862"
   d="m 975.275,699.883 c 0,0 -24.628,-49.021 9.788,-68.4 34.415,-19.378 59.605,-11.768 78.54,11.93 z"
   id="path165" />
		<path
   style="fill:#2b478b"
   d="m 1113.924,638.025 c -7.082,-11.351 -31.866,-9.518 -61.775,2.729 -11.695,4.78 -24.149,11.163 -36.647,18.953 -15.548,9.695 -29.085,20.308 -39.708,30.69 -19.808,19.369 -29.471,37.906 -23.057,48.195 1.969,3.135 4.905,5.166 9.32,6.343 4.385,-9.445 16.974,-18.291 20.536,-25.649 5.036,-10.403 17.777,-29.254 41.094,-43.802 17.912,-11.174 35.73,-17.746 47.988,-18.537 7.133,-0.458 12.392,1.031 14.704,4.739 1.802,2.894 1.614,6.81 -0.25,11.34 1.749,2.937 3.729,7.082 5.363,12.58 19.391,-19.139 28.784,-37.405 22.432,-47.581 z"
   id="path166" />
	</g></g>
	
	
</g></g></svg>
