<svg width="1280" height="108" viewBox="0 0 1280 108" fill="none" xmlns="http://www.w3.org/2000/svg">
<path fill-rule="evenodd" clip-rule="evenodd" d="M0 12.7059L42.6667 9.52941C85.3333 6.35294 170.667 -1.19209e-06 256 -1.19209e-06C341.333 -1.19209e-06 426.667 6.35294 512 22.2353C597.333 38.1176 682.667 63.5294 768 63.5294C853.333 63.5294 938.667 38.1176 1024 31.7647C1109.33 25.4118 1194.67 38.1176 1237.33 44.4706L1280 50.8235V108H1237.33C1194.67 108 1109.33 108 1024 108C938.667 108 853.333 108 768 108C682.667 108 597.333 108 512 108C426.667 108 341.333 108 256 108C170.667 108 85.3333 108 42.6667 108H0V12.7059Z" fill="#f5f5f5"/>
</svg>
