<svg width="61" height="116" viewBox="0 0 61 116" fill="none" xmlns="http://www.w3.org/2000/svg">
<g clip-path="url(#clip0_9_956)">
<path d="M51.6684 56.083C51.6125 55.7097 51.0625 55.4204 50.8264 55.7508C50.5902 56.0815 50.5778 55.8575 50.3914 56.5719C49.8631 58.6205 48.9683 60.6034 47.859 62.3352C45.7338 65.6543 43.4438 67.329 40.8152 68.9884C41.6759 66.3839 42.1357 63.6022 41.9089 60.7982C41.8281 59.7754 41.6852 58.7151 41.1383 57.7769C40.9861 57.5154 40.52 57.5686 40.5045 57.8614C40.4361 59.3091 40.9084 60.4005 40.7375 62.9912C40.3305 69.171 36.6392 75.7279 32.8826 80.3187C32.8081 72.5465 32.1867 63.7143 29.8097 55.8748C29.4213 54.589 28.8962 53.3651 28.3959 52.1085C28.2779 51.8141 27.8708 51.9397 27.9547 52.234C28.079 52.6524 29.4026 58.0471 29.4865 58.4173C30.8537 64.3888 31.4844 71.0027 31.6522 77.0343C27.8056 72.55 24.975 67.3068 23.3002 61.831C22.8062 60.2129 22.5328 58.5413 21.9176 56.9523C21.8306 56.7338 21.467 56.7096 21.4484 56.9523C21.2806 59.3333 22.654 63.5436 23.5643 65.8315C25.41 70.4672 27.9858 74.6227 31.2825 78.3339C31.4099 78.4786 30.8817 114.754 31.0619 115.212C31.3664 115.986 32.7832 116.53 32.836 115.157C32.8578 114.597 32.9013 92.5408 32.892 82.3226C33.3052 82.0815 33.5382 81.6496 34.5294 80.3791C36.8194 77.4374 38.9975 73.7757 40.3367 70.3225C41.3714 70.2642 48.4836 66.6163 51.2614 58.3105C51.339 58.0712 51.6964 56.9473 51.7368 56.6959C51.771 56.4826 51.6995 56.295 51.6684 56.083Z" fill="#784A38"/>
<path d="M26.9995 44.2261C27.0852 43.0952 27.1296 41.9384 27.1296 40.7625C27.1296 27.6422 21.6049 17.0056 14.7884 17.0056C7.97196 17.0056 2.44727 27.6422 2.44727 40.7625C2.44727 41.9384 2.49162 43.0952 2.57734 44.2261H26.9995Z" fill="#184655"/>
<path d="M40.9663 38.3871C41.0515 36.793 41.0971 35.1631 41.0971 33.5037C41.0971 15 35.5704 -1.90735e-05 28.7541 -1.90735e-05C21.9377 -1.90735e-05 16.4141 15 16.4141 33.5037C16.4141 35.1631 16.4597 36.793 16.5448 38.3871H40.9663Z" fill="#3C8F7C"/>
<path d="M36.4492 58.918C36.3606 57.7873 36.3163 56.6305 36.3163 55.4546C36.3163 42.334 41.8434 31.6975 48.6581 31.6975C55.476 31.6975 60.9999 42.334 60.9999 55.4546C60.9999 56.6305 60.9556 57.7873 60.8702 58.918H36.4492Z" fill="#3C8F7C"/>
<path d="M16.6986 58.9183C16.5876 57.3225 16.5321 55.6925 16.5321 54.033C16.5321 35.5295 23.5365 20.5292 32.1778 20.5292C40.8192 20.5292 47.8205 35.5295 47.8205 54.033C47.8205 55.6925 47.765 57.3225 47.6571 58.9183H16.6986Z" fill="#184655"/>
<path d="M28.7081 20.5296C24.3882 20.5296 20.5319 25.2893 17.9845 32.7515C16.6879 32.0664 15.312 31.6981 13.8842 31.6981C6.21449 31.6981 0 42.3347 0 55.455C0 56.6308 0.0518578 57.7876 0.146433 58.9185H42.4429C42.5405 57.323 42.5893 55.6927 42.5893 54.0333C42.5893 35.5299 36.3748 20.5296 28.7081 20.5296Z" fill="#3C8F7C"/>
</g>
<defs>
<clipPath id="clip0_9_956">
<rect width="61" height="116" fill="white"/>
</clipPath>
</defs>
</svg>
