<?xml version="1.0" encoding="UTF-8" standalone="no"?>
<!-- Created with Inkscape (http://www.inkscape.org/) -->

<svg
   width="84.666664mm"
   height="79.619026mm"
   viewBox="0 0 84.666664 79.619026"
   version="1.1"
   id="svg1"
   xml:space="preserve"
   xmlns="http://www.w3.org/2000/svg"
   xmlns:svg="http://www.w3.org/2000/svg"><defs
     id="defs1"><clipPath
       id="clip0_2503_8"><rect
         width="41"
         height="90"
         fill="#ffffff"
         transform="translate(112,286)"
         id="rect308"
         x="0"
         y="0" /></clipPath><clipPath
       id="clip1_2503_8"><rect
         width="29"
         height="89"
         fill="#ffffff"
         transform="translate(172,286)"
         id="rect309"
         x="0"
         y="0" /></clipPath><clipPath
       id="clip2_2503_8"><rect
         width="61"
         height="116"
         fill="#ffffff"
         transform="translate(255,279)"
         id="rect310"
         x="0"
         y="0" /></clipPath><clipPath
       clipPathUnits="userSpaceOnUse"
       id="clipPath1541"><path
         id="path1541"
         style="fill:#008000;stroke-width:0.999999"
         d="M -1.4390819,94.077503 H 318.56092 V 399.79602 H -1.4390819 Z" /></clipPath></defs><g
     style="fill:none"
     id="g617"
     transform="matrix(0.26458333,0,0,0.26458333,0.38077149,-24.891342)"
     clip-path="url(#clipPath1541)"
     mask="none"><path
       d="m 87.8587,121.39 70.7023,-27.3125 68.562,27.1975 -63.601,2.687 -74.1575,-1.173 z"
       fill="#1e2c5c"
       id="path309" /><path
       d="m 268.999,203.503 -0.043,-52.346 -292.3029,0.242 -15.2459,52.359 117.3335,-0.097 z"
       fill="#1e2c5c"
       id="path310" /><path
       d="m 238.432,203.529 -0.044,-52.347 101.571,-0.084 15.261,52.334 z"
       fill="#1e2c5c"
       id="path311" /><path
       d="m 343.658,147.119 -370.2349,0.307 0.0066,7.952 370.2353,-0.307 z"
       fill="#f2e3d1"
       id="path312" /><path
       d="m 355.366,384.38 -117.381,0.097 -0.148,-179.046 117.38,-0.097 z"
       fill="#e79561"
       id="path313" /><path
       d="M -38.4585,384.706 78.9228,384.609 78.7744,205.563 -38.6068,205.66 Z"
       fill="#e79561"
       id="path314" /><path
       d="M 238.606,384.477 78.9229,384.609 78.7771,208.7 238.46,208.568 Z"
       fill="#e79561"
       id="path315" /><path
       d="m 355.36585,384.284 -393.971921,0.447 -7.29e-4,-1.926 393.97119,-0.447 z"
       fill="#184655"
       id="path316"
       style="stroke-width:0.8541" /><path
       d="m 198.406,203.562 -5.429,0.004 -236.0911,0.196 0.0042,5.174 236.0909,-0.196 5.429,-0.004 161.316,-0.134 -0.005,-5.174 z"
       fill="#fcf5eb"
       id="path317" /><path
       d="m 238.003,353.417 0.015,17.687 -155.5832,0.128 -0.0147,-17.686 -120.9036,0.1 0.025,30.163 393.8275,-0.326 -0.025,-30.164 z"
       fill="#1e2c5c"
       id="path318" /><path
       d="m 199.503,368.514 -17.544,0.015 -0.132,-159.853 17.543,-0.015 z"
       fill="#fcf5eb"
       id="path319" /><path
       d="m 203.35,216.659 -25.494,0.021 -0.007,-8 25.495,-0.021 z"
       fill="#f2e3d1"
       id="path320" /><path
       d="m 201.831,368.513 -22.205,0.018 -0.004,-5.108 22.205,-0.018 z"
       fill="#f2e3d1"
       id="path321" /><path
       d="m 200.497,245.209 -19.738,0.017 -0.003,-3.25 19.739,-0.017 z"
       fill="#f2e3d1"
       id="path322" /><path
       d="m 200.508,258.347 -19.738,0.016 -0.003,-3.25 19.738,-0.017 z"
       fill="#f2e3d1"
       id="path323" /><path
       d="m 200.565,326.763 -19.739,0.017 -0.003,-3.253 19.739,-0.016 z"
       fill="#f2e3d1"
       id="path324" /><path
       d="m 200.576,339.901 -19.739,0.016 -0.003,-3.253 19.739,-0.016 z"
       fill="#f2e3d1"
       id="path325" /><path
       d="m 68.857,351.09 -20.6978,0.017 -0.0161,-19.355 c 3.1519,-0.01 5.702,-2.57 5.6993,-5.725 -5e-4,-0.699 -0.1254,-1.37 -0.3551,-1.989 l 4.2049,-0.003 -0.0198,-23.893 v -0.031 c -0.0035,-4.265 -4.282,-7.719 -9.5619,-7.719 l -0.0147,-17.85 c 3.1518,-0.01 5.7019,-2.573 5.6992,-5.725 -5e-4,-0.7 -0.1254,-1.37 -0.3575,-1.989 l 4.2073,-0.004 -0.0198,-23.892 V 242.9 c -0.0035,-4.264 -4.282,-7.718 -9.5619,-7.719 L 48.0416,209.2 68.7395,209.183 Z"
       fill="#c16d46"
       id="path326" /><path
       d="m 269.395,350.923 -20.696,0.017 -0.118,-141.906 20.697,-0.018 0.021,25.985 c -0.084,-0.003 -0.165,-0.003 -0.245,-0.003 -5.284,0.005 -9.564,3.468 -9.561,7.735 v 0.032 l 0.02,23.892 4.199,-0.004 c -0.229,0.62 -0.356,1.291 -0.356,1.99 0.003,3.158 2.569,5.718 5.727,5.716 0.084,-10e-4 0.165,-0.003 0.249,-0.006 l 0.015,17.858 c -0.084,-0.002 -0.165,-0.002 -0.246,-0.002 -5.284,0.004 -9.564,3.467 -9.56,7.735 v 0.031 l 0.02,23.892 4.199,-0.003 c -0.23,0.619 -0.357,1.29 -0.356,1.99 0.002,3.16 2.569,5.718 5.727,5.715 0.083,0 0.164,-0.003 0.248,-0.005 z"
       fill="#c16d46"
       id="path327" /><path
       d="m 117.327,368.941 17.546,-0.015 -0.133,-159.852 -17.546,0.015 z"
       fill="#fcf5eb"
       id="path328" /><path
       d="m 138.723,217.071 -25.498,0.021 -0.007,-8 25.498,-0.021 z"
       fill="#f2e3d1"
       id="path329" /><path
       d="m 114.997,368.943 22.206,-0.019 -0.004,-5.108 -22.207,0.019 z"
       fill="#f2e3d1"
       id="path330" /><path
       d="m 135.868,245.622 -19.74,0.016 -0.003,-3.252 19.74,-0.017 z"
       fill="#f2e3d1"
       id="path331" /><path
       d="m 135.879,258.759 -19.74,0.017 -0.003,-3.253 19.74,-0.016 z"
       fill="#f2e3d1"
       id="path332" /><path
       d="m 135.935,327.173 -19.74,0.017 -0.002,-3.25 19.739,-0.017 z"
       fill="#f2e3d1"
       id="path333" /><path
       d="m 135.946,340.311 -19.74,0.016 -0.003,-3.253 19.74,-0.016 z"
       fill="#f2e3d1"
       id="path334" /><path
       d="m 267.635,375.192 -217.9456,0.181 0.0069,8.363 217.9457,-0.181 z"
       fill="#1e2c5c"
       id="path335" /><path
       d="m 70.0962,358.079 -113.085,0.093 -0.0058,-6.99 113.085,-0.094 z"
       fill="#f2e3d1"
       id="path336" /><path
       d="m 360.279,357.839 -113.087,0.093 -0.006,-6.99 113.087,-0.094 z"
       fill="#f2e3d1"
       id="path337" /><path
       d="m 165.269,278.157 c 0.004,4.04 -3.268,7.318 -7.306,7.321 -4.038,0.003 -7.313,-3.268 -7.316,-7.308 -0.004,-4.038 3.266,-7.315 7.304,-7.319 4.038,-0.003 7.315,3.269 7.318,7.306 z"
       fill="#b75742"
       id="path338" /><path
       d="m 170.165,245.026 c -0.005,-5.455 -5.486,-9.873 -12.238,-9.868 -6.754,0.006 -12.225,4.433 -12.22,9.888 v 0.041 l 0.025,30.546 24.458,-0.02 -0.025,-30.546 h -0.003 z"
       fill="#fcf5eb"
       id="path339" /><path
       d="m 168.254,245.641 c -0.004,-4.781 -4.628,-8.654 -10.325,-8.649 -5.703,0.005 -10.318,3.885 -10.314,8.667 v 0.036 l 0.024,28.059 20.638,-0.017 -0.023,-28.059 z"
       fill="#3e6193"
       id="path340" /><path
       d="m 157.478,275.331 0.911,-0.001 -0.033,-39.921 -0.912,0.001 z"
       fill="#fcf5eb"
       id="path341" /><path
       d="m 173.133,278.151 -30.134,0.025 -0.002,-2.541 30.133,-0.025 z"
       fill="#f2e3d1"
       id="path342" /><path
       d="m 146.545,250.706 -10e-4,-0.914 22.739,-0.019 0.001,0.914 z"
       fill="#fcf5eb"
       id="path343" /><path
       d="m 146.555,262.492 -0.001,-0.911 22.739,-0.019 v 0.911 z"
       fill="#fcf5eb"
       id="path344" /><path
       d="m 19.2734,268.845 c 0.0026,3.158 -2.5572,5.723 -5.7139,5.725 -3.1592,0.003 -5.72324,-2.558 -5.72586,-5.715 -0.00262,-3.16 2.55716,-5.722 5.71636,-5.725 3.1567,-0.003 5.7208,2.555 5.7234,5.715 z"
       fill="#b75742"
       id="path345" /><path
       d="m 23.1036,242.929 c -0.0036,-4.267 -4.2893,-7.723 -9.5741,-7.719 -5.28234,0.004 -9.56213,3.468 -9.5586,7.735 l 5.2e-4,0.031 h -4.9e-4 l 0.01979,23.892 19.13268,-0.015 -0.0198,-23.893 z"
       fill="#fcf5eb"
       id="path346" /><path
       d="m 21.6096,243.41 c -0.0031,-3.74 -3.6206,-6.77 -8.0791,-6.766 -4.45836,0.003 -8.0689,3.039 -8.0658,6.78 l 2.7e-4,0.029 h -2.4e-4 l 0.01818,21.949 16.14489,-0.014 -0.0182,-21.948 z"
       fill="#3e6193"
       id="path347" /><path
       d="m 13.1797,266.634 0.7142,-0.001 -0.0258,-31.228 h -0.7143 z"
       fill="#fcf5eb"
       id="path348" /><path
       d="M 25.4261,268.84 1.85303,268.86 1.85138,266.87 25.4244,266.851 Z"
       fill="#f2e3d1"
       id="path349" /><path
       d="m 4.62744,247.372 17.78486,-0.015 -6e-4,-0.714 -17.78485,0.014 z"
       fill="#fcf5eb"
       id="path350" /><path
       d="m 4.63525,256.593 17.78485,-0.015 -6e-4,-0.714 -17.78484,0.015 z"
       fill="#fcf5eb"
       id="path351" /><path
       d="m 10.9851,265.397 -5.50219,0.005 -0.0073,-8.809 7.69609,-0.007 0.0041,4.999 c -0.774,1.346 -1.5116,2.632 -2.1907,3.812 z m 2.9039,-5.054 -0.0031,-3.757 2.1622,-0.002 c -0.7327,1.273 -1.4581,2.537 -2.1591,3.759 z"
       fill="#63a3ee"
       id="path352" /><path
       d="m 13.1758,261.584 -0.0042,-4.998 h 0.7143 l 0.0031,3.757 c -0.241,0.417 -0.4795,0.832 -0.7132,1.241 z"
       fill="#fdf8f0"
       id="path353" /><path
       d="m 16.4595,255.869 -2.5741,0.002 -0.0071,-8.507 7.486,-0.006 c -1.5335,2.654 -3.2301,5.601 -4.9048,8.511 z m -3.2883,0.003 -7.6961,0.006 -0.00151,-1.816 4.33879,-6.694 3.35172,-0.003 z m 8.4411,-9.229 -7.7346,0.007 -0.0046,-5.547 2.5904,-3.999 c 2.8674,0.937 4.9412,3.208 5.1312,5.904 v 0.002 c 0.0024,0.02 0.0049,0.042 0.0049,0.064 v 0.002 c 0,0.01 0.0025,0.022 0.0025,0.032 v 0.002 c 0,0.01 0,0.02 0.0024,0.03 0,0 0,0.002 0,0.005 10e-5,0.009 10e-5,0.019 10e-5,0.029 0,0.002 0,0.002 0,0.005 0,0.009 0.0024,0.017 0.0024,0.027 0,0.002 0,0.002 0,0.004 0,0.01 10e-5,0.02 10e-5,0.03 0,0.002 0,0.005 0,0.007 0,0.007 0,0.017 0,0.024 0,0.003 0,0.005 0.0024,0.005 0,0.01 0,0.02 10e-5,0.029 0,0.003 0,0.005 0,0.008 0,0.01 0,0.019 0,0.027 0,0.002 0,0.002 0,0.005 0,0.009 0,0.019 0,0.029 0,0.002 0,0.005 0,0.007 0,0.01 0,0.02 0,0.029 l 10e-5,0.03 z m -8.4488,0.007 -2.8886,0.003 2.8849,-4.45 z"
       fill="#63a3ee"
       id="path354" /><path
       d="m 13.8851,255.871 -0.7142,0.001 -0.007,-8.507 0.7142,-0.001 z m -0.0076,-9.221 h -0.7142 l -0.0037,-4.447 0.7133,-1.1 z"
       fill="#fdf8f0"
       id="path355" /><path
       d="m 21.3639,247.358 -11.55189,0.009 0.46259,-0.714 11.3373,-0.01 3e-4,0.283 c -0.0828,0.142 -0.1655,0.285 -0.2483,0.432 z"
       fill="#fdf8f0"
       id="path356" /><path
       d="m 16.048,256.584 -10.57241,0.009 -6e-4,-0.715 10.98441,-0.009 c -0.1363,0.237 -0.2726,0.476 -0.4114,0.715 z"
       fill="#fdf8f0"
       id="path357" /><path
       d="m 53.7949,268.817 c 0.0026,3.157 -2.5548,5.722 -5.7139,5.724 -3.1592,0.003 -5.7208,-2.557 -5.7234,-5.715 -0.0027,-3.16 2.5547,-5.722 5.7139,-5.725 3.1591,-0.002 5.7208,2.556 5.7234,5.716 z"
       fill="#b75742"
       id="path358" /><path
       d="m 57.6248,242.9 c -0.0035,-4.267 -4.2893,-7.723 -9.5716,-7.719 -5.2824,0.005 -9.5624,3.468 -9.5589,7.735 l 10e-5,0.032 0.0198,23.892 19.1304,-0.016 -0.0198,-23.892 z"
       fill="#fcf5eb"
       id="path359" /><path
       d="m 56.1335,243.382 c -0.0031,-3.741 -3.6206,-6.771 -8.079,-6.767 -4.4584,0.004 -8.0709,3.04 -8.0678,6.78 v 0.029 l 0.0182,21.949 16.1468,-0.013 -0.0182,-21.949 h -0.0024 z"
       fill="#3e6193"
       id="path360" /><path
       d="m 47.7017,266.605 h 0.7142 l -0.0259,-31.229 -0.7142,0.001 z"
       fill="#fcf5eb"
       id="path361" /><path
       d="m 59.9473,268.812 -23.5718,0.019 -0.0017,-1.99 23.5718,-0.019 z"
       fill="#f2e3d1"
       id="path362" /><path
       d="m 39.1489,247.343 17.7873,-0.014 -6e-4,-0.715 -17.7873,0.015 z"
       fill="#fcf5eb"
       id="path363" /><path
       d="m 39.1567,256.564 17.7873,-0.014 -5e-4,-0.715 -17.7874,0.015 z"
       fill="#fcf5eb"
       id="path364" /><path
       d="m 45.509,265.368 -5.5041,0.005 -0.0073,-8.809 7.6956,-0.007 0.0041,4.999 c -0.774,1.346 -1.5116,2.632 -2.1883,3.812 z m 2.9015,-5.054 -0.0031,-3.757 2.1646,-0.002 c -0.7327,1.273 -1.458,2.537 -2.1615,3.759 z"
       fill="#63a3ee"
       id="path365" /><path
       d="m 47.6973,261.556 -0.0042,-4.998 0.7142,-10e-4 0.0032,3.757 c -0.241,0.417 -0.4771,0.832 -0.7132,1.242 z"
       fill="#fdf8f0"
       id="path366" /><path
       d="m 50.9834,255.84 -2.5765,0.002 -0.0071,-8.507 7.486,-0.006 c -1.5335,2.654 -3.2301,5.601 -4.9024,8.511 z m -3.2908,0.003 -7.6955,0.006 -0.0015,-1.816 4.3383,-6.694 3.3517,-0.003 z m 8.4436,-9.228 -7.737,0.006 -0.0046,-5.547 2.5928,-3.998 c 2.8674,0.936 4.9413,3.207 5.1312,5.903 v 0.003 c 0,0.019 0.0025,0.041 0.0049,0.063 v 0.003 c 0,0.009 1e-4,0.021 1e-4,0.031 v 0.003 c 0.0024,0.009 0.0024,0.019 0.0024,0.029 0,0 0,0.002 0,0.005 0,0.01 0,0.019 0.0025,0.029 0,0.002 0,0.002 0,0.005 0,0.01 0,0.017 0,0.027 0,0.002 0,0.002 0,0.005 0,0.009 0,0.019 0.0025,0.029 0,0.002 0,0.005 0,0.007 0,0.008 0,0.017 0,0.025 0,0.002 0,0.004 0,0.004 0,0.01 0,0.02 0,0.03 0,0.002 0,0.005 0,0.007 1e-4,0.01 1e-4,0.02 1e-4,0.027 0,0.002 0,0.002 0,0.005 0,0.009 0,0.019 0.0024,0.029 0,0.002 0,0.005 0,0.007 0,0.01 1e-4,0.02 1e-4,0.03 l -0.0025,0.029 h 0.0025 z m -8.4512,0.007 -2.8861,0.002 2.8824,-4.45 z"
       fill="#63a3ee"
       id="path367" /><path
       d="m 48.4066,255.842 -0.7142,10e-4 -0.0071,-8.507 0.7143,-0.001 z m -0.0076,-9.221 -0.7143,0.001 -0.0036,-4.448 0.7133,-1.1 z"
       fill="#fdf8f0"
       id="path368" /><path
       d="m 55.8859,247.329 -11.5519,0.01 0.465,-0.715 11.3374,-0.009 2e-4,0.283 c -0.0828,0.141 -0.1655,0.285 -0.2507,0.431 z"
       fill="#fdf8f0"
       id="path369" /><path
       d="m 50.572,256.555 -10.5744,0.009 -6e-4,-0.714 10.9863,-0.01 c -0.1387,0.237 -0.275,0.476 -0.4113,0.715 z"
       fill="#fdf8f0"
       id="path370" /><path
       d="m 19.3208,326.056 c 0.0026,3.16 -2.5572,5.722 -5.714,5.725 -3.1591,0.002 -5.72318,-2.556 -5.7258,-5.716 -0.00261,-3.16 2.5572,-5.722 5.7164,-5.724 3.1567,-0.003 5.7207,2.555 5.7234,5.715 z"
       fill="#b75742"
       id="path371" /><path
       d="m 23.1509,300.139 c -0.0035,-4.267 -4.2893,-7.723 -9.574,-7.719 -5.28238,0.005 -9.56217,3.468 -9.55863,7.735 l 5.1e-4,0.032 h -4.9e-4 l 0.0198,23.892 19.13261,-0.016 -0.0198,-23.892 z"
       fill="#fcf5eb"
       id="path372" /><path
       d="m 21.6569,300.621 c -0.0031,-3.74 -3.6206,-6.771 -8.079,-6.767 -4.4584,0.004 -8.06893,3.04 -8.06583,6.78 l 2.6e-4,0.029 h -2.4e-4 l 0.01818,21.949 16.14483,-0.013 -0.0182,-21.949 z"
       fill="#3e6193"
       id="path373" /><path
       d="m 13.2271,323.844 h 0.7142 l -0.0259,-31.229 -0.7142,10e-4 z"
       fill="#fcf5eb"
       id="path374" /><path
       d="M 25.4734,326.051 1.90039,326.07 1.89874,324.081 25.4718,324.061 Z"
       fill="#f2e3d1"
       id="path375" /><path
       d="m 4.6748,304.582 17.7848,-0.014 -5e-4,-0.715 -17.78489,0.015 z"
       fill="#fcf5eb"
       id="path376" /><path
       d="m 4.68262,313.804 17.78488,-0.015 -6e-4,-0.714 -17.78487,0.014 z"
       fill="#fcf5eb"
       id="path377" /><path
       d="m 11.0325,322.608 -5.50223,0.004 -0.00729,-8.809 7.69602,-0.006 0.0042,4.998 c -0.7741,1.347 -1.5116,2.632 -2.1907,3.813 z m 2.9039,-5.055 -0.0031,-3.757 2.1621,-0.002 c -0.7326,1.274 -1.458,2.537 -2.159,3.759 z"
       fill="#63a3ee"
       id="path378" /><path
       d="m 13.2231,318.795 -0.0041,-4.998 0.7142,-0.001 0.0031,3.757 c -0.2409,0.417 -0.4795,0.832 -0.7132,1.242 z"
       fill="#fdf8f0"
       id="path379" /><path
       d="m 16.5069,313.08 -2.5742,0.002 -0.007,-8.507 7.4859,-0.006 c -1.5335,2.654 -3.2301,5.6 -4.9047,8.511 z m -3.2884,0.002 -7.69604,0.007 -0.0015,-1.817 4.33878,-6.694 3.35176,-0.003 z m 8.4412,-9.228 -7.7346,0.006 -0.0046,-5.547 2.5903,-3.998 c 2.8455,0.929 4.9072,3.17 5.1263,5.838 0.0025,0.022 0.0049,0.044 0.0049,0.066 v 0.002 c 0.0025,0.022 0.005,0.041 0.005,0.063 v 0.003 c 0,0.012 0.0024,0.022 0.0024,0.031 v 0.003 c 0,0.01 10e-5,0.019 0.0025,0.029 0,0 0,0.003 0,0.005 0,0.01 0,0.02 0,0.029 0,0.003 0,0.003 0,0.005 0,0.01 0.0025,0.017 0.0025,0.027 0,0.002 0,0.002 0,0.005 0,0.01 0,0.019 0,0.029 0,0.003 0,0.005 0,0.007 0,0.008 0,0.018 0,0.025 10e-5,0.002 10e-5,0.005 0.0025,0.005 0,0.009 0,0.019 0,0.029 0,0.002 0,0.005 0,0.007 0,0.01 0,0.02 0,0.027 0,0.003 0,0.003 0,0.005 10e-5,0.01 10e-5,0.019 10e-5,0.029 0,0.003 0,0.005 0,0.008 0,0.009 0,0.019 0,0.029 v 0.029 z m -8.4488,0.007 -2.8886,0.002 2.8849,-4.449 z"
       fill="#63a3ee"
       id="path380" /><path
       d="m 13.9325,313.081 -0.7142,10e-4 -0.0071,-8.507 0.7142,-10e-4 z m -0.0077,-9.221 -0.7142,10e-4 -0.0037,-4.448 0.7134,-1.1 z"
       fill="#fdf8f0"
       id="path381" /><path
       d="m 21.4113,304.568 -11.55192,0.01 0.46252,-0.715 11.3374,-0.009 2e-4,0.283 c -0.0827,0.143 -0.1655,0.285 -0.2482,0.431 z"
       fill="#fdf8f0"
       id="path382" /><path
       d="m 16.0954,313.794 -10.57245,0.009 -5.9e-4,-0.714 10.98444,-0.01 c -0.1363,0.24 -0.2727,0.476 -0.4114,0.715 z"
       fill="#fdf8f0"
       id="path383" /><path
       d="m 53.8423,326.027 c 0.0026,3.16 -2.5548,5.722 -5.714,5.725 -3.1591,0.003 -5.7208,-2.555 -5.7234,-5.715 -0.0026,-3.16 2.5548,-5.722 5.714,-5.725 3.1591,-0.003 5.7207,2.555 5.7234,5.715 z"
       fill="#b75742"
       id="path384" /><path
       d="m 57.6722,300.111 c -0.0036,-4.267 -4.2893,-7.724 -9.5717,-7.719 -5.2823,0.004 -9.5623,3.468 -9.5588,7.734 v 0.032 l 0.0198,23.892 19.1305,-0.016 -0.0198,-23.892 z"
       fill="#fcf5eb"
       id="path385" /><path
       d="m 56.1808,300.592 c -0.0031,-3.74 -3.6206,-6.77 -8.079,-6.766 -4.4584,0.003 -8.0709,3.039 -8.0678,6.78 l 1e-4,0.029 0.0181,21.949 16.1469,-0.014 -0.0182,-21.949 h -0.0025 z"
       fill="#3e6193"
       id="path386" /><path
       d="m 47.749,323.816 0.7143,-10e-4 -0.0259,-31.228 h -0.7142 z"
       fill="#fcf5eb"
       id="path387" /><path
       d="m 59.9951,326.022 -23.5718,0.02 -0.0016,-1.99 23.5718,-0.02 z"
       fill="#f2e3d1"
       id="path388" /><path
       d="m 39.1963,304.554 17.7873,-0.015 -6e-4,-0.714 -17.7873,0.014 z"
       fill="#fcf5eb"
       id="path389" /><path
       d="m 39.2041,313.775 17.7873,-0.015 -6e-4,-0.714 -17.7873,0.015 z"
       fill="#fcf5eb"
       id="path390" /><path
       d="m 45.5564,322.579 -5.5042,0.005 -0.0073,-8.81 7.6956,-0.006 0.0042,4.998 c -0.7741,1.347 -1.5116,2.633 -2.1883,3.813 z m 2.9015,-5.054 -0.0032,-3.758 2.1647,-10e-4 c -0.7327,1.273 -1.4581,2.537 -2.1615,3.759 z"
       fill="#63a3ee"
       id="path391" /><path
       d="m 47.7446,318.766 -0.0041,-4.998 0.7142,-10e-4 0.0031,3.758 c -0.241,0.419 -0.4771,0.832 -0.7132,1.241 z"
       fill="#fdf8f0"
       id="path392" /><path
       d="m 51.0308,313.051 -2.5766,0.002 -0.007,-8.507 7.4859,-0.006 c -1.5335,2.654 -3.2301,5.601 -4.9023,8.511 z m -3.2908,0.002 -7.6956,0.007 -0.0015,-1.817 4.3383,-6.694 3.3518,-0.003 z m 8.4436,-9.228 -7.737,0.007 -0.0046,-5.547 2.5928,-3.999 c 2.843,0.929 4.9071,3.171 5.1262,5.838 0,0 0,0 0,0.002 0.0025,0.02 0.0025,0.042 0.005,0.064 v 0.002 c 0,0.022 0.0024,0.042 0.0049,0.064 v 0.002 c 0,0.012 0,0.022 0,0.032 v 0.002 c 0.0025,0.01 0.0025,0.02 0.0025,0.029 0,0 0,0.003 0,0.005 0,0.01 0,0.02 0.0025,0.029 0,0.003 0,0.003 0,0.005 0,0.01 0,0.017 0,0.027 0,0.003 0,0.003 0,0.005 0,0.01 0,0.02 0.0024,0.029 0,0.003 0,0.005 1e-4,0.008 0,0.007 0,0.017 0,0.024 0,0.002 0,0.005 0,0.005 0,0.01 0,0.019 0,0.029 0,0.003 0,0.005 0,0.007 0,0.01 0,0.02 0,0.027 0,0.003 0,0.003 0,0.005 0,0.01 0,0.02 0.0025,0.029 0,0.003 0,0.005 0,0.008 0,0.009 0,0.019 0,0.029 l -0.0024,0.029 h 0.0024 z m -8.4512,0.007 -2.8862,0.002 2.8825,-4.449 z"
       fill="#63a3ee"
       id="path393" /><path
       d="m 48.454,313.053 h -0.7143 l -0.007,-8.506 0.7142,-0.001 z m -0.0077,-9.221 h -0.7142 l -0.0037,-4.447 0.7133,-1.1 z"
       fill="#fdf8f0"
       id="path394" /><path
       d="m 55.9332,304.54 -11.5519,0.009 0.465,-0.714 11.3374,-0.01 3e-4,0.283 c -0.0828,0.144 -0.1656,0.285 -0.2508,0.432 z"
       fill="#fdf8f0"
       id="path395" /><path
       d="m 50.6193,313.766 -10.5744,0.008 -6e-4,-0.714 10.9864,-0.009 c -0.1388,0.239 -0.2751,0.476 -0.4114,0.715 z"
       fill="#fdf8f0"
       id="path396" /><path
       d="m 274.798,268.633 c 0.003,3.158 -2.559,5.722 -5.713,5.725 -3.16,0.003 -5.723,-2.558 -5.725,-5.715 -0.003,-3.16 2.555,-5.722 5.716,-5.725 3.154,-0.003 5.719,2.555 5.722,5.715 z"
       fill="#b75742"
       id="path397" /><path
       d="m 278.627,242.717 c -0.004,-4.267 -4.289,-7.723 -9.575,-7.719 -5.283,0.005 -9.563,3.468 -9.559,7.735 v 0.031 l 0.02,23.893 19.133,-0.016 -0.019,-23.892 z"
       fill="#fcf5eb"
       id="path398" /><path
       d="m 277.133,243.199 c -0.003,-3.741 -3.619,-6.771 -8.078,-6.767 -4.457,0.003 -8.068,3.039 -8.065,6.78 v 0.029 l 0.018,21.949 16.144,-0.013 -0.019,-21.949 z"
       fill="#3e6193"
       id="path399" /><path
       d="m 269.416,266.422 -0.715,10e-4 -0.026,-31.229 h 0.715 z"
       fill="#fcf5eb"
       id="path400" /><path
       d="m 280.949,268.629 -23.572,0.019 -0.002,-1.989 23.572,-0.02 z"
       fill="#f2e3d1"
       id="path401" /><path
       d="m 260.151,247.16 v -0.714 l 17.783,-0.015 10e-4,0.715 z"
       fill="#fcf5eb"
       id="path402" /><path
       d="m 260.159,256.382 v -0.715 l 17.783,-0.014 10e-4,0.714 z"
       fill="#fcf5eb"
       id="path403" /><path
       d="m 266.511,265.185 -5.501,0.004 -0.007,-8.809 7.695,-0.006 0.005,4.998 c -0.777,1.347 -1.512,2.632 -2.192,3.813 z m 2.902,-5.054 -0.003,-3.758 2.164,-0.002 c -0.733,1.274 -1.459,2.537 -2.161,3.76 z"
       fill="#63a3ee"
       id="path404" /><path
       d="m 268.697,261.373 -0.004,-4.998 0.715,-10e-4 0.003,3.758 c -0.242,0.417 -0.478,0.831 -0.714,1.241 z"
       fill="#fdf8f0"
       id="path405" /><path
       d="m 271.984,255.657 -2.576,0.003 -0.007,-8.508 7.486,-0.006 c -1.531,2.654 -3.23,5.601 -4.903,8.511 z m -3.289,0.003 -7.695,0.007 -10e-4,-1.817 4.337,-6.694 3.352,-0.003 z m 8.441,-9.228 -7.735,0.006 -0.005,-5.547 2.591,-3.998 c 2.866,0.936 4.942,3.207 5.13,5.903 v 0.003 c 0.003,0.022 0.007,0.041 0.007,0.063 v 0.003 c 0,0.009 0.003,0.022 0.003,0.031 0,0 0,0 0,0.003 0,0.009 0,0.019 0,0.029 0,0.002 0,0.002 0,0.005 0,0.01 0,0.019 0,0.029 0,0.003 0,0.003 0,0.005 0,0.01 0.003,0.017 0.003,0.027 0,0.002 0,0.002 0,0.005 0,0.009 0,0.019 0,0.029 0,0.003 0,0.005 0,0.005 0,0.01 0,0.019 0.003,0.029 v 0.003 c 0,0.009 0,0.019 0,0.029 0,0.002 0,0.005 0,0.007 0,0.01 0,0.019 0,0.027 0,0.002 0,0.002 0,0.005 0,0.01 0,0.019 0,0.029 0,0.002 0,0.005 0,0.007 0,0.01 0,0.02 0,0.03 v 0.029 z m -8.449,0.007 -2.887,0.002 2.884,-4.45 z"
       fill="#63a3ee"
       id="path406" /><path
       d="m 269.407,255.66 h -0.715 l -0.007,-8.507 h 0.715 z m -0.007,-9.221 h -0.715 l -0.004,-4.447 0.714,-1.1 z"
       fill="#fdf8f0"
       id="path407" /><path
       d="m 276.887,247.146 -7.486,0.006 -0.713,0.001 -3.352,0.003 0.463,-0.715 2.888,-0.002 0.713,-0.001 7.736,-0.006 v 0.282 c -0.082,0.142 -0.167,0.286 -0.249,0.432 z"
       fill="#fdf8f0"
       id="path408" /><path
       d="m 271.571,256.372 -2.163,0.002 -0.712,10e-4 -7.698,0.006 -10e-4,-0.714 7.698,-0.007 h 0.713 l 2.574,-0.002 c -0.137,0.236 -0.271,0.475 -0.411,0.714 z"
       fill="#fdf8f0"
       id="path409" /><path
       d="m 220.788,268.678 c 0.003,3.158 -2.555,5.723 -5.714,5.725 -3.158,0.003 -5.721,-2.558 -5.723,-5.715 -0.003,-3.16 2.555,-5.722 5.714,-5.725 3.159,-0.002 5.721,2.555 5.723,5.715 z"
       fill="#b75742"
       id="path410" /><path
       d="m 224.618,242.762 c -0.004,-4.266 -4.289,-7.723 -9.571,-7.718 -5.283,0.004 -9.564,3.467 -9.561,7.734 v 0.032 l 0.02,23.892 19.131,-0.016 -0.019,-23.892 z"
       fill="#fcf5eb"
       id="path411" /><path
       d="m 223.128,243.243 c -0.003,-3.74 -3.621,-6.77 -8.079,-6.766 -4.457,0.003 -8.07,3.039 -8.067,6.78 l 0.003,0.029 h -0.003 l 0.018,21.949 16.146,-0.014 -0.018,-21.949 z"
       fill="#3e6193"
       id="path412" /><path
       d="m 215.411,266.466 -0.714,10e-4 -0.026,-31.229 0.714,-0.001 z"
       fill="#fcf5eb"
       id="path413" /><path
       d="m 226.943,268.673 -23.573,0.019 -0.002,-1.989 23.574,-0.02 z"
       fill="#f2e3d1"
       id="path414" /><path
       d="m 206.146,247.205 -10e-4,-0.714 17.784,-0.015 0.001,0.714 z"
       fill="#fcf5eb"
       id="path415" /><path
       d="m 206.153,256.427 v -0.715 l 17.784,-0.015 10e-4,0.715 z"
       fill="#fcf5eb"
       id="path416" /><path
       d="m 212.505,265.23 -5.503,0.004 -0.007,-8.809 7.693,-0.007 0.004,4.999 c -0.771,1.346 -1.51,2.632 -2.187,3.813 z m 2.901,-5.055 -0.003,-3.757 2.165,-0.002 c -0.733,1.273 -1.457,2.537 -2.162,3.759 z"
       fill="#63a3ee"
       id="path417" /><path
       d="m 214.693,261.417 -0.004,-4.998 0.713,-10e-4 0.004,3.757 c -0.242,0.418 -0.477,0.832 -0.713,1.242 z"
       fill="#fdf8f0"
       id="path418" /><path
       d="m 217.977,255.702 -2.576,0.002 -0.007,-8.507 7.485,-0.006 c -1.534,2.654 -3.229,5.601 -4.902,8.511 z m -3.291,0.003 -7.694,0.006 -0.002,-1.816 4.339,-6.694 3.35,-0.003 z m 8.444,-9.229 -7.737,0.007 -0.004,-5.547 2.592,-3.998 c 2.868,0.936 4.941,3.207 5.132,5.903 v 0.002 c 0.003,0.02 0.003,0.042 0.006,0.064 v 0.002 c 0,0.012 0,0.022 0,0.032 0,0 0,0 0,0.002 0,0.01 0,0.02 0,0.03 0,0.002 0,0.002 0,0.004 0,0.01 0,0.02 0.003,0.03 0,0.002 0,0.002 0,0.005 0,0.009 0,0.017 0,0.026 0,0.003 0,0.003 0,0.005 0,0.01 0,0.02 0.003,0.03 0,0.002 0,0.004 0,0.004 0,0.01 0,0.02 0,0.03 v 0.002 c 0,0.01 0,0.02 0,0.029 0,0.003 0,0.005 0,0.008 0,0.009 0,0.019 0,0.026 0,0.003 0,0.003 0,0.005 0,0.01 0.003,0.02 0.003,0.03 0,0.002 0,0.005 0,0.007 0,0.01 0,0.019 0,0.029 v 0.029 z m -8.451,0.007 -2.887,0.003 2.883,-4.45 z"
       fill="#63a3ee"
       id="path419" /><path
       d="m 215.402,255.704 h -0.714 l -0.007,-8.507 h 0.714 z m -0.007,-9.221 h -0.714 l -0.004,-4.447 0.713,-1.1 z"
       fill="#fdf8f0"
       id="path420" /><path
       d="m 222.879,247.191 -7.485,0.006 -0.715,0.001 -3.35,0.002 0.463,-0.714 2.887,-0.003 h 0.714 l 7.737,-0.007 0.001,0.283 c -0.082,0.142 -0.167,0.285 -0.252,0.432 z"
       fill="#fdf8f0"
       id="path421" /><path
       d="m 217.567,256.417 -2.165,0.002 h -0.715 l -7.695,0.007 v -0.715 l 7.695,-0.006 0.715,-0.001 2.575,-0.002 c -0.14,0.237 -0.276,0.476 -0.41,0.715 z"
       fill="#fdf8f0"
       id="path422" /><path
       d="m 220.838,328.044 c 0.002,3.16 -2.556,5.725 -5.714,5.728 -3.159,0.002 -5.721,-2.558 -5.724,-5.718 -0.003,-3.158 2.555,-5.722 5.714,-5.725 3.159,-0.003 5.721,2.558 5.724,5.715 z"
       fill="#b75742"
       id="path423" /><path
       d="m 224.666,302.128 c -0.003,-4.267 -4.288,-7.721 -9.57,-7.716 -5.283,0.004 -9.565,3.465 -9.561,7.732 v 0.032 l 0.02,23.894 19.131,-0.016 -0.02,-23.894 z"
       fill="#fcf5eb"
       id="path424" /><path
       d="m 223.177,302.609 c -0.003,-3.74 -3.621,-6.768 -8.079,-6.764 -4.457,0.004 -8.07,3.037 -8.067,6.778 l 0.002,0.029 h -0.002 l 0.018,21.949 16.146,-0.014 -0.018,-21.948 z"
       fill="#3e6193"
       id="path425" /><path
       d="m 215.46,325.832 -0.713,0.001 -0.026,-31.227 h 0.713 z"
       fill="#fcf5eb"
       id="path426" /><path
       d="m 226.993,328.039 -23.574,0.019 -0.001,-1.987 23.573,-0.019 z"
       fill="#f2e3d1"
       id="path427" /><path
       d="m 206.195,306.571 -0.001,-0.715 17.785,-0.014 v 0.714 z"
       fill="#fcf5eb"
       id="path428" /><path
       d="m 206.202,315.792 v -0.714 l 17.784,-0.015 v 0.715 z"
       fill="#fcf5eb"
       id="path429" /><path
       d="m 212.554,324.596 -5.503,0.004 -0.007,-8.809 7.694,-0.006 0.004,4.998 c -0.772,1.349 -1.511,2.634 -2.188,3.813 z m 2.901,-5.055 -0.003,-3.757 2.165,-0.002 c -0.732,1.276 -1.457,2.537 -2.162,3.759 z"
       fill="#63a3ee"
       id="path430" /><path
       d="m 214.742,320.783 -0.004,-4.998 0.714,-0.001 0.003,3.757 c -0.241,0.42 -0.477,0.835 -0.713,1.242 z"
       fill="#fdf8f0"
       id="path431" /><path
       d="m 218.026,315.068 -2.576,0.002 -0.007,-8.507 7.486,-0.006 c -1.535,2.656 -3.23,5.601 -4.903,8.511 z m -3.29,0.003 -7.695,0.006 -0.001,-1.816 4.338,-6.695 3.351,-0.002 z m 8.444,-9.229 -7.737,0.007 -0.005,-5.545 2.593,-3.998 c 2.842,0.926 4.906,3.168 5.126,5.838 0.003,0.021 0.003,0.043 0.005,0.063 0,0.002 0,0.002 0,0.002 0.003,0.022 0.003,0.044 0.006,0.064 0,0.002 0,0.002 0,0.005 0,0.009 0,0.019 0,0.031 0,0.01 0,0.02 0,0.03 0,0.002 0,0.004 0,0.004 0,0.01 0,0.02 0.003,0.032 v 0.003 c 0,0.009 0,0.019 0,0.029 v 0.002 c 0,0.012 0,0.022 0.003,0.032 0,0.002 0,0.002 0,0.005 0,0.01 0,0.017 0,0.027 0,0.002 0,0.002 0,0.005 0,0.009 0,0.019 0,0.029 0,0.002 0,0.005 0,0.007 0,0.007 0,0.017 0,0.027 v 0.002 c 0,0.01 0.003,0.02 0.003,0.03 0,0.002 0,0.005 0,0.007 0,0.01 0,0.019 0,0.029 v 0.03 z m -8.452,0.007 -2.887,0.003 2.883,-4.448 z"
       fill="#63a3ee"
       id="path432" /><path
       d="m 215.451,315.069 -0.714,10e-4 -0.007,-8.507 h 0.714 z m -0.008,-9.221 -0.713,10e-4 -0.004,-4.445 0.713,-1.1 z"
       fill="#fdf8f0"
       id="path433" /><path
       d="m 222.929,306.557 -7.486,0.006 -0.714,0.001 -3.351,0.002 0.463,-0.714 2.887,-0.003 h 0.715 l 7.737,-0.007 v 0.283 c -0.082,0.144 -0.167,0.288 -0.251,0.432 z"
       fill="#fdf8f0"
       id="path434" /><path
       d="m 217.616,315.783 -2.165,0.002 h -0.715 l -7.694,0.007 -0.001,-0.715 7.695,-0.006 0.715,-0.001 2.575,-0.002 c -0.139,0.239 -0.276,0.478 -0.41,0.715 z"
       fill="#fdf8f0"
       id="path435" /><path
       d="m 107.018,268.773 c 0.003,3.157 -2.555,5.722 -5.714,5.724 -3.1566,0.003 -5.7207,-2.557 -5.7233,-5.715 -0.0026,-3.16 2.5572,-5.722 5.7143,-5.725 3.159,-0.002 5.72,2.556 5.723,5.716 z"
       fill="#b75742"
       id="path436" /><path
       d="m 110.85,242.856 c -0.003,-4.267 -4.289,-7.723 -9.574,-7.719 -5.282,0.005 -9.562,3.468 -9.5585,7.735 v 0.032 l 0.0198,23.892 19.1327,-0.016 -0.02,-23.892 h -0.002 z"
       fill="#fcf5eb"
       id="path437" /><path
       d="m 109.357,243.338 c -0.003,-3.741 -3.621,-6.771 -8.079,-6.767 -4.4588,0.004 -8.0688,3.04 -8.0657,6.78 v 0.029 l 0.0182,21.949 16.1445,-0.013 -0.018,-21.949 z"
       fill="#3e6193"
       id="path438" /><path
       d="m 100.924,266.561 h 0.715 l -0.026,-31.229 -0.715,0.001 z"
       fill="#fcf5eb"
       id="path439" /><path
       d="m 113.17,268.768 -23.5714,0.019 -0.0016,-1.989 23.572,-0.02 z"
       fill="#f2e3d1"
       id="path440" /><path
       d="m 92.3745,247.299 17.7845,-0.015 v -0.714 l -17.7851,0.015 z"
       fill="#fcf5eb"
       id="path441" /><path
       d="m 92.3823,256.521 17.7847,-0.015 v -0.715 l -17.7853,0.015 z"
       fill="#fcf5eb"
       id="path442" /><path
       d="m 98.7322,265.325 -5.5017,0.004 -0.0073,-8.809 7.6928,-0.007 0.004,4.999 c -0.774,1.346 -1.5111,2.632 -2.1878,3.813 z m 2.9018,-5.055 -0.003,-3.757 2.164,-0.002 c -0.733,1.273 -1.458,2.537 -2.161,3.759 z"
       fill="#63a3ee"
       id="path443" /><path
       d="m 100.92,261.512 -0.004,-4.999 h 0.714 l 0.004,3.757 c -0.241,0.42 -0.477,0.832 -0.714,1.242 z"
       fill="#fdf8f0"
       id="path444" /><path
       d="m 104.207,255.796 -2.577,0.002 -0.007,-8.507 7.486,-0.006 c -1.531,2.654 -3.23,5.601 -4.902,8.511 z m -3.291,0.003 -7.6933,0.006 -0.0015,-1.816 4.3382,-6.694 3.3496,-0.003 z m 8.443,-9.228 -7.737,0.006 -0.004,-5.547 2.593,-3.998 c 2.845,0.929 4.907,3.17 5.126,5.837 0.002,0.022 0.002,0.044 0.005,0.066 v 0.003 c 0.002,0.022 0.002,0.041 0.005,0.063 v 0.003 c 0,0.009 0,0.022 0.002,0.031 v 0.003 c 0,0.009 0,0.019 0,0.029 0,0 0,0.002 0,0.005 0.003,0.01 0.003,0.019 0.003,0.029 0,0.003 0,0.003 0,0.005 0,0.01 0,0.017 0,0.027 0,0.002 0,0.002 0,0.005 0.002,0.009 0.002,0.019 0.002,0.029 0,0.002 0,0.005 0,0.007 0,0.008 0,0.017 0,0.025 0,0.002 0,0.005 0,0.005 0,0.009 0,0.019 0,0.029 0,0.002 0.003,0.005 0.003,0.007 0,0.01 0,0.02 0,0.027 0,0.002 0,0.002 0,0.005 0,0.01 0,0.019 0,0.029 0,0.002 0,0.005 0,0.007 0,0.01 0,0.02 0,0.03 v 0.029 z m -8.451,0.007 -2.886,0.002 2.882,-4.45 z"
       fill="#63a3ee"
       id="path445" /><path
       d="m 101.63,255.798 -0.714,0.001 -0.008,-8.507 h 0.715 z m -0.008,-9.221 -0.714,0.001 -0.004,-4.448 0.714,-1.1 z"
       fill="#fdf8f0"
       id="path446" /><path
       d="m 109.109,247.285 -11.5499,0.01 0.4625,-0.715 11.3374,-0.009 v 0.283 c -0.083,0.141 -0.165,0.285 -0.25,0.431 z"
       fill="#fdf8f0"
       id="path447" /><path
       d="m 103.795,256.511 -10.5719,0.009 -5e-4,-0.715 10.9834,-0.009 c -0.136,0.237 -0.275,0.476 -0.411,0.715 z"
       fill="#fdf8f0"
       id="path448" /><path
       d="m 107.067,328.138 c 0.003,3.16 -2.554,5.725 -5.714,5.728 -3.1563,0.002 -5.7204,-2.558 -5.723,-5.718 -0.0026,-3.158 2.5572,-5.722 5.714,-5.725 3.159,-0.003 5.721,2.558 5.723,5.715 z"
       fill="#b75742"
       id="path449" /><path
       d="m 110.9,302.222 c -0.004,-4.267 -4.29,-7.721 -9.574,-7.716 -5.2827,0.004 -9.5627,3.465 -9.5592,7.732 v 0.031 l 0.0198,23.895 19.1334,-0.016 -0.02,-23.894 h -0.003 z"
       fill="#fcf5eb"
       id="path450" /><path
       d="m 109.406,302.703 c -0.003,-3.74 -3.621,-6.768 -8.079,-6.764 -4.4585,0.004 -8.0685,3.037 -8.0654,6.778 v 0.029 l 0.0182,21.949 16.1442,-0.014 -0.018,-21.948 z"
       fill="#3e6193"
       id="path451" /><path
       d="m 100.974,325.927 h 0.714 l -0.026,-31.227 -0.714,0.001 z"
       fill="#fcf5eb"
       id="path452" /><path
       d="m 113.22,328.133 -23.5721,0.02 -0.0016,-1.987 23.5717,-0.02 z"
       fill="#f2e3d1"
       id="path453" /><path
       d="m 92.4238,306.665 17.7852,-0.015 -0.001,-0.714 -17.7848,0.015 z"
       fill="#fcf5eb"
       id="path454" /><path
       d="m 92.4312,315.886 17.7848,-0.015 -10e-4,-0.714 -17.7844,0.015 z"
       fill="#fcf5eb"
       id="path455" /><path
       d="m 98.7815,324.69 -5.5017,0.005 -0.0073,-8.809 7.6935,-0.007 0.004,4.999 c -0.774,1.348 -1.5118,2.634 -2.1885,3.812 z m 2.9015,-5.054 -0.003,-3.757 2.164,-0.002 c -0.732,1.276 -1.458,2.537 -2.161,3.759 z"
       fill="#63a3ee"
       id="path456" /><path
       d="m 100.97,320.878 -0.004,-4.999 h 0.714 l 0.003,3.757 c -0.241,0.42 -0.477,0.834 -0.713,1.242 z"
       fill="#fdf8f0"
       id="path457" /><path
       d="m 104.255,315.162 -2.576,0.002 -0.007,-8.507 7.486,-0.006 c -1.531,2.657 -3.23,5.601 -4.903,8.511 z m -3.29,0.003 -7.6935,0.006 -0.0015,-1.816 4.3383,-6.694 3.3497,-0.003 z m 8.443,-9.229 -7.737,0.007 -0.004,-5.545 2.592,-3.998 c 2.846,0.927 4.907,3.168 5.127,5.838 0.002,0.022 0.002,0.044 0.005,0.063 0,0.002 0,0.002 0,0.005 0.002,0.019 0.002,0.041 0.005,0.061 0,0.002 0,0.002 0,0.005 0,0.009 0,0.019 0.002,0.031 0,0.01 0,0.02 0,0.03 0,0.002 0,0.005 0,0.005 0.002,0.009 0.002,0.019 0.002,0.031 v 0.003 c 0,0.009 0,0.019 0,0.029 0,0 0,0.002 0,0.005 0.003,0.01 0.003,0.019 0.003,0.029 0,0.003 0,0.003 0,0.005 0,0.01 0,0.017 0,0.027 0,0.002 0,0.002 0,0.005 0,0.009 0,0.019 0,0.029 0,0.002 0.002,0.005 0.002,0.007 0,0.008 0,0.017 0,0.027 v 0.002 c 0,0.01 0,0.02 0.001,0.03 0,0.002 0,0.005 0,0.007 0,0.01 0,0.02 0,0.029 v 0.03 z m -8.451,0.007 -2.8862,0.003 2.8822,-4.447 z"
       fill="#63a3ee"
       id="path458" /><path
       d="m 101.679,315.164 -0.714,0.001 -0.007,-8.507 0.714,-0.001 z m -0.008,-9.221 h -0.714 l -0.003,-4.444 0.713,-1.101 z"
       fill="#fdf8f0"
       id="path459" /><path
       d="m 109.158,306.651 -11.5496,0.01 0.4626,-0.715 11.337,-0.01 0.001,0.283 c -0.083,0.144 -0.166,0.288 -0.251,0.432 z"
       fill="#fdf8f0"
       id="path460" /><path
       d="m 103.844,315.877 -10.5715,0.009 -6e-4,-0.715 10.9841,-0.009 c -0.137,0.239 -0.275,0.478 -0.412,0.715 z"
       fill="#fdf8f0"
       id="path461" /><path
       d="m 309.318,268.605 c 0.003,3.158 -2.553,5.722 -5.712,5.725 -3.159,0.003 -5.723,-2.558 -5.726,-5.716 -0.003,-3.159 2.557,-5.722 5.716,-5.724 3.159,-0.003 5.72,2.555 5.722,5.715 z"
       fill="#b75742"
       id="path462" /><path
       d="m 313.147,242.689 c -0.003,-4.267 -4.288,-7.723 -9.57,-7.719 -5.285,0.005 -9.564,3.468 -9.561,7.735 v 0.032 l 0.02,23.892 19.131,-0.016 -0.02,-23.892 z"
       fill="#fcf5eb"
       id="path463" /><path
       d="m 311.658,243.17 c -0.003,-3.74 -3.62,-6.771 -8.079,-6.767 -4.459,0.004 -8.07,3.04 -8.067,6.78 v 0.03 l 0.018,21.948 16.146,-0.013 -0.018,-21.949 z"
       fill="#3e6193"
       id="path464" /><path
       d="m 303.94,266.393 h -0.713 l -0.026,-31.228 0.714,-0.001 z"
       fill="#fcf5eb"
       id="path465" /><path
       d="m 315.473,268.599 -23.572,0.02 -0.001,-1.989 23.572,-0.02 z"
       fill="#f2e3d1"
       id="path466" /><path
       d="m 294.675,247.132 -0.001,-0.715 17.785,-0.014 v 0.714 z"
       fill="#fcf5eb"
       id="path467" /><path
       d="m 294.683,256.353 -10e-4,-0.714 17.785,-0.015 v 0.714 z"
       fill="#fcf5eb"
       id="path468" /><path
       d="m 301.034,265.156 -5.504,0.005 -0.007,-8.809 7.694,-0.007 0.004,4.998 c -0.772,1.347 -1.511,2.632 -2.187,3.813 z m 2.903,-5.054 -0.003,-3.757 2.163,-0.002 c -0.732,1.273 -1.458,2.537 -2.16,3.759 z"
       fill="#63a3ee"
       id="path469" /><path
       d="m 303.223,261.344 -0.004,-4.999 h 0.713 l 0.004,3.757 c -0.243,0.417 -0.478,0.832 -0.713,1.242 z"
       fill="#fdf8f0"
       id="path470" /><path
       d="m 306.508,255.629 -2.576,0.002 -0.008,-8.507 7.484,-0.006 c -1.534,2.654 -3.229,5.6 -4.9,8.511 z m -3.29,0.002 -7.696,0.007 -0.002,-1.817 4.339,-6.694 3.352,-0.003 z m 8.442,-9.228 -7.736,0.006 -0.005,-5.547 2.594,-3.998 c 2.866,0.936 4.94,3.207 5.13,5.904 v 0.002 c 0,0.02 0,0.041 0.004,0.063 v 0.003 c 0,0.01 0,0.022 0,0.031 v 0.003 c 0.003,0.01 0.003,0.02 0.003,0.029 0,0 0,0.003 0,0.005 0,0.01 0.004,0.02 0.004,0.029 0,0.003 0,0.003 0,0.005 0,0.01 0,0.017 0,0.027 0,0.002 0,0.002 0,0.005 0,0.01 0,0.019 0,0.029 0,0.002 0,0.005 0,0.008 0,0.007 0,0.017 0,0.024 0,0.002 0,0.005 0,0.005 0,0.01 0,0.019 0,0.029 0,0.002 0,0.005 0,0.007 0,0.01 0,0.02 0.003,0.027 0,0.003 0,0.003 0,0.005 0,0.01 0,0.019 0,0.029 0,0.003 0,0.005 0,0.008 0,0.009 0,0.019 0,0.029 v 0.029 z m -8.45,0.007 -2.886,0.002 2.882,-4.45 z"
       fill="#63a3ee"
       id="path471" /><path
       d="m 303.932,255.63 -0.714,0.001 -0.007,-8.507 h 0.714 z m -0.008,-9.221 -0.714,0.001 -0.004,-4.448 0.713,-1.1 z"
       fill="#fdf8f0"
       id="path472" /><path
       d="m 311.408,247.118 -7.483,0.006 h -0.714 l -3.351,0.003 0.464,-0.715 2.886,-0.002 0.714,-0.001 7.736,-0.006 10e-4,0.283 c -0.085,0.141 -0.165,0.285 -0.253,0.432 z"
       fill="#fdf8f0"
       id="path473" /><path
       d="m 306.097,256.344 -2.165,0.002 h -0.714 l -7.697,0.007 -0.001,-0.715 7.697,-0.006 0.714,-0.001 2.576,-0.002 c -0.14,0.237 -0.277,0.476 -0.41,0.715 z"
       fill="#fdf8f0"
       id="path474" /><path
       d="m 274.845,325.844 c 0.003,3.16 -2.558,5.722 -5.713,5.725 -3.16,0.002 -5.722,-2.556 -5.725,-5.716 -0.003,-3.16 2.556,-5.722 5.716,-5.724 3.154,-0.003 5.72,2.555 5.722,5.715 z"
       fill="#b75742"
       id="path475" /><path
       d="m 278.674,299.927 c -0.003,-4.266 -4.289,-7.723 -9.575,-7.718 -5.283,0.004 -9.562,3.467 -9.559,7.734 v 0.032 l 0.02,23.892 19.134,-0.016 -0.02,-23.892 z"
       fill="#fcf5eb"
       id="path476" /><path
       d="m 277.181,300.409 c -0.003,-3.74 -3.62,-6.771 -8.079,-6.767 -4.456,0.004 -8.068,3.04 -8.065,6.78 v 0.03 l 0.019,21.948 16.143,-0.013 -0.018,-21.949 z"
       fill="#3e6193"
       id="path477" /><path
       d="m 269.464,323.632 -0.715,10e-4 -0.026,-31.229 h 0.715 z"
       fill="#fcf5eb"
       id="path478" /><path
       d="m 280.996,325.839 -23.571,0.02 -0.002,-1.99 23.572,-0.019 z"
       fill="#f2e3d1"
       id="path479" /><path
       d="m 260.199,304.371 -0.001,-0.714 17.784,-0.015 v 0.714 z"
       fill="#fcf5eb"
       id="path480" /><path
       d="m 260.207,313.592 -10e-4,-0.714 17.784,-0.015 v 0.715 z"
       fill="#fcf5eb"
       id="path481" /><path
       d="m 266.558,322.396 -5.5,0.004 -0.008,-8.809 7.696,-0.007 0.004,4.999 c -0.776,1.346 -1.512,2.632 -2.192,3.813 z m 2.903,-5.055 -0.003,-3.757 2.163,-0.002 c -0.733,1.273 -1.459,2.537 -2.16,3.759 z"
       fill="#63a3ee"
       id="path482" /><path
       d="m 268.745,318.583 -0.005,-4.998 h 0.715 l 0.004,3.757 c -0.243,0.417 -0.478,0.832 -0.714,1.241 z"
       fill="#fdf8f0"
       id="path483" /><path
       d="m 272.031,312.868 -2.575,0.002 -0.007,-8.507 7.486,-0.006 c -1.532,2.654 -3.231,5.6 -4.904,8.511 z m -3.289,0.003 -7.694,0.006 -0.002,-1.816 4.338,-6.695 3.351,-0.002 z m 8.441,-9.229 -7.735,0.007 -0.005,-5.547 2.591,-3.999 c 2.845,0.929 4.908,3.171 5.127,5.838 0.004,0.022 0.004,0.044 0.004,0.066 v 0.002 c 0.003,0.022 0.006,0.042 0.006,0.064 v 0.002 c 0,0.012 0.003,0.022 0.003,0.032 v 0.002 c 0,0.01 0,0.02 0,0.029 0,0 0,0.003 0,0.005 0,0.01 0,0.02 0,0.029 0,0.003 0,0.003 0,0.006 0,0.009 0.003,0.017 0.003,0.026 0,0.003 0,0.003 0,0.005 0,0.01 10e-4,0.02 10e-4,0.029 0,0.003 0,0.005 0,0.008 0,0.007 0,0.017 0.003,0.027 v 0.002 c 0,0.01 0,0.02 0,0.029 0,0.003 0,0.005 0,0.008 0,0.009 0,0.019 0,0.027 0,0.002 0,0.002 0,0.004 0,0.01 0,0.02 0,0.03 0,0.002 0,0.004 0,0.007 0,0.01 0,0.019 0,0.029 v 0.029 z m -8.448,0.007 -2.888,0.003 2.884,-4.45 z"
       fill="#63a3ee"
       id="path484" /><path
       d="m 269.455,312.87 -0.715,10e-4 -0.007,-8.507 0.715,-10e-4 z m -0.008,-9.221 h -0.715 l -0.004,-4.447 0.714,-1.1 z"
       fill="#fdf8f0"
       id="path485" /><path
       d="m 276.934,304.357 -7.486,0.006 h -0.713 l -3.352,0.003 0.464,-0.715 2.887,-0.002 0.714,-10e-4 7.735,-0.006 v 0.283 c -0.081,0.144 -0.167,0.285 -0.249,0.432 z"
       fill="#fdf8f0"
       id="path486" /><path
       d="m 271.618,313.583 -2.162,0.002 h -0.713 l -7.698,0.007 -0.001,-0.715 7.699,-0.006 0.712,-10e-4 2.575,-0.002 c -0.138,0.239 -0.272,0.476 -0.412,0.715 z"
       fill="#fdf8f0"
       id="path487" /><path
       d="m 309.366,325.815 c 0.002,3.16 -2.554,5.723 -5.713,5.725 -3.159,0.003 -5.723,-2.555 -5.726,-5.715 -0.002,-3.16 2.558,-5.722 5.717,-5.725 3.158,-0.002 5.719,2.555 5.722,5.715 z"
       fill="#b75742"
       id="path488" /><path
       d="m 313.194,299.899 c -0.003,-4.267 -4.288,-7.723 -9.57,-7.719 -5.285,0.005 -9.564,3.468 -9.56,7.735 v 0.032 l 0.019,23.892 19.131,-0.016 -0.02,-23.892 z"
       fill="#fcf5eb"
       id="path489" /><path
       d="m 311.705,300.38 c -0.003,-3.74 -3.619,-6.77 -8.078,-6.766 -4.459,0.004 -8.071,3.04 -8.068,6.78 v 0.029 l 0.019,21.949 16.145,-0.013 -0.018,-21.949 z"
       fill="#3e6193"
       id="path490" /><path
       d="m 303.988,323.603 -0.714,10e-4 -0.026,-31.229 h 0.714 z"
       fill="#fcf5eb"
       id="path491" /><path
       d="m 315.521,325.81 -23.572,0.02 -0.002,-1.99 23.572,-0.02 z"
       fill="#f2e3d1"
       id="path492" /><path
       d="m 294.722,304.342 v -0.714 l 17.784,-0.015 0.001,0.714 z"
       fill="#fcf5eb"
       id="path493" /><path
       d="m 294.73,313.563 -0.001,-0.714 17.785,-0.015 10e-4,0.715 z"
       fill="#fcf5eb"
       id="path494" /><path
       d="m 301.082,322.367 -5.504,0.005 -0.007,-8.81 7.694,-0.006 0.004,4.998 c -0.772,1.347 -1.511,2.632 -2.187,3.813 z m 2.903,-5.055 -0.003,-3.757 2.163,-0.002 c -0.732,1.274 -1.458,2.537 -2.16,3.759 z"
       fill="#63a3ee"
       id="path495" /><path
       d="m 303.27,318.554 -0.004,-4.998 0.714,-10e-4 0.003,3.758 c -0.242,0.419 -0.478,0.832 -0.713,1.241 z"
       fill="#fdf8f0"
       id="path496" /><path
       d="m 306.555,312.839 -2.576,0.002 -0.007,-8.507 7.483,-0.006 c -1.53,2.654 -3.228,5.601 -4.9,8.511 z m -3.29,0.003 -7.696,0.006 -0.001,-1.816 4.339,-6.694 3.351,-0.003 z m 8.442,-9.228 -7.736,0.006 -0.004,-5.547 2.593,-3.998 c 2.84,0.929 4.906,3.17 5.124,5.837 0.003,0.022 0.003,0.044 0.007,0.066 v 0.003 c 0,0.022 0,0.041 0.003,0.063 v 0.002 c 0,0.013 0,0.022 0,0.032 v 0.002 c 0.004,0.01 0.004,0.02 0.004,0.03 0,0 0,0.002 0,0.005 0,0.01 0.003,0.019 0.003,0.029 0,0.002 0,0.002 0,0.005 0,0.01 0,0.017 0,0.027 0,0.002 0,0.002 0,0.005 0,0.009 0,0.019 0,0.029 0,0.002 0,0.005 0,0.007 0,0.007 0,0.017 0,0.024 0,0.003 0,0.005 0,0.005 0,0.01 0,0.02 0,0.029 0,0.003 0,0.006 0,0.008 0,0.01 0,0.019 0.004,0.027 0,0.002 0,0.002 0,0.005 0,0.009 0,0.019 0,0.029 0,0.002 0,0.005 0,0.007 0,0.01 0,0.02 0,0.029 v 0.03 z m -8.45,0.007 -2.886,0.002 2.883,-4.45 z"
       fill="#63a3ee"
       id="path497" /><path
       d="m 303.979,312.841 -0.714,10e-4 -0.007,-8.507 0.714,-10e-4 z m -0.008,-9.221 h -0.714 l -0.003,-4.447 0.713,-1.1 z"
       fill="#fdf8f0"
       id="path498" /><path
       d="m 311.456,304.328 -7.484,0.006 -0.714,10e-4 -3.351,0.003 0.464,-0.715 2.887,-0.003 h 0.714 l 7.736,-0.007 v 0.283 c -0.084,0.144 -0.165,0.285 -0.252,0.432 z"
       fill="#fdf8f0"
       id="path499" /><path
       d="m 306.144,313.554 -2.165,0.002 h -0.714 l -7.697,0.007 v -0.715 l 7.696,-0.006 0.714,-10e-4 2.576,-0.002 c -0.14,0.239 -0.277,0.476 -0.41,0.715 z"
       fill="#fdf8f0"
       id="path500" /><path
       d="m 173.715,324.101 c -0.007,-8.163 -6.89,-14.775 -15.374,-14.768 -8.486,0.007 -15.356,6.63 -15.349,14.794 v 0.063 l 0.038,45.717 30.723,-0.025 -0.038,-45.717 h -0.002 z"
       fill="#fcf5eb"
       id="path501" /><path
       d="m 171.316,325.025 c -0.006,-7.156 -5.816,-12.954 -12.974,-12.948 -7.159,0.006 -12.959,5.813 -12.953,12.969 v 0.054 l 0.035,41.999 25.927,-0.022 -0.035,-41.998 z"
       fill="#3e6193"
       id="path502" /><path
       d="m 157.696,369.112 1.507,-0.001 -0.049,-58.408 -1.506,0.002 z"
       fill="#fcf5eb"
       id="path503" /><path
       d="m 148.376,367.052 -2.952,0.003 -0.016,-18.977 12.241,-35.801 0.023,27.589 z"
       fill="#63a3ee"
       id="path504" /><path
       d="m 159.173,335.466 -0.019,-23.363 c 0.557,0.034 1.104,0.102 1.639,0.204 0.005,0.002 0.007,0.002 0.012,0.002 0.008,0.003 0.015,0.005 0.023,0.005 0.007,0.002 0.014,0.002 0.022,0.005 0.005,0 0.007,0.002 0.012,0.002 0.008,0.003 0.018,0.003 0.027,0.005 0.003,0 0.003,0 0.003,0 1.988,0.396 3.813,1.245 5.361,2.439 z"
       fill="#63a3ee"
       id="path505" /><path
       d="m 157.672,339.866 -0.022,-27.589 0.06,-0.182 c 0.21,-0.01 0.42,-0.018 0.632,-0.018 0.273,0 0.546,0.009 0.814,0.026 l 0.019,23.363 z"
       fill="#fdf8f0"
       id="path506" /><path
       d="m 159.889,367.043 -0.689,10e-4 -0.015,-17.955 10.407,-30.44 c 1.086,1.891 1.71,4.085 1.712,6.423 v 0.054 l 0.007,8.516 z m -2.195,0.002 -4.65,0.004 4.639,-13.561 z"
       fill="#63a3ee"
       id="path507" /><path
       d="m 159.201,367.043 -1.506,0.002 -0.011,-13.557 1.502,-4.4 z"
       fill="#fdf8f0"
       id="path508" /><path
       d="m 227.127,126.241 -139.2646,0.115 0.0639,77.052 139.2647,-0.115 z"
       fill="#e79561"
       id="path509" /><path
       d="m 165.051,182.457 c 0.003,4.04 -3.265,7.317 -7.304,7.32 -4.036,0.003 -7.313,-3.268 -7.316,-7.308 -0.003,-4.04 3.267,-7.317 7.304,-7.32 4.039,-0.004 7.313,3.268 7.316,7.308 z"
       fill="#b75742"
       id="path510" /><path
       d="m 169.947,149.325 c -0.005,-5.454 -5.484,-9.871 -12.238,-9.865 -6.753,0.005 -12.227,4.432 -12.222,9.886 l 0.002,0.04 h -0.002 l 0.025,30.547 24.46,-0.02 -0.025,-30.548 z"
       fill="#fcf5eb"
       id="path511" /><path
       d="m 168.04,149.94 c -0.004,-4.782 -4.626,-8.654 -10.33,-8.649 -5.698,0.004 -10.313,3.884 -10.309,8.666 v 0.037 l 0.023,28.061 20.639,-0.017 -0.023,-28.061 z"
       fill="#3e6193"
       id="path512" /><path
       d="m 157.262,179.631 0.911,-0.001 -0.033,-39.921 h -0.911 z"
       fill="#fcf5eb"
       id="path513" /><path
       d="m 172.914,182.452 -30.133,0.025 -0.002,-2.542 30.133,-0.025 z"
       fill="#f2e3d1"
       id="path514" /><path
       d="m 146.327,155.006 -0.001,-0.913 22.738,-0.019 0.001,0.913 z"
       fill="#fcf5eb"
       id="path515" /><path
       d="m 146.336,166.793 v -0.913 l 22.738,-0.019 10e-4,0.913 z"
       fill="#fcf5eb"
       id="path516" /><path
       d="m 203.569,182.426 c 0.003,4.039 -3.267,7.316 -7.306,7.319 -4.039,0.004 -7.315,-3.268 -7.318,-7.307 -0.003,-4.039 3.267,-7.316 7.306,-7.319 4.038,-0.003 7.314,3.268 7.318,7.307 z"
       fill="#b75742"
       id="path517" /><path
       d="m 208.464,149.295 c -0.005,-5.455 -5.485,-9.872 -12.238,-9.867 -6.756,0.006 -12.226,4.432 -12.221,9.887 v 0.041 l 0.025,30.545 24.459,-0.02 -0.025,-30.545 h -0.003 z"
       fill="#fcf5eb"
       id="path518" /><path
       d="m 206.553,149.909 c -0.004,-4.781 -4.626,-8.653 -10.327,-8.649 -5.7,0.005 -10.316,3.886 -10.312,8.667 v 0.038 l 0.024,28.059 20.638,-0.017 -0.023,-28.059 z"
       fill="#3e6193"
       id="path519" /><path
       d="m 196.688,179.599 -0.911,0.001 -0.033,-39.921 0.911,-0.001 z"
       fill="#fcf5eb"
       id="path520" /><path
       d="m 211.432,182.42 -30.135,0.025 -0.002,-2.542 30.135,-0.025 z"
       fill="#f2e3d1"
       id="path521" /><path
       d="m 184.843,154.975 v -0.915 l 22.739,-0.019 0.001,0.915 z"
       fill="#fcf5eb"
       id="path522" /><path
       d="m 184.853,166.762 -0.001,-0.912 22.74,-0.019 v 0.912 z"
       fill="#fcf5eb"
       id="path523" /><path
       d="m 172.551,121.32 -1.939,0.001 -84.2818,0.07 0.0043,5.176 84.2815,-0.07 1.939,-0.001 57.588,-0.048 -0.004,-5.176 z"
       fill="#fcf5eb"
       id="path524" /><path
       d="m 85.5934,368.609 -17.5436,0.014 -0.1324,-159.852 17.5435,-0.015 z"
       fill="#fcf5eb"
       id="path525" /><path
       d="m 89.4433,216.753 -25.4951,0.021 -0.0066,-8 25.4951,-0.021 z"
       fill="#f2e3d1"
       id="path526" /><path
       d="m 87.924,368.607 -22.2043,0.018 -0.0042,-5.108 22.2043,-0.018 z"
       fill="#f2e3d1"
       id="path527" /><path
       d="m 86.5885,245.304 -19.7374,0.017 -0.0027,-3.25 19.7374,-0.017 z"
       fill="#f2e3d1"
       id="path528" /><path
       d="m 86.5992,258.442 -19.7374,0.016 -0.0027,-3.25 19.7374,-0.016 z"
       fill="#f2e3d1"
       id="path529" /><path
       d="m 86.6559,326.858 -19.7374,0.017 -0.0027,-3.253 19.7374,-0.016 z"
       fill="#f2e3d1"
       id="path530" /><path
       d="m 86.6666,339.995 -19.7374,0.017 -0.0027,-3.253 19.7374,-0.016 z"
       fill="#f2e3d1"
       id="path531" /><path
       d="m 248.78,368.832 -17.546,0.015 -0.132,-159.853 17.546,-0.014 z"
       fill="#fcf5eb"
       id="path532" /><path
       d="m 252.632,216.975 -25.499,0.022 -0.007,-8 25.499,-0.021 z"
       fill="#f2e3d1"
       id="path533" /><path
       d="m 251.113,368.83 -22.208,0.018 -0.004,-5.108 22.207,-0.018 z"
       fill="#f2e3d1"
       id="path534" /><path
       d="m 249.775,245.528 -19.74,0.016 -0.003,-3.252 19.74,-0.017 z"
       fill="#f2e3d1"
       id="path535" /><path
       d="m 249.786,258.665 -19.741,0.017 -0.002,-3.253 19.74,-0.016 z"
       fill="#f2e3d1"
       id="path536" /><path
       d="m 249.842,327.079 -19.74,0.016 -0.003,-3.25 19.74,-0.016 z"
       fill="#f2e3d1"
       id="path537" /><path
       d="m 249.853,340.216 -19.74,0.016 -0.002,-3.252 19.74,-0.016 z"
       fill="#f2e3d1"
       id="path538" /><path
       d="m 126.533,182.49 c 0.003,4.037 -3.268,7.315 -7.305,7.318 -4.039,0.003 -7.315,-3.269 -7.319,-7.306 -0.003,-4.04 3.268,-7.315 7.307,-7.319 4.037,-0.003 7.313,3.266 7.317,7.307 z"
       fill="#b75742"
       id="path539" /><path
       d="m 131.429,149.357 c -0.004,-5.454 -5.483,-9.872 -12.237,-9.867 -6.755,0.006 -12.226,4.433 -12.222,9.888 v 0.041 l 0.026,30.546 24.459,-0.02 -0.026,-30.546 z"
       fill="#fcf5eb"
       id="path540" /><path
       d="m 129.521,149.973 c -0.004,-4.781 -4.629,-8.654 -10.328,-8.649 -5.699,0.005 -10.317,3.885 -10.313,8.667 l 0.002,0.036 h -0.002 l 0.023,28.059 20.642,-0.017 -0.024,-28.059 z"
       fill="#3e6193"
       id="path541" /><path
       d="m 118.742,179.663 0.914,-0.001 -0.033,-39.921 h -0.914 z"
       fill="#fcf5eb"
       id="path542" /><path
       d="m 134.399,182.483 -30.136,0.025 -0.002,-2.543 30.136,-0.025 z"
       fill="#f2e3d1"
       id="path543" /><path
       d="m 107.811,155.036 22.736,-0.019 -0.001,-0.913 -22.736,0.019 z"
       fill="#fcf5eb"
       id="path544" /><path
       d="m 107.821,166.825 22.736,-0.019 -10e-4,-0.913 -22.736,0.019 z"
       fill="#fcf5eb"
       id="path545" /><path
       d="m 115.906,178.102 -7.03,0.006 -0.009,-11.284 h 0.026 l 0.01,11.262 7.015,-0.006 c -0.002,0.008 -0.007,0.015 -0.012,0.022 z"
       fill="#fdf8f0"
       id="path546" /><path
       d="m 115.918,178.08 -7.015,0.006 -0.009,-11.262 9.838,-0.008 0.005,6.356 c -0.996,1.737 -1.945,3.391 -2.819,4.908 z m 3.732,-6.496 -0.004,-4.769 2.747,-0.002 c -0.932,1.617 -1.852,3.22 -2.743,4.771 z"
       fill="#63a3ee"
       id="path547" /><path
       d="m 118.737,173.172 -0.005,-6.356 0.914,-0.001 0.004,4.769 c -0.31,0.537 -0.614,1.066 -0.913,1.588 z"
       fill="#fdf8f0"
       id="path548" /><path
       d="m 108.893,165.912 h -0.027 l -0.002,-2.292 0.027,-0.044 z"
       fill="#fdf8f0"
       id="path549" /><path
       d="m 122.916,165.9 -3.271,0.003 -0.009,-10.877 9.551,-0.008 c -1.96,3.394 -4.129,7.16 -6.271,10.882 z m -4.185,0.004 -9.838,0.008 -0.002,-2.336 5.538,-8.545 4.293,-0.004 z m 10.752,-11.798 -9.848,0.008 -0.006,-7.102 3.277,-5.057 c 3.845,1.255 6.571,4.386 6.574,8.057 v 0.037 z m -10.762,0.009 -3.698,0.003 3.693,-5.701 z"
       fill="#63a3ee"
       id="path550" /><path
       d="m 119.645,165.903 -0.914,0.001 -0.009,-10.877 0.914,-10e-4 z m -0.01,-11.789 -0.914,0.001 -0.005,-5.698 0.913,-1.405 z"
       fill="#fdf8f0"
       id="path551" /><path
       d="m 129.187,155.018 -14.758,0.013 0.594,-0.913 14.46,-0.012 0.001,0.398 c -0.098,0.17 -0.198,0.341 -0.297,0.514 z"
       fill="#fdf8f0"
       id="path552" /><path
       d="m 122.393,166.813 -13.526,0.011 -0.001,-0.912 14.05,-0.012 c -0.175,0.305 -0.35,0.61 -0.523,0.913 z"
       fill="#fdf8f0"
       id="path553" /><path
       d="m 154.562,178.072 -7.033,0.006 v -0.022 l 7.043,-0.006 c -0.002,0.007 -0.005,0.015 -0.01,0.022 z m 13.577,-23.997 h -0.097 l -0.004,-4.096 v -0.037 c -0.003,-3.273 -2.167,-6.118 -5.362,-7.588 3.245,1.455 5.456,4.323 5.459,7.625 v 0.037 z"
       fill="#fdf8f0"
       id="path554" /><path
       d="m 154.575,178.049 -7.044,0.006 -0.01,-11.263 9.731,-0.008 0.005,6.593 c -0.946,1.65 -1.848,3.221 -2.682,4.672 z m 3.594,-6.257 -0.005,-5.008 2.883,-0.003 c -0.978,1.7 -1.945,3.383 -2.878,5.011 z m 3.405,-5.924 -3.41,0.003 -0.009,-10.877 9.687,-0.008 c -1.957,3.392 -4.127,7.161 -6.268,10.882 z m -4.323,0.003 -9.73,0.008 -0.002,-2.291 5.567,-8.59 4.156,-0.004 z m 10.792,-11.799 -9.889,0.009 -0.006,-6.892 3.413,-5.267 c 0.386,0.127 0.757,0.271 1.117,0.429 3.195,1.471 5.359,4.317 5.362,7.589 v 0.037 z m -10.802,0.009 -3.562,0.003 3.557,-5.488 z"
       fill="#63a3ee"
       id="path555" /><path
       d="m 157.256,173.379 -0.005,-6.595 0.912,-0.001 0.004,5.008 c -0.307,0.537 -0.611,1.066 -0.911,1.588 z m 0.906,-7.508 -0.912,0.001 -0.009,-10.877 0.912,-0.001 z m -0.01,-11.788 h -0.912 l -0.004,-5.486 0.91,-1.407 z"
       fill="#fdf8f0"
       id="path556" /><path
       d="m 167.838,154.988 -9.685,0.008 -0.913,0.001 -4.155,0.003 0.592,-0.913 3.562,-0.003 0.913,-0.001 9.89,-0.008 h 0.097 v 0.398 c -0.099,0.169 -0.199,0.341 -0.301,0.515 z"
       fill="#fdf8f0"
       id="path557" /><path
       d="m 161.047,166.782 -2.883,0.002 -0.913,0.001 -9.731,0.008 -0.001,-0.913 9.731,-0.008 0.913,-0.001 3.409,-0.003 c -0.176,0.304 -0.349,0.61 -0.525,0.914 z"
       fill="#fdf8f0"
       id="path558" /><path
       d="m 154.641,273.771 -7.033,0.005 -0.009,-11.284 h 0.029 l 0.01,11.262 7.015,-0.005 c -0.005,0.009 -0.007,0.014 -0.012,0.022 z m -7.013,-12.191 h -0.03 l -0.002,-2.292 0.03,-0.043 z"
       fill="#fdf8f0"
       id="path559" /><path
       d="m 154.652,273.749 -7.013,0.006 -0.01,-11.263 9.837,-0.008 0.006,6.357 c -0.999,1.737 -1.948,3.39 -2.82,4.908 z m 3.731,-6.494 -0.004,-4.771 2.747,-0.003 c -0.929,1.62 -1.851,3.22 -2.743,4.774 z m 3.267,-5.686 -3.271,0.003 -0.009,-10.875 9.548,-0.008 c -1.955,3.391 -4.127,7.157 -6.268,10.88 z m -4.184,0.003 -9.837,0.009 -0.002,-2.336 5.538,-8.543 4.291,-0.004 z m 10.752,-11.797 -9.849,0.008 -0.006,-7.103 3.275,-5.057 c 3.847,1.255 6.574,4.388 6.577,8.058 v 0.036 z m -10.762,0.008 -3.7,0.004 3.695,-5.702 z"
       fill="#63a3ee"
       id="path560" /><path
       d="m 157.472,268.841 -0.005,-6.357 0.912,-10e-4 0.004,4.772 c -0.307,0.534 -0.611,1.064 -0.911,1.586 z m 0.906,-7.27 -0.912,10e-4 -0.009,-10.874 0.912,-0.001 z m -0.01,-11.788 h -0.912 l -0.004,-5.698 0.91,-1.405 z"
       fill="#fdf8f0"
       id="path561" /><path
       d="m 167.917,250.689 -9.548,0.008 -0.913,0.001 -4.291,0.004 0.591,-0.915 3.699,-0.003 0.913,-0.001 9.85,-0.008 v 0.397 c -0.099,0.171 -0.199,0.344 -0.301,0.517 z"
       fill="#fdf8f0"
       id="path562" /><path
       d="m 161.126,262.481 -2.748,0.002 -0.911,10e-4 -9.839,0.008 h -0.029 l -10e-4,-0.912 h 0.03 l 9.839,-0.008 0.91,-10e-4 3.275,-0.002 c -0.176,0.305 -0.35,0.609 -0.526,0.912 z"
       fill="#fdf8f0"
       id="path563" /><path
       d="m 193.215,178.039 -7.03,0.006 v -0.022 l 7.045,-0.006 c -0.005,0.007 -0.01,0.014 -0.015,0.022 z"
       fill="#fdf8f0"
       id="path564" /><path
       d="m 193.23,178.018 -7.044,0.006 -0.01,-11.263 9.592,-0.008 0.005,6.833 c -0.899,1.561 -1.754,3.053 -2.543,4.432 z m 3.454,-6.019 -0.005,-5.247 3.022,-0.002 c -1.028,1.784 -2.043,3.55 -3.017,5.249 z"
       fill="#63a3ee"
       id="path565" /><path
       d="m 195.772,173.586 -0.005,-6.832 0.911,-0.001 0.004,5.247 c -0.306,0.536 -0.612,1.064 -0.91,1.586 z"
       fill="#fdf8f0"
       id="path566" /><path
       d="m 206.791,154.044 h -0.234 l -0.004,-4.096 v -0.039 c -0.003,-3.6 -2.627,-6.686 -6.358,-7.989 l 0.019,-0.027 c 3.846,1.254 6.57,4.386 6.573,8.054 v 0.039 z"
       fill="#fdf8f0"
       id="path567" /><path
       d="m 200.224,165.838 -3.546,0.003 -0.009,-10.875 9.826,-0.008 c -1.961,3.39 -4.128,7.157 -6.271,10.88 z m -4.459,0.003 -9.592,0.008 -0.002,-2.291 5.565,-8.588 4.02,-0.004 z m 10.792,-11.796 -9.889,0.008 -0.006,-6.682 3.534,-5.449 c 3.732,1.299 6.354,4.386 6.357,7.988 v 0.038 z m -10.802,0.009 -3.423,0.003 3.419,-5.28 z"
       fill="#63a3ee"
       id="path568" /><path
       d="m 196.677,165.84 h -0.911 l -0.009,-10.875 0.911,-0.001 z m -0.01,-11.789 -0.911,0.001 -0.004,-5.274 0.91,-1.407 z"
       fill="#fdf8f0"
       id="path569" /><path
       d="m 206.495,154.957 -9.826,0.008 -0.913,0.001 -4.02,0.003 0.596,-0.913 3.423,-0.003 0.913,-0.001 9.889,-0.008 h 0.234 v 0.395 c -0.098,0.172 -0.196,0.344 -0.296,0.518 z"
       fill="#fdf8f0"
       id="path570" /><path
       d="m 199.702,166.75 -3.023,0.003 -0.912,0.001 -9.593,0.007 v -0.913 l 9.592,-0.007 0.913,-0.001 3.546,-0.003 c -0.174,0.303 -0.351,0.61 -0.523,0.913 z"
       fill="#fdf8f0"
       id="path571" /><path
       d="m 316.381,365.599 -0.003,-0.002 c 0,-0.278 0.017,-0.569 0.084,-0.778 -0.067,0.209 -0.084,0.5 -0.081,0.78 z"
       fill="#551d16"
       id="path572" /><path
       d="m 258.99,366.973 -200.6745,0.166 0.0068,8.227 200.6747,-0.167 z"
       fill="#dcd4ca"
       id="path573" /><g
       clip-path="url(#clip0_2503_8)"
       id="g592"><path
         d="m 147.778,311.428 0.252,0.226 c 0.128,0.115 0.32,0.111 0.434,-0.013 l 4.46,-4.889 c 0.113,-0.119 0.098,-0.31 -0.03,-0.425 l -0.256,-0.226 c -0.128,-0.115 -0.321,-0.111 -0.429,0.008 l -4.465,4.893 c -0.108,0.12 -0.099,0.311 0.034,0.426 z"
         fill="#13375b"
         id="path574" /><path
         d="m 132.648,307.457 c 0.595,-0.483 5.207,1.534 5.148,2.239 -0.059,0.7 3.219,7.508 3.219,7.508 l 5.666,-4.499 c 0.049,-0.164 0.59,-1.915 0.61,-2.225 0.034,-0.333 0.989,-0.904 1.432,-0.82 0.443,0.084 -0.384,0.638 -0.438,0.74 -0.148,0.279 0.423,0.382 0.423,0.382 0,0 1.639,-0.891 1.674,-1.419 0.034,-0.527 0.374,-1.631 0.723,-1.401 0.183,0.12 0.183,0.904 0.128,1.273 0.104,-0.421 0.251,-0.896 0.394,-0.944 0.271,-0.085 0.399,0.252 0.355,0.416 -0.05,0.164 -0.478,1.955 -0.606,2.154 -0.133,0.2 -2.771,2.318 -3.15,2.779 0,0 -7.329,8.35 -7.851,8.568 -0.452,0.19 -2.087,-2.687 -3.632,-4.597 -1.541,-1.91 -5.961,-8.642 -4.095,-10.154 z"
         fill="#efc9c0"
         id="path575" /><path
         d="m 117.864,368.829 c 0,0 -1.01,0.979 -1.029,1.338 -0.023,0.359 -0.089,4.211 0.321,4.57 0.41,0.359 1.618,0.612 1.231,1.015 -0.297,0.306 -2.552,0.243 -4.048,0.16 -0.438,-0.023 -0.981,-3.498 -1.156,-4.007 -0.25,-0.74 -0.863,-2.407 -0.632,-2.925 0.109,-0.253 0.642,-0.767 1.392,-1.25 0.788,-0.51 1.543,-1.64 1.543,-1.64 z"
         fill="#f48c7f"
         id="path576" /><path
         d="m 128.294,371.111 -0.899,2.54 c -0.067,0.403 -0.332,1.396 -0.332,1.759 0,1.374 6.206,-1.161 4.812,-1.773 -0.125,-0.053 -0.514,-0.491 -0.562,-0.961 -0.063,-0.718 0.529,-1.622 0.529,-1.622 z"
         fill="#f7a491"
         id="path577" /><path
         d="m 138.03,323.878 c 0,0 0.451,4.548 0.451,4.615 0,7.357 1.464,21.726 1.188,23.108 -0.679,3.373 -7.985,20.578 -7.985,20.578 l -3.946,-0.47 5.144,-20.6 -1.891,-8.292 -2.681,-16.39 z"
         fill="#355389"
         id="path578" /><path
         d="m 124.78,327.903 -0.744,4.308 -2.028,17.737 -7.717,17.334 c 0,0 1.086,2.522 2.685,2.876 l 12.285,-17.799 7.63,-22.772 -0.265,-5.057 z"
         fill="#13375b"
         id="path579" /><path
         d="m 139.608,313.055 -5.471,0.554 c 0,0 -0.252,-4.472 -0.252,-6.609 0,-2.588 0.218,-5.921 0.538,-5.85 0.877,0.204 2.065,0.687 2.767,1.653 2.443,3.346 2.418,10.252 2.418,10.252 z"
         fill="#efefef"
         id="path580" /><path
         d="m 136.913,306.545 c 0.116,0.794 2.218,22.249 2.218,22.249 -9.962,4.796 -15.464,0.856 -15.464,0.856 0,0 0.325,-15.07 -0.067,-17.122 -0.262,-1.356 -0.581,-10.371 0.305,-10.624 1.133,-0.323 2.426,-0.669 3.845,-0.815 1.201,-0.124 5.899,-0.195 6.737,0.084 0,0 1.946,2.057 2.426,5.372 z"
         fill="#ffffff"
         id="path581" /><path
         d="m 113.993,367.703 c 0,0 2.322,6.511 3.232,6.826 0.241,0.084 1.392,0.296 1.614,0.806 0.066,0.151 0,0.665 0,0.665 h -4.837 c 0,0 -0.613,-2.868 -0.854,-4.126 0,0 -1.279,-3.081 -1.137,-3.364 0.142,-0.28 1.982,-0.807 1.982,-0.807 z"
         fill="#f7cc7f"
         id="path582" /><path
         d="m 126.703,375.867 0.715,-2.243 c 0,0 1.493,0.63 2.242,0.527 0.744,-0.106 2.203,-0.527 2.203,-0.527 2.981,0.98 5.421,1.454 4.981,2.243 z"
         fill="#f7cc7f"
         id="path583" /><path
         d="m 140.374,322.208 c 0.024,-0.009 0.102,-0.076 0.15,-0.111 -0.175,-2.105 -0.145,-4.14 0.52,-4.831 -0.02,-0.031 -0.161,-0.337 -0.311,-0.656 -0.767,0.594 -1.136,2.163 -0.99,4.711 0.005,0.177 0.058,0.31 0.102,0.532 0.223,0.244 0.422,0.399 0.529,0.355 z"
         fill="#e9c1b8"
         id="path584" /><path
         d="m 113.794,329.02 c 0,-0.045 0,-0.093 0,-0.138 0.148,-1.485 1.387,-13.966 1.596,-14.493 0.185,-0.479 5.737,-8.394 5.737,-8.394 l 2.731,3.705 -5.343,7.1 c -0.119,0.448 -2.042,8.873 -2.042,8.873 0,0 -0.394,1.534 -0.575,2.455 0.086,0.222 0.162,0.431 0.233,0.603 0.176,0.368 0.385,0.665 0.575,0.922 0.237,0.319 0.631,1.015 0.684,1.201 0.052,0.218 0.156,0.665 0.213,0.94 0.057,0.27 0.138,0.585 0.152,0.735 0.01,0.09 0.1,0.266 0.171,0.395 0.105,0.186 -0.076,0.413 -0.285,0.341 -0.19,-0.062 -0.342,-0.314 -0.437,-0.47 -0.261,-0.438 -0.399,-1.245 -0.465,-1.201 -0.067,0.045 -0.295,1.405 -0.333,1.56 -0.033,0.156 -0.313,1.738 -0.47,2.026 -0.152,0.293 -0.361,0.244 -0.413,0.062 -0.047,-0.155 0.171,-2.371 0.171,-2.371 0,0 0.024,-0.284 -0.095,-0.195 -0.123,0.088 -0.332,2.101 -0.413,2.393 -0.09,0.293 -0.285,0.452 -0.451,0.213 -0.204,-0.288 0.147,-2.42 0.147,-2.42 0,0 0.033,-0.27 -0.076,-0.243 -0.119,0.026 -0.261,1.737 -0.351,1.887 -0.086,0.147 -0.314,0.2 -0.423,-0.044 -0.128,-0.292 0.204,-2.194 0.204,-2.194 0,0 -0.019,-0.15 -0.09,-0.102 -0.071,0.049 -0.299,1.503 -0.447,1.636 -0.128,0.115 -0.228,0.004 -0.228,0.004 -0.27,-0.186 0.143,-1.564 0.138,-2.251 0,-0.688 0.318,-1.458 0.223,-2.278 -0.009,-0.054 -0.023,-0.178 -0.038,-0.257 z"
         fill="#efc9c0"
         id="path585" /><path
         d="m 116.794,311.007 4.743,3.173 c 0,0 2.671,-3.966 4.108,-5.376 1.798,-1.768 -0.654,-7.184 -1.813,-6.878 -2.591,0.686 -7.038,9.081 -7.038,9.081 z"
         fill="#ffffff"
         id="path586" /><path
         d="m 128.098,296.448 -0.706,4.662 c 0,0 2.585,5.549 4.137,5.067 1.297,-0.404 0.499,-5.315 0.499,-5.315 0,0 -0.711,-2.637 -0.495,-3.953 0.207,-1.321 -3.435,-0.461 -3.435,-0.461 z"
         fill="#efc9c0"
         id="path587" /><path
         d="m 131.531,296.909 c 0.211,-1.321 -3.431,-0.461 -3.431,-0.461 l -0.062,0.39 c 0.106,0.257 0.24,0.479 0.398,0.647 0.811,0.873 2.087,1.396 3.186,1.436 -0.106,-0.709 -0.178,-1.471 -0.091,-2.012 z"
         fill="#f1baae"
         id="path588" /><path
         d="m 127.503,289.857 c -0.106,-0.035 -0.827,5.306 0.544,6.778 1.372,1.471 4.042,1.954 5,0.793 1.059,-1.281 1.006,-7.025 -1.121,-8.537 -2.137,-1.511 -4.423,0.966 -4.423,0.966 z"
         fill="#efc9c0"
         id="path589" /><path
         d="m 131.106,286.033 c -1.649,0.333 -2.716,1.339 -3.105,1.764 -0.746,0.089 -1.765,0.501 -2.818,2.234 -1.288,2.132 -0.336,4.494 1.169,5.651 1.5,1.157 1.48,2.495 1.48,2.495 l 0.236,-0.691 c 0.178,-0.523 0.245,-1.081 0.187,-1.631 -0.033,-0.328 -0.105,-0.687 -0.24,-0.98 -0.361,-0.771 0.779,-1.285 1.096,-1.932 0.245,-0.492 0.26,-1.627 0.644,-2.447 l 0.462,-0.625 c 0,0 1.067,-0.828 2.11,-0.593 1.044,0.235 0.89,-3.675 -1.221,-3.245 z"
         fill="#184655"
         id="path590" /><path
         d="m 129.048,293.895 c 0.01,0.651 -0.291,1.187 -0.664,1.192 -0.378,0.004 -0.694,-0.519 -0.703,-1.17 -0.01,-0.652 0.282,-1.184 0.664,-1.193 0.378,-0.004 0.689,0.519 0.703,1.171 z"
         fill="#e9c1b8"
         id="path591" /><path
         d="m 131.274,295.401 2.068,-0.106 c 0,0 -0.01,0.784 -0.914,0.856 -1.106,0.093 -1.154,-0.75 -1.154,-0.75 z"
         fill="#ffffff"
         id="path592" /></g><g
       clip-path="url(#clip1_2503_8)"
       id="g610"><path
         d="m 190.617,307.046 c 0,0 3.546,9.42 4.293,11.174 0.755,1.75 2.155,7.15 2.218,7.414 0.064,0.269 -1.79,3.28 -1.438,3.434 0.348,0.154 0.84,-1.516 1.209,-1.26 0.369,0.26 1.243,4.571 1.472,4.395 0.424,-0.331 -0.454,-2.663 -0.229,-2.773 0.225,-0.106 0.73,2.535 1.158,2.517 0.433,-0.018 -0.674,-2.451 -0.543,-2.632 0.132,-0.185 1.285,2.121 1.544,1.697 0.14,-0.229 -1.065,-2.019 -0.806,-2.138 0.259,-0.114 1.353,1.085 1.493,0.798 0.14,-0.282 -1.026,-0.855 -1.34,-1.715 -0.31,-0.859 -0.895,-1.291 -1.065,-2.83 -0.161,-1.534 -0.229,-7.017 -1.366,-9.9 -1.132,-2.888 -3.631,-9.274 -3.631,-9.274 z"
         fill="#8c716c"
         id="path593" /><path
         d="m 191.746,296.554 c 0.08,-2.323 -0.205,-4.619 -1.059,-6.784 -0.736,-1.864 -2.556,-2.918 -4.213,-2.922 -5.277,-0.009 -5.947,8.463 -9.303,11.734 -1.025,0.996 -2.168,1.812 -3.138,2.887 -3.587,3.976 -1.971,11.338 1.318,14.825 2.285,2.415 5.871,3.791 8.687,1.899 1.465,-0.987 2.582,-2.626 3.377,-4.425 1.126,-2.553 1.854,-5.497 2.657,-8.213 0.85,-2.896 1.57,-5.911 1.674,-9.001 z"
         fill="#13375b"
         id="path594" /><path
         d="m 172.905,287.509 c 0.247,-0.216 0.86,1.304 1.156,1.291 0.3,-0.013 -0.202,-2.129 0.02,-2.292 0.411,-0.3 0.666,2.275 0.859,2.151 0.198,-0.123 0.042,-2.795 0.469,-2.653 0.419,0.14 -0.082,2.79 0.181,2.768 0.259,-0.018 0.284,-2.513 0.822,-2.663 0.292,-0.084 -0.489,4.254 -0.226,4.633 0.263,0.375 1.373,-1.005 1.657,-0.736 0.283,0.273 -2.175,2.301 -2.216,2.574 -0.037,0.269 -0.547,6.097 -0.481,8.023 0.551,0.035 3.65,0.78 4.168,0.802 -0.345,1.217 0.498,2.478 0.214,3.707 -1.735,-0.185 -6.91,-0.665 -7.235,-1.115 -0.987,-1.375 0.822,-9.883 1.241,-11.373 0.416,-1.494 0.005,-2.111 0.029,-3.028 0.021,-0.912 -0.9,-1.878 -0.658,-2.089 z"
         fill="#8c716c"
         id="path595" /><path
         d="m 180.971,374.498 c 0.433,-0.392 0.786,-0.648 2.189,-1.472 0.092,-0.054 0.425,-0.309 0.545,-0.397 0.304,-0.229 0.608,-0.582 0.87,-0.939 0.25,-0.339 0.371,-1.424 0.425,-2.292 -0.142,-1.936 -2.456,-32.973 -2.943,-36.332 -0.508,-3.469 0.262,-8.759 0.262,-8.759 l 1.786,-0.815 3.393,14.243 -0.267,10.843 c 0,0 0.799,3.126 0.899,4.995 0.1,1.864 -1.153,17.024 -1.153,17.024 0,0.542 0.021,1.031 0.067,1.34 0.096,0.564 0.608,1.732 0.37,2.265 -0.237,0.534 -0.503,0.67 -0.503,0.67 l -6.099,0.119 c -0.333,0.005 -0.112,-0.255 0.159,-0.493 z"
         fill="#8c716c"
         id="path596" /><path
         d="m 190.222,323.197 c 0,0 2.12,3.869 2.619,7.07 0.508,3.2 -0.364,13.039 0.601,17.236 0.529,2.27 2.518,5.774 2.818,8.71 0.301,2.936 1.359,11.408 1.359,11.408 h -0.004 c 0.16,0.886 0.41,1.988 0.736,2.499 0.195,0.313 0.559,0.706 0.796,1.274 0.368,0.882 0.165,2.191 -0.11,2.914 -0.136,0.371 0.012,0.371 -0.309,0.489 -0.944,0.353 -1.947,-0.242 -2.349,-1.34 -0.224,-0.617 -0.419,-1.432 -0.461,-2.464 -0.043,-1.093 -0.187,-1.961 -0.335,-2.6 l -6.766,-20.11 -4.901,-17.351 -1.252,-8.935 z"
         fill="#8c716c"
         id="path597" /><path
         d="m 196.192,372.88 c 1.464,0.322 2.438,-0.718 2.946,-1.494 0.373,0.881 0.555,2.195 0.284,2.922 -0.246,0.635 -0.949,0.618 -1.507,0.644 -0.584,0.027 -1.042,-0.37 -1.329,-0.992 -0.136,-0.286 -0.28,-0.648 -0.394,-1.08 z"
         fill="#13375b"
         id="path598" /><path
         d="m 183.705,372.625 c 1.609,0.502 2.802,0.163 3.468,-0.164 0.174,0.591 0.399,1.336 0.278,1.764 -0.149,0.52 -0.357,0.639 -0.544,0.648 -1.473,0.044 -5.394,0.11 -6.517,0.127 -0.158,0 -0.245,-0.22 -0.145,-0.365 0.282,-0.406 3.339,-1.918 3.46,-2.01 z"
         fill="#13375b"
         id="path599" /><path
         d="m 188.851,347.903 c -0.125,0.014 -0.256,0.023 -0.381,0.031 h -0.021 c -0.126,0.009 -0.248,0.018 -0.378,0.027 l -0.025,0.004 c -0.122,0.005 -0.252,0.014 -0.378,0.022 h -0.021 c -0.13,0.005 -0.26,0.013 -0.39,0.018 -1.444,0.057 -3.227,0.035 -4.377,-0.203 -0.579,-7.079 -0.801,-13.542 -1.019,-14.97 -0.521,-3.469 0.461,-8.944 0.461,-8.944 l -0.08,-1.3 0.252,-0.829 7.864,1.204 c 0,0 2.203,3.866 2.727,7.066 0.525,3.204 -0.386,13.043 0.621,17.236 0,0 -2.245,0.427 -4.855,0.638 z"
         fill="#13375b"
         id="path600" /><path
         d="m 178.142,300.878 c 0,0 5.886,-0.749 7.627,-0.044 1.733,0.705 2.954,3.712 2.029,5.391 -0.929,1.684 -9.285,-0.52 -9.285,-0.52 z"
         fill="#eab054"
         id="path601" /><path
         d="m 188.526,300.212 c 0,0 2.912,-0.216 4.062,1.261 1.154,1.477 -2.556,13.167 -2.761,15.05 -0.214,1.882 1.066,6.88 1.066,6.88 0,0 -6.84,1.623 -8.8,0.102 0,0 -0.357,-13.661 -0.147,-15.001 0.21,-1.344 2.107,-6.678 2.526,-7.216 0.42,-0.537 4.054,-1.076 4.054,-1.076 z"
         fill="#f7cc7f"
         id="path602" /><path
         d="m 187.551,295.633 c 0,0 0.021,0.101 0.046,0.273 0.129,0.824 0.629,3.558 0.967,4.311 0.408,0.909 -1.396,3.804 -3.138,3.452 -0.517,-0.106 0.437,-2.663 0.396,-2.936 -0.088,-0.516 -0.209,-1.225 -0.33,-1.949 -0.07,-0.409 -0.137,-0.824 -0.204,-1.212 -0.183,-1.111 -0.337,-2.014 -0.337,-2.014 z"
         fill="#8c716c"
         id="path603" /><path
         d="m 185.491,298.775 c -0.029,-0.171 -0.058,-0.344 -0.087,-0.515 -0.013,-0.089 -0.029,-0.172 -0.042,-0.256 -0.025,-0.145 -0.05,-0.291 -0.071,-0.432 -0.187,-1.111 -0.336,-2.014 -0.336,-2.014 l 2.599,0.075 c 0,0 0.021,0.101 0.046,0.273 0,0.004 0,0.013 0.004,0.017 0.017,0.124 0.042,0.287 0.075,0.472 -0.183,0.608 -0.483,1.177 -0.944,1.649 -0.42,0.432 -0.84,0.665 -1.244,0.731 z"
         fill="#4d322e"
         id="path604" /><path
         d="m 185.805,288.668 c 0,0 1.226,-0.168 1.993,1.005 0.772,1.168 1.601,4.791 -0.308,6.762 -1.914,1.966 -3.803,-0.26 -4.083,-2.623 -0.279,-2.367 -0.387,-5.232 2.398,-5.144 z"
         fill="#8c716c"
         id="path605" /><path
         d="m 182.84,293.777 c 0.227,0.52 0.612,0.811 0.856,0.644 0.24,-0.163 0.257,-0.723 0.029,-1.243 -0.227,-0.525 -0.612,-0.811 -0.856,-0.648 -0.244,0.167 -0.257,0.722 -0.029,1.247 z"
         fill="#8c716c"
         id="path606" /><path
         d="m 185.66,288.281 c 0,0 1.644,3.442 2.816,3.601 1.168,0.163 1.327,1.993 1.327,1.993 0,0 -0.422,-4.219 -1.582,-5.034 -1.164,-0.811 -2.561,-0.56 -2.561,-0.56 z"
         fill="#13375b"
         id="path607" /><path
         d="m 188.164,292.751 c -0.092,0.608 0.1,1.172 0.429,1.252 0.334,0.079 0.684,-0.353 0.776,-0.962 0.096,-0.612 -0.096,-1.172 -0.43,-1.256 -0.329,-0.079 -0.675,0.353 -0.775,0.966 z"
         fill="#8c716c"
         id="path608" /><path
         d="m 186.557,294.342 -1.678,0.29 c 0,0 0.133,0.763 0.872,0.662 0.901,-0.124 0.806,-0.952 0.806,-0.952 z"
         fill="#ffffff"
         id="path609" /><path
         d="m 192.461,313.711 c 0,0 -3.29,-5.964 -3.585,-8.151 -0.295,-2.191 1.331,-4.902 2.991,-4.69 1.66,0.212 4.503,10.182 4.503,10.182 z"
         fill="#f7cc7f"
         id="path610" /></g><g
       clip-path="url(#clip2_2503_8)"
       id="g616"><path
         d="m 306.668,335.083 c -0.056,-0.373 -0.606,-0.663 -0.842,-0.332 -0.236,0.33 -0.248,0.107 -0.435,0.821 -0.528,2.049 -1.423,4.031 -2.532,5.763 -2.125,3.319 -4.415,4.994 -7.044,6.653 0.861,-2.604 1.32,-5.386 1.094,-8.19 -0.081,-1.023 -0.224,-2.083 -0.771,-3.021 -0.152,-0.262 -0.618,-0.208 -0.634,0.084 -0.068,1.448 0.404,2.54 0.233,5.13 -0.407,6.18 -4.098,12.737 -7.855,17.328 -0.074,-7.772 -0.696,-16.605 -3.073,-24.444 -0.388,-1.286 -0.913,-2.51 -1.413,-3.767 -0.118,-0.294 -0.525,-0.168 -0.442,0.126 0.125,0.418 1.448,5.813 1.532,6.183 1.367,5.972 1.998,12.586 2.166,18.617 -3.847,-4.484 -6.677,-9.727 -8.352,-15.203 -0.494,-1.618 -0.767,-3.29 -1.383,-4.879 -0.087,-0.218 -0.45,-0.242 -0.469,0 -0.168,2.381 1.206,6.592 2.116,8.88 1.846,4.635 4.422,8.791 7.718,12.502 0.128,0.145 -0.401,36.42 -0.22,36.878 0.304,0.774 1.721,1.318 1.774,-0.055 0.022,-0.56 0.065,-22.616 0.056,-32.834 0.413,-0.242 0.646,-0.673 1.637,-1.944 2.29,-2.942 4.468,-6.603 5.807,-10.056 1.035,-0.059 8.147,-3.707 10.925,-12.012 0.078,-0.24 0.435,-1.364 0.476,-1.615 0.034,-0.213 -0.038,-0.401 -0.069,-0.613 z"
         fill="#784a38"
         id="path611" /><path
         d="m 281.999,323.226 c 0.086,-1.131 0.131,-2.288 0.131,-3.464 0,-13.12 -5.525,-23.756 -12.342,-23.756 -6.816,0 -12.341,10.636 -12.341,23.756 0,1.176 0.045,2.333 0.13,3.464 z"
         fill="#184655"
         id="path612" /><path
         d="m 295.966,317.387 c 0.085,-1.594 0.131,-3.224 0.131,-4.883 C 296.097,294 290.57,279 283.754,279 c -6.816,0 -12.34,15 -12.34,33.504 0,1.659 0.046,3.289 0.131,4.883 z"
         fill="#3c8f7c"
         id="path613" /><path
         d="m 291.449,337.918 c -0.088,-1.131 -0.133,-2.288 -0.133,-3.464 0,-13.12 5.528,-23.757 12.342,-23.757 6.818,0 12.342,10.637 12.342,23.757 0,1.176 -0.044,2.333 -0.13,3.464 z"
         fill="#3c8f7c"
         id="path614" /><path
         d="m 271.699,337.918 c -0.111,-1.595 -0.167,-3.225 -0.167,-4.885 0,-18.503 7.005,-33.504 15.646,-33.504 8.641,0 15.643,15.001 15.643,33.504 0,1.66 -0.056,3.29 -0.164,4.885 z"
         fill="#184655"
         id="path615" /><path
         d="m 283.708,299.53 c -4.32,0 -8.176,4.759 -10.723,12.221 -1.297,-0.685 -2.673,-1.053 -4.101,-1.053 -7.67,0 -13.884,10.637 -13.884,23.757 0,1.176 0.052,2.333 0.146,3.463 h 42.297 c 0.097,-1.595 0.146,-3.225 0.146,-4.885 0,-18.503 -6.214,-33.503 -13.881,-33.503 z"
         fill="#3c8f7c"
         id="path616" /></g></g></svg>
