<svg width="29" height="89" viewBox="0 0 29 89" fill="none" xmlns="http://www.w3.org/2000/svg">
<g clip-path="url(#clip0_9_2810)">
<path d="M18.6176 21.0454C18.6176 21.0454 22.1636 30.4653 22.9102 32.2196C23.6652 33.9698 25.065 39.3694 25.1286 39.6339C25.1922 39.9031 23.3386 42.914 23.6906 43.0681C24.0385 43.2222 24.5305 41.5516 24.8995 41.8074C25.2686 42.0674 26.1424 46.3784 26.3714 46.2022C26.7956 45.8714 25.9175 43.5397 26.1423 43.4297C26.3672 43.3234 26.872 45.9644 27.3004 45.9464C27.733 45.9289 26.6259 43.4955 26.7574 43.3147C26.8889 43.1297 28.0427 45.4352 28.3014 45.0119C28.4414 44.7828 27.2367 42.9931 27.4955 42.8739C27.7542 42.7593 28.8486 43.9583 28.9886 43.6717C29.1285 43.3897 27.962 42.8169 27.6482 41.9569C27.3385 41.0975 26.7532 40.6655 26.5835 39.1269C26.4223 37.593 26.3544 32.1096 25.2177 29.2267C24.0851 26.3392 21.5868 19.9522 21.5868 19.9522L18.6176 21.0454Z" fill="#8C716C"/>
<path d="M19.7463 10.5538C19.8258 8.23118 19.5412 5.93438 18.6876 3.76985C17.9511 1.90534 16.1308 0.851719 14.4736 0.847664C9.19679 0.838543 8.52725 9.31066 5.17116 12.5815C4.14593 13.5779 3.00352 14.3933 2.03268 15.4687C-1.55357 19.4451 0.0617086 26.8063 3.35084 30.2935C5.63566 32.7089 9.22193 34.0844 12.0382 32.193C13.5028 31.2058 14.6201 29.5663 15.4152 27.7677C16.5408 25.2149 17.269 22.2704 18.0724 19.555C18.9219 16.6592 19.6417 13.6438 19.7463 10.5538Z" fill="#13375B"/>
<path d="M0.905363 1.50843C1.15202 1.29235 1.76453 2.81334 2.06052 2.7999C2.36062 2.78695 1.85909 0.671017 2.08108 0.507715C2.49217 0.207996 2.74707 2.78248 2.94028 2.65901C3.13761 2.53554 2.98141 -0.136036 3.40894 0.00535965C3.82826 0.146257 3.3267 2.79543 3.5898 2.77352C3.84879 2.7556 3.87346 0.260773 4.41199 0.110914C4.70387 0.0272713 3.92279 4.36471 4.18589 4.74408C4.44899 5.11848 5.55894 3.73888 5.84259 4.00773C6.12625 4.28106 3.66793 6.3089 3.62682 6.58222C3.58982 6.85108 3.08005 12.6786 3.14583 14.6049C3.69669 14.6402 6.79636 15.3851 7.31434 15.407C6.96902 16.6238 7.81173 17.8844 7.52808 19.1141C5.79326 18.9289 0.617581 18.4489 0.292816 17.9989C-0.69381 16.6238 1.11501 8.11616 1.53433 6.62603C1.94953 5.13192 1.53845 4.51456 1.56311 3.59798C1.58367 2.68539 0.662817 1.72002 0.905363 1.50843Z" fill="#8C716C"/>
<path d="M8.97085 88.4976C9.40376 88.1053 9.7576 87.8498 11.1604 87.0255C11.252 86.9721 11.585 86.717 11.7057 86.6288C12.0095 86.3994 12.3134 86.0465 12.5757 85.6896C12.8254 85.3503 12.9462 84.2659 13.0003 83.3973C12.8587 81.462 10.5443 50.425 10.0573 47.0661C9.54947 43.5967 10.3195 38.3069 10.3195 38.3069L12.1053 37.4917L15.4978 51.7342L15.2314 62.578C15.2314 62.578 16.0306 65.7036 16.1305 67.5723C16.2304 69.4371 14.9775 84.5966 14.9775 84.5966C14.9775 85.1386 14.9983 85.6281 15.0441 85.9366C15.1398 86.5007 15.6518 87.6688 15.4146 88.2021C15.1773 88.7355 14.9109 88.8721 14.9109 88.8721L8.81268 88.9911C8.47967 88.9956 8.70028 88.7355 8.97085 88.4976Z" fill="#8C716C"/>
<path d="M18.2218 37.1962C18.2218 37.1962 20.3419 41.0662 20.8412 44.2668C21.349 47.4669 20.4773 57.3055 21.4422 61.5025C21.9711 63.7724 23.9601 67.2769 24.2605 70.2125C24.561 73.1487 25.619 81.621 25.619 81.621H25.6147C25.7755 82.5071 26.0252 83.609 26.3511 84.12C26.5457 84.4331 26.9097 84.8252 27.1466 85.3941C27.5148 86.2756 27.3117 87.5851 27.0366 88.3077C26.9012 88.6782 27.0493 88.6782 26.7277 88.7971C25.784 89.1498 24.7811 88.5547 24.3791 87.4569C24.1548 86.8399 23.9601 86.0245 23.9178 84.9928C23.8755 83.8996 23.7316 83.0314 23.5834 82.3923L16.8168 62.2825L11.9163 44.932L10.6637 35.9969L18.2218 37.1962Z" fill="#8C716C"/>
<path d="M24.192 86.88C25.6566 87.202 26.6302 86.1613 27.1381 85.3857C27.5106 86.2669 27.6926 87.5808 27.4217 88.3082C27.1762 88.9429 26.4736 88.9255 25.9148 88.9516C25.3307 88.9783 24.8735 88.5815 24.5857 87.9602C24.4502 87.6736 24.3063 87.3122 24.192 86.88Z" fill="#13375B"/>
<path d="M11.7045 86.6243C13.3139 87.127 14.5074 86.7875 15.1728 86.4612C15.3474 87.0519 15.572 87.7968 15.4514 88.2244C15.3017 88.7447 15.0938 88.8635 14.9066 88.8726C13.4345 88.9164 9.51297 88.9824 8.39016 89C8.23213 89 8.1448 88.7799 8.24461 88.6344C8.52739 88.2289 11.5839 86.717 11.7045 86.6243Z" fill="#13375B"/>
<path d="M16.8515 61.903C16.7256 61.9167 16.5956 61.9254 16.4697 61.934H16.4487C16.3228 61.9432 16.2011 61.9518 16.071 61.9605L16.0458 61.965C15.9242 61.9696 15.7941 61.9782 15.6682 61.9869H15.6472C15.5171 61.9915 15.387 62.0001 15.257 62.0047C13.8135 62.0621 12.0301 62.0397 10.8804 61.8019C10.3013 54.7228 10.0789 48.2601 9.86069 46.832C9.34036 43.3626 10.3223 37.8878 10.3223 37.8878L10.2425 36.5874L10.4943 35.759L18.358 36.9624C18.358 36.9624 20.561 40.8282 21.0855 44.0283C21.61 47.233 20.6994 57.0721 21.7065 61.2642C21.7065 61.2642 19.4615 61.6916 16.8515 61.903Z" fill="#13375B"/>
<path d="M6.14233 14.8778C6.14233 14.8778 12.0283 14.1286 13.7696 14.8339C15.5025 15.5392 16.723 18.5454 15.7982 20.2249C14.8693 21.9089 6.51309 19.7048 6.51309 19.7048L6.14233 14.8778Z" fill="#EAB054"/>
<path d="M16.5261 14.2121C16.5261 14.2121 19.4384 13.9961 20.5882 15.473C21.7422 16.9499 18.0326 28.64 17.827 30.5224C17.6129 32.4043 18.8928 37.4032 18.8928 37.4032C18.8928 37.4032 12.0527 39.0254 10.093 37.5048C10.093 37.5048 9.7363 23.8439 9.94612 22.5037C10.1559 21.1595 12.0527 15.8257 12.4723 15.288C12.892 14.7503 16.5261 14.2121 16.5261 14.2121Z" fill="#F7CC7F"/>
<path d="M15.5511 9.63298C15.5511 9.63298 15.5719 9.73392 15.5969 9.90602C15.7261 10.7302 16.2262 13.4635 16.5637 14.217C16.9721 15.1254 15.1677 18.0212 13.4259 17.6684C12.9092 17.563 13.8634 15.0063 13.8218 14.7327C13.7342 14.217 13.6134 13.5074 13.4925 12.7842C13.4217 12.3744 13.355 11.9601 13.2883 11.572C13.105 10.4612 12.9508 9.55779 12.9508 9.55779L15.5511 9.63298Z" fill="#8C716C"/>
<path d="M13.491 12.7751C13.4619 12.6033 13.4328 12.431 13.4037 12.2593C13.3912 12.1711 13.3745 12.0875 13.3621 12.0039C13.3371 11.8583 13.3121 11.7127 13.2913 11.5717C13.1042 10.461 12.9545 9.55732 12.9545 9.55732L15.554 9.63237C15.554 9.63237 15.5748 9.73363 15.5997 9.90539C15.5997 9.90993 15.5997 9.91848 15.6039 9.92302C15.6205 10.0464 15.6455 10.2096 15.6787 10.3945C15.4957 11.003 15.1963 11.5717 14.7346 12.0437C14.3145 12.4753 13.8945 12.7091 13.491 12.7751Z" fill="#4D322E"/>
<path d="M13.8049 2.66777C13.8049 2.66777 15.0308 2.50012 15.798 3.67272C16.5694 4.84077 17.3992 8.46409 15.4895 10.4346C13.5756 12.4005 11.6866 10.1745 11.4073 7.81215C11.1279 5.44474 11.0195 2.5794 13.8049 2.66777Z" fill="#8C716C"/>
<path d="M10.8402 7.77714C11.0677 8.29712 11.4524 8.58767 11.6964 8.42036C11.9363 8.25755 11.9529 7.69749 11.7254 7.17751C11.4979 6.65302 11.1132 6.36648 10.8691 6.52928C10.6251 6.6971 10.6127 7.25215 10.8402 7.77714Z" fill="#8C716C"/>
<path d="M13.6597 2.28049C13.6597 2.28049 15.3035 5.72306 16.4759 5.88222C17.6442 6.04493 17.8027 7.8746 17.8027 7.8746C17.8027 7.8746 17.3813 3.65591 16.2214 2.84036C15.0573 2.02937 13.6597 2.28049 13.6597 2.28049Z" fill="#13375B"/>
<path d="M16.1634 6.75033C16.0717 7.3584 16.2635 7.92304 16.5929 8.00233C16.9266 8.08162 17.2769 7.64981 17.3686 7.04123C17.4645 6.42862 17.2727 5.86852 16.9391 5.78468C16.6097 5.70539 16.2635 6.13771 16.1634 6.75033Z" fill="#8C716C"/>
<path d="M14.5569 8.34132L12.8792 8.63203C12.8792 8.63203 13.012 9.395 13.7513 9.2934C14.6524 9.17018 14.5569 8.34132 14.5569 8.34132Z" fill="white"/>
<path d="M20.4612 27.7106C20.4612 27.7106 17.1712 21.7462 16.8763 19.5596C16.5814 17.3689 18.2074 14.6578 19.8672 14.8696C21.5269 15.0813 24.3704 25.0521 24.3704 25.0521L20.4612 27.7106Z" fill="#F7CC7F"/>
</g>
<defs>
<clipPath id="clip0_9_2810">
<rect width="29" height="89" fill="white"/>
</clipPath>
</defs>
</svg>
